{"glyphs":{"0":{"ha":806,"x_min":78,"x_max":744,"o":"m 744 599 q 712 329 744 444 q 625 139 680 215 q 499 27 571 64 q 350 -10 428 -10 q 242 14 292 -10 q 156 88 192 39 q 99 211 119 138 q 78 384 78 285 q 111 653 78 538 q 198 843 143 767 q 323 956 252 919 q 473 994 394 994 q 581 969 531 994 q 667 895 631 944 q 724 772 703 846 q 744 599 744 697 m 678 602 q 661 753 678 690 q 616 858 645 817 q 549 919 588 899 q 466 940 510 940 q 346 908 404 940 q 243 808 288 876 q 172 634 199 740 q 144 381 144 528 q 161 230 144 294 q 206 125 177 166 q 273 64 235 83 q 356 44 312 44 q 476 76 418 44 q 579 175 534 108 q 651 349 624 243 q 678 602 678 454 z "},"1":{"ha":806,"x_min":155,"x_max":629,"o":"m 629 49 l 623 0 l 155 0 l 162 49 l 369 49 l 467 851 q 470 875 468 863 q 475 900 472 888 l 254 707 q 234 701 243 699 q 221 709 225 703 l 205 736 l 497 987 l 548 987 l 433 49 l 629 49 z "},"2":{"ha":806,"x_min":56,"x_max":713,"o":"m 626 60 q 642 54 637 60 q 647 38 648 48 l 642 0 l 56 0 l 60 23 q 65 38 60 31 q 76 51 69 46 l 425 392 q 514 482 473 439 q 584 568 554 524 q 630 658 613 612 q 647 760 647 705 q 633 839 647 806 q 595 895 619 873 q 539 928 571 917 q 472 939 508 939 q 392 925 430 939 q 324 885 355 910 q 272 824 294 860 q 237 747 249 789 q 223 727 231 732 q 201 724 214 722 l 168 728 q 214 840 184 791 q 285 924 244 890 q 376 976 326 958 q 482 994 426 994 q 572 979 530 994 q 645 936 614 965 q 694 865 676 908 q 713 766 713 822 q 693 649 713 702 q 640 549 674 597 q 563 457 607 502 q 471 365 519 413 l 147 49 q 193 58 169 55 q 241 60 217 60 l 626 60 z "},"3":{"ha":806,"x_min":80,"x_max":708,"o":"m 169 728 q 215 840 185 791 q 285 924 244 890 q 376 976 326 958 q 482 994 426 994 q 571 980 530 994 q 643 939 613 966 q 691 872 674 912 q 708 778 708 831 q 692 678 708 722 q 647 601 676 634 q 580 545 619 567 q 497 512 542 523 q 574 484 541 503 q 629 438 607 465 q 662 377 651 411 q 673 302 673 342 q 647 177 673 235 q 575 78 620 120 q 471 13 531 36 q 345 -11 412 -11 q 219 11 268 -11 q 141 70 170 34 q 99 151 113 106 q 80 240 86 196 l 106 251 q 130 253 118 256 q 144 238 141 251 q 151 212 147 229 q 161 173 154 194 q 182 128 169 151 q 217 87 195 106 q 272 56 240 68 q 351 44 304 44 q 460 67 412 44 q 541 127 508 90 q 592 210 574 165 q 609 301 609 256 q 597 372 609 340 q 556 429 584 405 q 483 467 528 453 q 373 481 438 481 l 378 528 q 491 547 442 529 q 574 595 540 564 q 626 670 608 626 q 644 767 644 713 q 631 843 644 811 q 594 897 617 876 q 540 928 571 918 q 473 939 508 939 q 393 925 431 939 q 325 885 356 910 q 271 824 294 860 q 236 747 249 789 q 222 727 230 732 q 201 724 215 722 l 169 728 z "},"4":{"ha":806,"x_min":48,"x_max":724,"o":"m 503 334 l 567 852 q 575 898 569 874 l 117 334 l 503 334 m 724 334 l 719 299 q 714 287 718 292 q 700 283 709 283 l 553 283 l 519 0 l 463 0 l 497 283 l 71 283 q 56 287 61 283 q 51 299 51 292 l 48 331 l 583 983 l 640 983 l 560 334 l 724 334 z "},"5":{"ha":806,"x_min":79,"x_max":715,"o":"m 715 983 l 712 955 q 700 932 710 941 q 670 924 690 924 l 347 924 l 252 594 q 408 615 338 615 q 519 596 471 615 q 598 543 567 577 q 646 464 630 510 q 662 363 662 417 q 632 207 662 276 q 553 89 603 138 q 439 15 503 40 q 304 -11 374 -11 q 233 -4 267 -11 q 172 16 200 3 q 120 43 143 28 q 79 76 97 59 l 101 102 q 122 113 110 113 q 145 102 131 113 q 182 79 159 92 q 237 56 205 66 q 314 45 269 45 q 424 67 372 45 q 513 129 475 88 q 574 227 551 169 q 596 358 596 285 q 583 440 596 402 q 545 504 571 477 q 481 547 520 531 q 389 562 442 562 q 311 555 353 562 q 222 535 269 549 l 183 548 l 307 983 l 715 983 z "},"6":{"ha":741,"x_min":100,"x_max":688,"o":"m 354 42 q 464 64 415 42 q 549 124 514 85 q 604 214 585 162 q 624 327 624 266 q 610 414 624 375 q 571 480 597 453 q 510 522 546 507 q 429 537 474 537 q 319 513 369 537 q 235 450 270 490 q 181 361 200 411 q 161 259 161 311 q 174 172 161 212 q 211 104 187 133 q 272 59 236 75 q 354 42 308 42 m 321 599 q 280 549 299 573 q 245 502 261 524 q 340 564 287 542 q 453 587 394 587 q 549 569 506 587 q 623 518 592 551 q 671 438 654 485 q 688 335 688 392 q 662 196 688 260 q 591 86 636 133 q 483 15 545 40 q 349 -11 421 -11 q 245 8 291 -11 q 167 62 199 26 q 117 148 135 97 q 100 262 100 199 q 109 342 100 303 q 137 424 118 382 q 185 510 156 465 q 254 605 214 554 l 544 967 q 560 978 550 974 q 581 983 569 983 l 637 983 l 321 599 z "},"7":{"ha":806,"x_min":156,"x_max":778,"o":"m 778 983 l 775 953 q 770 933 774 942 q 763 919 766 925 l 240 24 q 224 7 234 14 q 199 0 214 0 l 156 0 l 680 891 q 692 909 686 901 q 705 924 698 917 l 187 924 q 175 929 179 924 q 171 942 170 934 l 176 983 l 778 983 z "},"8":{"ha":806,"x_min":86,"x_max":707,"o":"m 356 40 q 460 58 413 40 q 541 110 507 76 q 595 190 576 143 q 615 295 615 237 q 596 386 615 350 q 547 445 577 423 q 481 476 517 467 q 410 485 445 485 q 354 481 383 485 q 295 464 324 476 q 241 433 267 452 q 195 385 215 414 q 164 319 176 357 q 152 231 152 281 q 166 153 152 188 q 207 93 181 118 q 272 54 234 68 q 356 40 309 40 m 241 713 q 251 647 241 678 q 283 591 261 615 q 338 551 304 566 q 417 537 371 537 q 515 556 473 537 q 586 607 558 575 q 629 682 615 640 q 644 769 644 724 q 632 838 644 806 q 599 893 621 869 q 543 930 576 917 q 467 944 510 944 q 373 926 415 944 q 301 877 331 908 q 257 804 272 846 q 241 713 241 762 m 510 513 q 580 484 549 503 q 633 439 611 466 q 668 376 656 413 q 681 295 681 340 q 656 167 681 224 q 586 71 631 110 q 481 10 542 31 q 350 -11 421 -11 q 241 6 290 -11 q 158 53 192 22 q 105 128 124 84 q 86 226 86 172 q 103 337 86 288 q 152 421 121 385 q 225 479 183 456 q 319 513 268 502 q 214 589 249 536 q 178 713 178 642 q 199 822 178 771 q 260 911 221 874 q 353 972 299 949 q 473 994 408 994 q 572 976 528 994 q 645 929 615 959 q 691 859 676 899 q 707 772 707 818 q 694 683 707 725 q 655 608 681 642 q 593 550 630 574 q 510 513 557 526 z "},"9":{"ha":806,"x_min":146,"x_max":713,"o":"m 395 469 q 501 492 453 469 q 582 551 549 515 q 634 635 615 588 q 652 731 652 683 q 639 816 652 777 q 601 882 626 854 q 542 925 576 909 q 467 940 508 940 q 365 920 412 940 q 284 865 319 901 q 231 778 250 828 q 211 667 211 728 q 224 584 211 621 q 261 522 237 548 q 319 483 285 497 q 395 469 353 469 m 506 406 q 548 461 528 435 q 583 510 567 486 q 485 443 541 467 q 371 419 430 419 q 280 436 321 419 q 208 485 238 453 q 162 561 178 517 q 146 660 146 606 q 172 793 146 732 q 242 898 197 853 q 346 968 286 943 q 474 994 406 994 q 573 974 528 994 q 648 920 617 955 q 696 837 679 885 q 713 729 713 788 q 703 642 713 682 q 675 563 694 601 q 628 483 656 524 q 564 394 600 442 l 281 15 q 266 4 276 8 q 247 0 257 0 l 188 0 l 506 406 z "},"\u0000":{"ha":0,"x_min":0,"x_max":0,"o":""}," ":{"ha":350,"x_min":0,"x_max":0,"o":""},"A":{"ha":845,"x_min":-33,"x_max":776,"o":"m 617 356 l 495 856 q 490 884 492 869 q 484 916 487 899 q 470 884 477 899 q 458 856 464 869 l 214 356 l 617 356 m 776 0 l 722 0 q 707 5 713 0 q 699 18 701 10 l 629 306 l 189 306 l 48 18 q 37 5 44 10 q 20 0 29 0 l -33 0 l 458 983 l 526 983 l 776 0 z "},"Ą":{"ha":845,"x_min":-33,"x_max":822,"o":"m 617 356 l 495 856 q 490 884 492 869 q 484 916 487 899 q 470 884 477 899 q 458 856 464 869 l 214 356 l 617 356 m 822 -198 q 773 -225 801 -215 q 715 -235 744 -235 q 642 -212 669 -235 q 616 -149 616 -189 q 625 -103 616 -125 q 649 -63 634 -82 q 682 -28 663 -44 q 721 0 701 -12 q 699 18 704 1 l 629 306 l 189 306 l 48 18 q 37 5 44 10 q 20 0 29 0 l -33 0 l 458 983 l 526 983 l 776 0 l 769 0 q 736 -21 754 -8 q 704 -50 719 -33 q 679 -88 689 -67 q 669 -132 669 -108 q 686 -176 669 -160 q 732 -192 704 -192 q 762 -189 749 -192 q 783 -181 774 -185 q 797 -173 792 -176 q 806 -169 802 -169 q 814 -174 812 -169 l 822 -198 z "},"Æ":{"ha":1198,"x_min":-36,"x_max":1198,"o":"m 605 356 l 605 926 q 591 894 598 910 q 574 865 583 879 l 258 356 l 605 356 m 669 926 l 669 525 l 1063 525 l 1055 469 l 669 469 l 669 57 l 1085 57 l 1077 0 l 605 0 l 605 306 l 226 306 l 47 18 q 35 5 42 10 q 17 0 27 0 l -36 0 l 580 983 l 1198 983 l 1191 926 l 669 926 z "},"B":{"ha":817,"x_min":86,"x_max":743,"o":"m 387 55 q 585 118 516 55 q 653 296 653 181 q 639 368 653 336 q 598 424 625 401 q 530 459 570 447 q 439 472 490 472 l 213 472 l 162 55 l 387 55 m 269 928 l 219 522 l 413 522 q 530 542 481 522 q 611 595 579 562 q 658 670 643 628 q 674 758 674 713 q 622 884 674 840 q 463 928 570 928 l 269 928 m 469 983 q 591 968 540 983 q 676 926 642 953 q 727 859 710 899 q 743 769 743 819 q 728 680 743 722 q 685 602 713 637 q 616 541 657 567 q 525 503 576 515 q 672 434 622 487 q 722 298 722 382 q 699 175 722 230 q 632 81 676 119 q 524 21 588 42 q 381 0 461 0 l 86 0 l 207 983 l 469 983 z "},"C":{"ha":874,"x_min":82,"x_max":872,"o":"m 463 48 q 554 57 514 48 q 626 78 594 65 q 680 106 657 91 q 718 134 702 121 q 744 155 734 147 q 759 164 753 164 q 768 160 765 164 l 793 131 q 646 27 729 66 q 452 -11 563 -11 q 299 19 367 -11 q 182 106 231 50 q 108 241 134 163 q 82 415 82 319 q 121 650 82 544 q 229 833 160 757 q 390 952 297 910 q 590 994 483 994 q 681 986 641 994 q 755 963 722 978 q 817 924 789 947 q 872 872 845 901 l 849 844 q 831 836 842 836 q 817 843 825 836 q 797 861 809 851 q 767 885 785 872 q 724 909 749 898 q 665 927 699 919 q 586 934 631 934 q 415 898 494 934 q 278 795 336 862 q 186 633 219 728 q 153 420 153 538 q 176 265 153 334 q 240 148 199 196 q 338 74 281 99 q 463 48 394 48 z "},"Ç":{"ha":874,"x_min":82,"x_max":872,"o":"m 428 -10 q 285 26 349 -6 q 176 114 221 58 q 106 247 131 170 q 82 415 82 323 q 121 650 82 544 q 229 833 160 757 q 390 952 297 910 q 590 994 483 994 q 681 986 641 994 q 755 963 722 978 q 817 924 789 947 q 872 872 845 901 l 849 844 q 831 836 842 836 q 817 843 825 836 q 797 861 809 851 q 767 885 785 872 q 724 909 749 898 q 665 927 699 919 q 586 934 631 934 q 415 898 494 934 q 278 795 336 862 q 186 633 219 728 q 153 420 153 538 q 176 265 153 334 q 240 148 199 196 q 338 74 281 99 q 463 48 394 48 q 554 57 514 48 q 626 78 594 65 q 680 106 657 91 q 718 134 702 121 q 744 155 734 147 q 759 164 753 164 q 768 160 765 164 l 793 131 q 652 30 731 67 q 468 -11 574 -8 l 447 -65 q 525 -94 499 -76 q 552 -149 552 -113 q 542 -191 552 -172 q 515 -222 532 -209 q 473 -241 497 -235 q 421 -248 449 -248 q 372 -240 395 -248 q 332 -219 348 -232 l 342 -199 q 353 -192 346 -192 q 362 -195 357 -192 q 375 -203 367 -199 q 394 -211 383 -208 q 424 -215 406 -215 q 479 -198 460 -215 q 499 -152 499 -181 q 491 -126 499 -137 q 469 -109 483 -116 q 436 -98 456 -102 q 394 -91 417 -94 l 428 -10 z "},"D":{"ha":981,"x_min":86,"x_max":915,"o":"m 915 566 q 898 403 915 479 q 850 265 881 328 q 773 153 818 202 q 673 69 728 103 q 553 18 617 35 q 417 0 488 0 l 86 0 l 207 983 l 538 983 q 694 953 624 983 q 814 869 765 924 q 889 738 863 815 q 915 566 915 661 m 844 565 q 822 716 844 649 q 759 830 800 783 q 661 901 719 876 q 531 926 603 926 l 269 926 l 162 56 l 423 56 q 592 91 515 56 q 725 190 669 125 q 813 350 781 256 q 844 565 844 444 z "},"Ð":{"ha":986,"x_min":14,"x_max":922,"o":"m 431 56 q 599 91 522 56 q 732 190 676 125 q 819 350 788 256 q 850 565 850 444 q 828 716 850 649 q 766 830 806 783 q 667 901 725 876 q 538 926 609 926 l 276 926 l 226 519 l 483 519 l 478 476 l 221 476 l 169 56 l 431 56 m 544 983 q 701 953 631 983 q 820 869 771 924 q 895 738 869 815 q 922 566 922 661 q 884 331 922 436 q 780 153 847 226 q 622 40 713 79 q 424 0 531 0 l 93 0 l 151 476 l 14 476 l 19 519 l 157 519 l 214 983 l 544 983 z "},"E":{"ha":749,"x_min":86,"x_max":750,"o":"m 269 926 l 220 526 l 614 526 l 606 470 l 213 470 l 163 57 l 638 57 l 630 0 l 86 0 l 207 983 l 750 983 l 742 926 l 269 926 z "},"Ę":{"ha":749,"x_min":86,"x_max":750,"o":"m 269 926 l 220 526 l 614 526 l 606 470 l 213 470 l 163 57 l 638 57 l 630 0 l 569 0 q 537 -21 555 -8 q 505 -50 519 -33 q 480 -88 490 -67 q 469 -132 469 -108 q 487 -176 469 -160 q 533 -192 505 -192 q 563 -189 550 -192 q 584 -181 575 -185 q 598 -173 592 -176 q 606 -169 603 -169 q 615 -174 613 -169 l 622 -198 q 574 -225 602 -215 q 515 -235 545 -235 q 443 -212 469 -235 q 417 -149 417 -189 q 426 -103 417 -125 q 449 -63 435 -82 q 483 -28 464 -44 q 522 0 501 -12 l 86 0 l 207 983 l 750 983 l 742 926 l 269 926 z "},"F":{"ha":735,"x_min":86,"x_max":750,"o":"m 269 926 l 218 510 l 628 510 l 620 452 l 211 452 l 156 0 l 86 0 l 207 983 l 750 983 l 742 926 l 269 926 z "},"G":{"ha":949,"x_min":83,"x_max":900,"o":"m 822 97 q 746 51 785 71 q 664 17 708 31 q 572 -4 621 3 q 467 -11 524 -11 q 307 20 378 -11 q 186 107 236 51 q 109 242 136 163 q 83 417 83 321 q 121 653 83 547 q 228 835 159 760 q 392 952 297 911 q 601 994 487 994 q 698 986 654 994 q 778 963 742 978 q 844 925 814 947 q 900 874 874 903 l 878 847 q 849 840 867 830 q 823 859 840 844 q 778 891 807 874 q 705 921 749 908 q 595 934 660 934 q 416 898 497 934 q 276 795 335 862 q 185 633 217 728 q 153 419 153 538 q 176 264 153 333 q 241 146 199 194 q 343 71 283 97 q 477 45 403 45 q 563 50 524 45 q 635 66 601 56 q 701 91 669 76 q 763 125 732 106 l 796 392 l 624 392 q 612 396 617 392 q 609 407 608 401 l 613 445 l 865 445 l 822 97 z "},"H":{"ha":974,"x_min":86,"x_max":907,"o":"m 907 983 l 786 0 l 717 0 l 774 472 l 213 472 l 156 0 l 86 0 l 207 983 l 276 983 l 220 524 l 781 524 l 838 983 l 907 983 z "},"Ħ":{"ha":988,"x_min":76,"x_max":1007,"o":"m 816 722 l 255 722 l 231 524 l 792 524 l 816 722 m 1002 722 l 885 722 l 797 0 l 727 0 l 785 472 l 224 472 l 166 0 l 97 0 l 185 722 l 76 722 l 81 765 l 191 765 l 217 983 l 287 983 l 260 765 l 822 765 l 848 983 l 917 983 l 891 765 l 1007 765 l 1002 722 z "},"I":{"ha":344,"x_min":86,"x_max":276,"o":"m 156 0 l 86 0 l 206 983 l 276 983 l 156 0 z "},"Į":{"ha":344,"x_min":-6,"x_max":276,"o":"m 147 0 q 114 -21 132 -8 q 82 -50 97 -33 q 57 -88 67 -67 q 47 -132 47 -108 q 64 -176 47 -160 q 110 -192 82 -192 q 140 -189 127 -192 q 161 -181 152 -185 q 175 -173 169 -176 q 183 -169 180 -169 q 192 -174 190 -169 l 199 -198 q 151 -225 179 -215 q 92 -235 122 -235 q 20 -212 47 -235 q -6 -149 -6 -189 q 3 -103 -6 -125 q 26 -63 12 -82 q 60 -28 41 -44 q 99 0 78 -12 l 87 0 l 207 983 l 276 983 l 156 0 l 147 0 z "},"J":{"ha":542,"x_min":-26,"x_max":484,"o":"m 401 306 q 366 165 391 225 q 302 66 340 106 q 214 8 264 27 q 103 -11 163 -11 q 35 -6 65 -11 q -26 9 4 -1 l -21 47 q -16 57 -19 52 q -2 62 -12 62 q 13 59 5 62 q 34 54 22 57 q 63 49 46 51 q 104 47 80 47 q 183 59 145 47 q 250 102 220 72 q 302 182 281 133 q 332 305 323 232 l 415 983 l 484 983 l 401 306 z "},"K":{"ha":819,"x_min":86,"x_max":852,"o":"m 219 528 l 273 528 q 294 529 285 528 q 311 533 303 530 q 326 541 319 536 q 340 554 333 546 l 751 963 q 773 979 763 975 q 796 983 783 983 l 852 983 l 406 540 q 383 519 394 527 q 361 507 373 511 q 401 472 385 499 l 756 0 l 701 0 q 676 5 683 0 q 663 18 669 9 l 337 444 q 326 458 331 452 q 314 467 321 463 q 297 473 306 471 q 272 474 287 474 l 213 474 l 155 0 l 86 0 l 206 984 l 276 984 l 219 528 z "},"L":{"ha":648,"x_min":86,"x_max":590,"o":"m 590 59 l 582 0 l 86 0 l 207 983 l 276 983 l 162 59 l 590 59 z "},"Ł":{"ha":665,"x_min":18,"x_max":607,"o":"m 607 59 l 599 0 l 103 0 l 153 408 l 18 338 l 24 383 q 28 395 24 390 q 38 403 31 399 l 161 467 l 224 983 l 293 983 l 234 501 l 515 651 l 510 608 q 506 596 508 601 q 495 588 503 591 l 226 443 l 179 59 l 607 59 z "},"Ľ":{"ha":648,"x_min":86,"x_max":590,"o":"m 551 1012 q 565 997 565 1012 q 561 979 565 990 q 551 947 558 967 q 531 896 544 926 q 500 819 519 865 q 489 806 495 810 q 473 803 483 803 l 451 803 l 510 1012 l 551 1012 m 590 59 l 582 0 l 86 0 l 207 983 l 276 983 l 162 59 l 590 59 z "},"M":{"ha":1171,"x_min":86,"x_max":1103,"o":"m 1103 983 l 983 0 l 922 0 l 1026 840 q 1032 876 1028 857 l 594 189 q 566 172 583 172 l 555 172 q 531 189 536 172 l 251 878 q 249 840 251 858 l 147 0 l 86 0 l 207 983 l 254 983 q 269 980 264 983 q 279 969 274 978 l 560 278 q 565 262 563 270 q 569 246 567 254 q 585 278 576 261 l 1028 969 q 1041 980 1035 978 q 1056 983 1046 983 l 1103 983 z "},"N":{"ha":974,"x_min":86,"x_max":907,"o":"m 907 983 l 786 0 l 754 0 q 740 4 745 0 q 728 15 734 8 l 252 871 q 251 855 251 863 q 249 840 251 847 l 147 0 l 86 0 l 207 983 l 241 983 q 255 980 251 983 q 265 969 259 978 l 741 114 q 742 132 742 124 q 744 149 742 141 l 847 983 l 907 983 z "},"Ŋ":{"ha":974,"x_min":86,"x_max":907,"o":"m 793 53 l 788 15 l 788 15 l 783 -25 q 761 -119 776 -77 q 719 -189 745 -160 q 657 -234 693 -218 q 576 -249 622 -249 q 527 -244 549 -249 q 483 -228 506 -239 l 492 -201 q 501 -190 496 -192 q 510 -187 506 -187 q 532 -194 517 -187 q 576 -200 547 -200 q 674 -158 637 -200 q 722 -31 711 -116 l 728 16 l 251 868 q 250 849 251 858 q 249 831 250 840 l 146 0 l 86 0 l 206 983 l 240 983 q 255 980 250 983 q 265 969 260 977 l 742 116 q 743 135 742 126 q 745 153 744 145 l 847 983 l 907 983 l 797 81 l 793 53 z "},"O":{"ha":1023,"x_min":83,"x_max":959,"o":"m 959 567 q 921 331 959 437 q 816 149 883 224 q 657 31 749 73 q 458 -10 565 -10 q 303 20 372 -10 q 184 108 233 51 q 109 242 135 164 q 83 416 83 321 q 121 652 83 545 q 226 834 159 758 q 384 952 293 910 q 582 994 476 994 q 739 963 669 994 q 857 876 808 932 q 933 741 906 819 q 959 567 959 662 m 888 565 q 866 719 888 651 q 803 836 844 788 q 704 910 762 884 q 574 936 646 936 q 407 900 484 936 q 273 797 330 864 q 185 633 217 729 q 153 418 153 538 q 175 264 153 333 q 238 148 197 196 q 337 74 279 100 q 466 48 394 48 q 635 84 558 48 q 768 187 712 119 q 856 350 824 254 q 888 565 888 445 z "},"Ø":{"ha":1023,"x_min":47,"x_max":988,"o":"m 260 124 q 352 67 300 87 q 466 48 403 48 q 635 84 558 48 q 768 187 712 119 q 856 350 824 254 q 888 565 888 445 q 869 705 888 642 q 818 816 851 768 l 260 124 m 790 850 q 695 914 749 892 q 574 936 641 936 q 407 900 484 936 q 273 797 330 864 q 185 633 217 729 q 153 418 153 538 q 173 270 153 336 q 231 156 194 204 l 790 850 m 862 870 q 934 737 909 814 q 959 567 959 660 q 921 331 959 437 q 816 149 883 224 q 657 31 749 73 q 458 -10 565 -10 q 326 11 386 -10 q 219 73 266 33 l 119 -51 q 98 -68 110 -63 q 75 -73 86 -73 l 47 -73 l 188 103 q 110 239 138 159 q 83 416 83 318 q 121 652 83 545 q 226 834 159 758 q 384 952 293 910 q 582 994 476 994 q 721 970 658 994 q 831 902 783 946 l 916 1007 q 932 1023 926 1018 q 952 1027 939 1027 l 988 1027 l 862 870 z "},"Œ":{"ha":1415,"x_min":84,"x_max":1415,"o":"m 432 47 q 586 84 515 47 q 708 189 657 121 q 789 354 760 257 q 818 572 818 451 q 799 723 818 656 q 744 838 780 790 q 657 911 708 885 q 541 938 606 938 q 388 900 458 938 q 265 794 317 863 q 184 628 213 726 q 154 411 154 531 q 174 260 154 328 q 229 145 193 193 q 317 73 265 98 q 432 47 368 47 m 938 926 l 889 525 l 1279 525 l 1273 469 l 883 469 l 832 57 l 1302 57 l 1294 0 l 762 0 l 789 221 q 720 124 759 167 q 633 52 681 81 q 532 7 586 22 q 417 -9 478 -9 q 279 21 340 -9 q 174 106 217 51 q 107 238 131 161 q 84 409 84 315 q 119 648 84 540 q 216 832 154 756 q 360 951 277 909 q 540 994 443 994 q 650 975 600 994 q 740 923 701 957 q 808 841 780 890 q 852 733 836 793 l 883 983 l 1415 983 l 1409 926 l 938 926 z "},"P":{"ha":749,"x_min":86,"x_max":731,"o":"m 377 452 q 495 473 442 452 q 584 531 547 494 q 642 618 622 567 q 662 728 662 669 q 605 875 662 823 q 435 928 549 928 l 269 928 l 210 452 l 377 452 m 442 983 q 659 918 587 983 q 731 735 731 853 q 706 598 731 660 q 633 491 680 536 q 519 422 585 447 q 370 397 452 397 l 203 397 l 155 0 l 86 0 l 206 983 l 442 983 z "},"Þ":{"ha":748,"x_min":86,"x_max":708,"o":"m 353 254 q 471 275 419 254 q 561 333 524 296 q 618 420 598 369 q 638 531 638 471 q 582 677 638 626 q 411 729 526 729 l 244 729 l 186 254 l 353 254 m 419 784 q 635 719 563 784 q 708 538 708 655 q 682 400 708 463 q 609 293 656 338 q 494 224 561 249 q 347 199 428 199 l 179 199 l 155 0 l 86 0 l 206 983 l 276 983 l 251 784 l 419 784 z "},"Q":{"ha":1023,"x_min":83,"x_max":959,"o":"m 153 418 q 175 264 153 333 q 238 148 197 196 q 337 74 279 100 q 466 48 394 48 q 635 84 558 48 q 768 187 712 119 q 856 350 824 254 q 888 565 888 445 q 866 719 888 651 q 803 836 844 788 q 704 910 762 884 q 574 936 646 936 q 407 900 484 936 q 273 797 330 864 q 185 633 217 729 q 153 418 153 538 m 642 25 q 554 -1 600 8 q 458 -10 508 -10 q 303 20 372 -10 q 184 108 233 51 q 109 242 135 164 q 83 416 83 321 q 121 652 83 545 q 226 834 159 758 q 384 952 293 910 q 582 994 476 994 q 739 963 669 994 q 857 876 808 932 q 933 741 906 819 q 959 567 959 662 q 941 399 959 478 q 889 256 922 321 q 807 139 855 190 q 701 53 760 88 l 903 -217 l 849 -217 q 808 -200 822 -217 l 642 25 z "},"R":{"ha":783,"x_min":86,"x_max":723,"o":"m 371 497 q 489 515 437 497 q 578 566 542 533 q 635 647 615 599 q 654 751 654 694 q 598 884 654 840 q 433 928 542 928 l 269 928 l 216 497 l 371 497 m 440 983 q 652 926 582 983 q 723 762 723 869 q 702 645 723 698 q 643 552 681 592 q 551 487 605 513 q 432 453 497 462 q 456 426 445 445 l 713 0 l 653 0 q 635 4 642 0 q 622 17 628 8 l 385 417 q 364 439 376 433 q 327 445 353 445 l 210 445 l 155 0 l 86 0 l 206 983 l 440 983 z "},"S":{"ha":692,"x_min":23,"x_max":651,"o":"m 632 864 q 614 852 624 852 q 594 865 606 852 q 561 894 582 878 q 509 923 541 910 q 428 936 476 936 q 334 919 375 936 q 264 873 292 902 q 219 804 235 843 q 204 720 204 765 q 222 649 204 678 q 267 600 239 620 q 331 564 295 579 q 405 535 367 549 q 478 504 442 521 q 542 463 514 487 q 588 403 570 438 q 605 318 605 369 q 582 191 605 251 q 516 86 559 131 q 413 15 474 42 q 276 -11 351 -11 q 126 23 187 -11 q 23 117 65 58 l 46 147 q 65 157 56 157 q 80 149 72 157 q 99 128 88 140 q 126 102 110 116 q 164 75 142 88 q 216 55 186 63 q 284 47 245 47 q 390 66 342 47 q 470 121 437 86 q 521 202 503 156 q 539 303 539 249 q 522 375 539 347 q 476 424 504 404 q 412 458 448 444 q 339 486 376 472 q 265 517 301 500 q 201 558 229 533 q 156 618 173 583 q 139 706 139 654 q 159 815 139 763 q 217 907 179 867 q 310 970 255 947 q 435 994 365 994 q 559 968 506 994 q 651 892 613 942 l 632 864 z "},"Ş":{"ha":692,"x_min":23,"x_max":651,"o":"m 632 864 q 614 852 624 852 q 594 865 606 852 q 561 894 582 878 q 509 923 541 910 q 428 936 476 936 q 334 919 375 936 q 264 873 292 902 q 219 804 235 843 q 204 720 204 765 q 222 649 204 678 q 267 600 239 620 q 331 564 295 579 q 405 535 367 549 q 478 504 442 521 q 542 463 514 487 q 588 403 570 438 q 605 318 605 369 q 584 196 605 253 q 523 94 563 138 q 426 22 483 49 q 299 -10 369 -6 l 277 -65 q 356 -94 329 -76 q 383 -149 383 -113 q 373 -191 383 -172 q 345 -222 363 -209 q 303 -241 328 -235 q 251 -248 279 -248 q 202 -240 226 -248 q 163 -219 178 -232 l 172 -199 q 184 -192 176 -192 q 192 -195 188 -192 q 205 -203 197 -199 q 225 -211 213 -208 q 255 -215 237 -215 q 310 -198 290 -215 q 329 -152 329 -181 q 322 -126 329 -137 q 300 -109 314 -116 q 267 -98 286 -102 q 225 -91 248 -94 l 259 -10 q 119 27 176 -7 q 23 117 63 60 l 46 147 q 65 157 56 157 q 80 149 72 157 q 99 128 88 140 q 126 102 110 116 q 164 75 142 88 q 216 55 186 63 q 284 47 245 47 q 390 66 342 47 q 470 121 437 86 q 521 202 503 156 q 539 303 539 249 q 522 375 539 347 q 476 424 504 404 q 412 458 448 444 q 339 486 376 472 q 265 517 301 500 q 201 558 229 533 q 156 618 173 583 q 139 706 139 654 q 159 815 139 763 q 217 907 179 867 q 310 970 255 947 q 435 994 365 994 q 559 968 506 994 q 651 892 613 942 l 632 864 z "},"T":{"ha":740,"x_min":79,"x_max":790,"o":"m 783 924 l 467 924 l 353 0 l 284 0 l 398 924 l 79 924 l 86 983 l 790 983 l 783 924 z "},"Ŧ":{"ha":769,"x_min":94,"x_max":804,"o":"m 481 924 l 440 590 l 657 590 l 652 547 l 435 547 l 367 0 l 299 0 l 366 547 l 146 547 l 151 590 l 372 590 l 413 924 l 94 924 l 101 983 l 804 983 l 797 924 l 481 924 z "},"U":{"ha":940,"x_min":111,"x_max":883,"o":"m 425 49 q 543 74 490 49 q 638 142 597 99 q 705 246 678 186 q 740 374 731 306 l 815 983 l 883 983 l 809 374 q 766 223 799 293 q 682 100 733 152 q 564 18 631 48 q 417 -12 497 -12 q 278 18 338 -12 q 180 100 218 48 q 126 223 142 152 q 121 374 111 293 l 195 983 l 264 983 l 190 375 q 193 247 181 306 q 234 143 204 187 q 312 74 264 99 q 425 49 360 49 z "},"Ų":{"ha":938,"x_min":111,"x_max":883,"o":"m 883 983 l 809 374 q 773 239 800 302 q 705 125 747 175 q 608 41 663 75 q 487 -6 553 7 l 488 -6 q 455 -26 473 -14 q 423 -56 438 -39 q 398 -93 408 -73 q 388 -137 388 -114 q 405 -182 388 -166 q 451 -198 423 -198 q 481 -194 468 -198 q 502 -186 493 -190 q 516 -178 510 -182 q 524 -174 521 -174 q 533 -180 531 -174 l 540 -203 q 492 -230 520 -220 q 433 -240 463 -240 q 361 -217 388 -240 q 335 -154 335 -194 q 343 -112 335 -132 q 364 -74 351 -92 q 394 -40 377 -56 q 431 -12 412 -24 l 417 -12 q 278 18 338 -12 q 180 100 218 48 q 126 223 142 152 q 121 374 111 293 l 195 983 l 264 983 l 190 375 q 193 247 181 306 q 234 143 204 187 q 312 74 264 99 q 425 49 360 49 q 543 74 490 49 q 638 142 597 99 q 705 246 678 186 q 740 374 731 306 l 815 983 l 883 983 z "},"V":{"ha":842,"x_min":86,"x_max":894,"o":"m 894 983 l 401 0 l 339 0 l 86 983 l 141 983 q 156 977 151 983 q 163 965 162 972 l 367 144 q 374 113 371 130 q 380 78 378 97 q 393 113 386 97 q 407 144 399 130 l 812 965 q 823 977 815 972 q 840 983 830 983 l 894 983 z "},"W":{"ha":1303,"x_min":99,"x_max":1340,"o":"m 1340 983 l 935 0 l 874 0 l 713 856 q 708 893 710 871 q 702 873 705 883 q 695 856 699 864 l 324 0 l 263 0 l 99 983 l 152 983 q 174 965 173 983 l 305 148 q 307 120 306 135 q 310 91 308 106 q 319 121 315 106 q 330 148 324 135 l 685 965 q 695 977 688 972 q 712 983 702 983 l 727 983 q 750 965 745 983 l 903 148 q 907 121 906 135 q 910 92 909 107 q 919 121 915 107 q 928 148 924 135 l 1259 965 q 1269 977 1261 972 q 1288 983 1278 983 l 1340 983 z "},"X":{"ha":810,"x_min":-34,"x_max":823,"o":"m 467 528 l 742 0 l 681 0 q 667 6 671 0 q 659 17 663 11 l 419 489 q 409 472 415 479 l 62 17 q 34 0 50 0 l -34 0 l 372 525 l 128 983 l 190 983 q 204 979 200 983 q 213 968 208 976 l 422 560 q 432 578 426 570 l 732 970 q 754 983 740 983 l 823 983 l 467 528 z "},"Y":{"ha":766,"x_min":83,"x_max":822,"o":"m 417 405 l 366 0 l 297 0 l 348 406 l 83 983 l 144 983 q 168 965 163 983 l 376 501 q 383 478 380 490 q 389 455 387 467 q 401 478 394 467 q 415 501 407 490 l 737 965 q 748 978 742 973 q 764 983 754 983 l 822 983 l 417 405 z "},"Z":{"ha":762,"x_min":-9,"x_max":783,"o":"m 780 960 q 776 949 778 953 q 769 938 774 944 l 92 57 l 665 57 l 657 0 l -9 0 l -6 23 q -2 33 -4 28 q 4 43 1 38 l 682 926 l 122 926 l 129 983 l 783 983 l 780 960 z "},"a":{"ha":692,"x_min":47,"x_max":618,"o":"m 550 637 q 507 648 529 644 q 462 651 485 651 q 329 617 392 651 q 218 526 266 583 q 142 395 170 469 q 113 242 113 322 q 145 98 113 149 q 243 46 176 46 q 321 68 283 46 q 394 131 359 90 q 460 227 429 171 q 515 353 490 284 l 550 637 m 505 240 q 447 139 478 185 q 379 60 415 92 q 303 9 343 27 q 222 -9 264 -9 q 145 8 178 -9 q 91 56 113 25 q 58 132 69 88 q 47 232 47 176 q 62 350 47 292 q 106 460 78 408 q 172 556 133 513 q 258 632 211 600 q 359 682 306 664 q 469 700 413 700 q 547 693 510 700 q 618 667 583 685 l 537 0 l 505 0 q 486 8 491 0 q 481 25 481 15 l 505 240 z "},"ą":{"ha":692,"x_min":47,"x_max":618,"o":"m 550 637 q 507 648 529 644 q 462 651 485 651 q 329 617 392 651 q 218 526 266 583 q 142 395 170 469 q 113 242 113 322 q 145 98 113 149 q 243 46 176 46 q 321 68 283 46 q 394 131 359 90 q 460 227 429 171 q 515 353 490 284 l 550 637 m 531 0 q 498 -21 516 -8 q 466 -50 481 -33 q 441 -88 451 -67 q 431 -132 431 -108 q 448 -176 431 -160 q 494 -192 466 -192 q 524 -189 511 -192 q 545 -181 536 -185 q 559 -173 553 -176 q 567 -169 564 -169 q 576 -174 574 -169 l 583 -198 q 535 -225 563 -215 q 476 -235 506 -235 q 404 -212 431 -235 q 378 -149 378 -189 q 388 -102 378 -124 q 413 -60 397 -80 q 449 -25 428 -41 q 490 4 469 -8 q 483 13 485 8 q 481 25 481 19 l 505 240 q 447 139 478 185 q 379 60 415 92 q 303 9 343 27 q 222 -9 264 -9 q 145 8 178 -9 q 91 56 113 25 q 58 132 69 88 q 47 232 47 176 q 62 350 47 292 q 106 460 78 408 q 172 556 133 513 q 258 632 211 600 q 359 682 306 664 q 469 700 413 700 q 547 693 510 700 q 618 667 583 685 l 537 0 l 531 0 z "},"æ":{"ha":1024,"x_min":25,"x_max":953,"o":"m 452 349 q 287 331 356 345 q 174 293 218 317 q 109 235 130 269 q 88 158 88 201 q 97 103 88 126 q 122 65 106 80 q 162 43 139 50 q 212 35 185 35 q 293 51 254 35 q 362 96 331 67 q 414 169 393 126 q 442 267 435 212 l 452 349 m 757 653 q 667 634 708 653 q 596 581 627 615 q 545 498 565 547 q 515 389 524 449 q 690 406 620 392 q 803 440 760 419 q 864 488 846 461 q 882 547 882 515 q 848 625 882 597 q 757 653 814 653 m 953 128 q 888 67 919 93 q 822 24 856 41 q 753 -1 789 7 q 677 -9 717 -9 q 542 40 597 -9 q 467 181 488 89 q 416 91 448 128 q 348 32 385 54 q 273 -1 312 9 q 201 -11 235 -11 q 130 -2 162 -11 q 74 27 97 8 q 38 77 51 47 q 25 149 25 107 q 49 244 25 201 q 126 319 74 288 q 260 369 178 351 q 457 391 342 388 l 465 450 q 445 598 476 547 q 341 649 415 649 q 261 635 295 649 q 203 605 228 622 q 163 575 179 589 q 138 561 147 561 q 118 574 126 561 l 110 593 q 223 675 166 647 q 348 703 279 703 q 467 661 427 703 q 515 546 508 619 q 618 661 555 619 q 764 702 681 702 q 834 691 802 702 q 890 659 867 680 q 927 611 914 639 q 940 549 940 583 q 919 473 940 509 q 847 410 897 438 q 715 366 797 383 q 510 349 632 349 q 508 292 508 322 q 557 108 508 172 q 689 44 605 44 q 755 52 726 44 q 808 72 785 60 q 850 99 832 85 q 881 125 867 113 q 905 145 895 138 q 923 153 915 153 q 938 147 931 153 l 953 128 z "},"b":{"ha":716,"x_min":56,"x_max":649,"o":"m 137 143 q 171 96 152 115 q 212 65 190 77 q 257 48 233 53 q 304 43 280 43 q 386 61 348 43 q 455 109 424 78 q 509 180 485 140 q 550 266 533 221 q 575 359 566 311 q 583 451 583 406 q 548 596 583 544 q 444 648 513 648 q 365 626 405 648 q 288 563 325 603 q 219 466 251 523 q 161 340 186 409 l 137 143 m 176 458 q 236 557 203 513 q 306 634 269 602 q 384 684 343 666 q 466 701 424 701 q 545 684 511 701 q 602 635 579 667 q 637 558 625 603 q 649 458 649 513 q 638 349 649 404 q 606 242 626 294 q 556 144 585 190 q 489 65 526 99 q 407 11 451 31 q 312 -9 362 -9 q 205 18 253 -9 q 126 97 156 44 l 113 22 q 106 6 110 11 q 89 0 101 0 l 56 0 l 178 1010 l 243 1010 l 176 458 z "},"c":{"ha":633,"x_min":53,"x_max":585,"o":"m 556 126 q 486 59 519 85 q 422 17 453 33 q 358 -3 390 2 q 288 -9 325 -9 q 184 11 228 -9 q 111 69 140 32 q 67 156 82 106 q 53 267 53 207 q 64 375 53 322 q 97 478 76 429 q 149 567 119 526 q 218 638 180 608 q 301 685 256 668 q 397 702 346 702 q 458 695 431 702 q 508 677 485 689 q 550 647 531 665 q 585 608 569 630 l 565 585 q 551 578 559 578 q 534 589 544 578 q 507 613 524 600 q 463 637 490 626 q 394 648 435 648 q 286 617 336 648 q 198 533 235 585 q 140 411 161 480 q 119 267 119 342 q 130 178 119 219 q 163 107 140 137 q 219 60 185 77 q 300 44 253 44 q 366 52 337 44 q 418 72 395 60 q 457 98 440 83 q 488 124 474 112 q 510 143 501 135 q 527 151 519 151 q 542 144 535 151 l 556 126 l 556 126 z "},"ç":{"ha":633,"x_min":53,"x_max":585,"o":"m 267 -8 q 173 17 213 -5 q 106 75 132 39 q 66 160 79 112 q 53 267 53 209 q 64 375 53 322 q 97 478 76 429 q 149 567 119 526 q 218 638 180 608 q 301 685 256 668 q 397 702 346 702 q 458 695 431 702 q 508 677 485 689 q 550 647 531 665 q 585 608 569 630 l 565 585 q 551 578 559 578 q 534 589 544 578 q 507 613 524 600 q 463 637 490 626 q 394 648 435 648 q 286 617 336 648 q 198 533 235 585 q 140 411 161 480 q 119 267 119 342 q 130 178 119 219 q 163 107 140 137 q 219 60 185 77 q 300 44 253 44 q 366 52 337 44 q 418 72 395 60 q 457 98 440 83 q 488 124 474 112 q 510 143 501 135 q 527 151 519 151 q 542 144 535 151 l 556 126 q 491 62 522 88 q 430 22 460 37 q 370 -1 400 6 q 306 -9 340 -8 l 284 -65 q 363 -94 336 -76 q 390 -149 390 -113 q 380 -191 390 -172 q 352 -222 369 -209 q 310 -241 335 -235 q 258 -248 286 -248 q 209 -240 233 -248 q 169 -219 185 -232 l 179 -199 q 191 -192 183 -192 q 199 -195 194 -192 q 212 -203 204 -199 q 232 -211 220 -208 q 262 -215 244 -215 q 317 -198 297 -215 q 336 -152 336 -181 q 328 -126 336 -137 q 307 -109 321 -116 q 274 -98 293 -102 q 232 -91 255 -94 l 267 -8 z "},"d":{"ha":717,"x_min":50,"x_max":683,"o":"m 562 551 q 527 597 547 578 q 487 627 508 616 q 442 644 465 639 q 394 649 418 649 q 313 632 351 649 q 244 583 275 614 q 189 513 213 553 q 149 427 165 472 q 124 334 133 382 q 115 242 115 286 q 151 97 115 149 q 254 44 186 44 q 333 67 294 44 q 410 129 373 89 q 480 226 447 169 q 537 351 512 283 l 562 551 m 683 1010 l 559 0 l 527 0 q 508 8 513 0 q 503 25 503 15 l 526 242 q 466 140 499 186 q 394 60 432 94 q 316 9 357 27 q 233 -9 275 -9 q 153 8 188 -9 q 97 58 119 26 q 62 135 74 90 q 50 236 50 180 q 61 344 50 289 q 93 451 72 399 q 143 548 113 503 q 210 628 172 594 q 292 682 247 662 q 387 701 336 701 q 491 677 443 701 q 568 603 538 652 l 619 1010 l 683 1010 z "},"ď":{"ha":717,"x_min":50,"x_max":850,"o":"m 837 1012 q 847 1008 844 1012 q 850 997 850 1004 q 847 979 850 990 q 837 947 844 967 q 817 896 830 926 q 786 819 805 865 q 775 806 781 810 q 759 803 769 803 l 742 803 l 801 1012 l 837 1012 m 562 551 q 527 597 547 578 q 487 627 508 616 q 442 644 465 639 q 394 649 418 649 q 313 632 351 649 q 244 583 275 614 q 189 513 213 553 q 149 427 165 472 q 124 334 133 382 q 115 242 115 286 q 151 97 115 149 q 254 44 186 44 q 333 67 294 44 q 410 129 373 89 q 480 226 447 169 q 537 351 512 283 l 562 551 m 683 1010 l 559 0 l 527 0 q 508 8 513 0 q 503 25 503 15 l 526 242 q 466 140 499 186 q 394 60 432 94 q 316 9 357 27 q 233 -9 275 -9 q 153 8 188 -9 q 97 58 119 26 q 62 135 74 90 q 50 236 50 180 q 61 344 50 289 q 93 451 72 399 q 143 548 113 503 q 210 628 172 594 q 292 682 247 662 q 387 701 336 701 q 491 677 443 701 q 568 603 538 652 l 619 1010 l 683 1010 z "},"đ":{"ha":717,"x_min":50,"x_max":760,"o":"m 561 545 q 527 591 546 572 q 486 620 508 609 q 441 637 465 632 q 394 642 418 642 q 313 625 351 642 q 244 578 275 608 q 189 509 213 549 q 149 425 165 469 q 124 333 133 381 q 115 242 115 286 q 151 97 115 149 q 254 44 186 44 q 333 67 294 44 q 410 129 373 89 q 480 226 447 169 q 537 351 512 283 l 561 545 m 755 804 l 658 804 l 559 0 l 527 0 q 508 8 513 0 q 503 25 503 15 l 526 242 q 466 140 499 186 q 394 60 432 94 q 316 9 357 27 q 233 -9 275 -9 q 153 8 188 -9 q 97 58 119 26 q 62 135 74 90 q 50 236 50 180 q 61 344 50 289 q 93 449 72 399 q 143 545 113 500 q 210 623 172 590 q 292 675 247 656 q 387 694 336 694 q 490 670 443 694 q 567 598 538 646 l 593 804 l 459 804 q 439 811 444 804 q 437 830 435 818 l 440 847 l 599 847 l 619 1010 l 683 1010 l 663 847 l 760 847 l 755 804 z "},"ð":{"ha":724,"x_min":53,"x_max":649,"o":"m 304 42 q 488 130 417 42 q 581 395 558 218 q 560 465 575 431 q 521 527 546 500 q 461 572 497 555 q 378 589 426 589 q 267 564 316 589 q 185 496 218 539 q 134 395 151 453 q 117 273 117 338 q 131 177 117 219 q 171 104 146 134 q 230 58 196 74 q 304 42 265 42 m 514 854 q 569 790 544 826 q 612 711 594 755 q 640 615 630 667 q 649 501 649 563 q 627 298 649 391 q 560 136 605 204 q 450 30 516 68 q 297 -8 385 -8 q 200 11 244 -8 q 122 67 155 31 q 71 155 90 103 q 53 269 53 206 q 75 412 53 345 q 140 530 98 479 q 241 610 182 581 q 374 640 301 640 q 441 630 408 640 q 503 601 474 621 q 557 551 533 581 q 596 478 581 520 q 568 684 600 599 q 474 824 535 769 l 355 723 l 343 743 q 340 754 340 748 q 346 764 341 760 l 444 848 q 367 890 408 873 q 278 917 326 907 q 265 945 256 924 l 274 966 q 384 935 331 956 q 485 878 438 914 l 597 973 l 608 953 q 610 942 610 948 q 603 931 610 935 l 514 854 z "},"e":{"ha":651,"x_min":52,"x_max":585,"o":"m 398 652 q 298 629 342 652 q 218 566 253 606 q 161 475 184 526 q 126 367 138 423 q 278 389 215 376 q 387 416 342 402 q 459 447 431 431 q 502 482 487 464 q 522 518 517 499 q 527 557 527 537 q 520 589 527 572 q 499 619 514 606 q 459 643 483 633 q 398 652 434 652 m 568 128 q 502 66 534 92 q 436 24 469 40 q 368 -1 403 7 q 292 -9 333 -9 q 190 10 235 -9 q 115 64 145 29 q 68 150 84 99 q 52 263 52 200 q 63 367 52 315 q 93 469 73 420 q 144 560 114 517 q 213 633 174 602 q 299 683 252 665 q 401 701 347 701 q 487 686 452 701 q 544 651 522 672 q 576 605 566 630 q 585 559 585 581 q 578 505 585 531 q 551 456 570 479 q 498 413 531 433 q 413 376 465 393 q 289 345 361 359 q 119 321 217 331 q 117 292 118 307 q 116 264 116 278 q 163 102 116 160 q 304 44 210 44 q 370 52 341 44 q 423 72 400 60 q 464 99 447 85 q 496 125 482 113 q 520 145 510 138 q 538 153 530 153 q 553 147 547 153 l 568 128 z "},"ę":{"ha":651,"x_min":52,"x_max":585,"o":"m 398 652 q 298 629 342 652 q 218 566 253 606 q 161 475 184 526 q 126 367 138 423 q 278 389 215 376 q 387 416 342 402 q 459 447 431 431 q 502 482 487 464 q 522 518 517 499 q 527 557 527 537 q 520 589 527 572 q 499 619 514 606 q 459 643 483 633 q 398 652 434 652 m 426 -198 q 377 -225 406 -215 q 319 -235 349 -235 q 247 -212 273 -235 q 220 -149 220 -189 q 228 -107 220 -127 q 248 -70 235 -87 q 278 -36 261 -52 q 313 -8 294 -21 q 302 -9 307 -9 q 292 -9 298 -9 q 190 10 235 -9 q 115 64 145 29 q 68 150 84 99 q 52 263 52 200 q 63 367 52 315 q 93 469 73 420 q 144 560 114 517 q 213 633 174 602 q 299 683 252 665 q 401 701 347 701 q 487 686 452 701 q 544 651 522 672 q 576 605 566 630 q 585 559 585 581 q 578 505 585 531 q 551 456 570 479 q 498 413 531 433 q 413 376 465 393 q 289 345 361 359 q 119 321 217 331 q 117 292 118 307 q 116 264 116 278 q 163 102 116 160 q 304 44 210 44 q 370 52 341 44 q 423 72 400 60 q 464 99 447 85 q 496 125 482 113 q 520 145 510 138 q 538 153 530 153 q 553 147 547 153 l 568 128 q 472 44 518 76 q 373 0 425 13 q 341 -21 358 -8 q 308 -50 323 -33 q 283 -88 293 -67 q 273 -132 273 -108 q 291 -176 273 -160 q 336 -192 308 -192 q 366 -189 353 -192 q 387 -181 378 -185 q 401 -173 396 -176 q 410 -169 406 -169 q 418 -174 416 -169 l 426 -198 z "},"f":{"ha":428,"x_min":63,"x_max":485,"o":"m 230 621 l 156 15 l 127 -145 q 93 -174 119 -174 l 69 -174 l 166 620 l 79 626 q 67 631 71 627 q 63 644 63 635 l 66 669 l 172 669 l 183 757 q 210 861 190 816 q 261 935 231 906 q 329 980 291 965 q 411 995 367 995 q 450 991 431 995 q 485 981 469 988 l 478 947 q 472 941 476 942 q 459 941 467 940 q 440 943 451 942 q 414 945 428 945 q 354 935 382 945 q 304 902 326 924 q 267 843 282 879 q 245 755 251 807 l 234 669 l 429 669 l 422 621 l 230 621 z "},"ﬀ":{"ha":829,"x_min":63,"x_max":876,"o":"m 626 669 l 831 669 l 825 622 l 622 622 l 548 15 l 519 -145 q 485 -174 510 -174 l 461 -174 l 558 622 l 231 622 l 158 15 l 128 -145 q 94 -174 120 -174 l 71 -174 l 167 620 l 81 626 q 63 644 63 628 l 67 669 l 174 669 l 183 748 q 211 852 191 807 q 261 926 231 897 q 328 971 290 956 q 410 986 367 986 q 449 983 429 986 q 483 972 468 979 l 476 939 q 470 932 474 933 q 457 932 465 931 q 438 934 449 933 q 413 936 427 936 q 354 926 381 936 q 305 895 326 917 q 267 838 283 873 q 246 750 252 802 l 235 669 l 563 669 l 574 760 q 602 864 582 819 q 652 939 622 909 q 721 984 683 969 q 803 999 759 999 q 841 995 822 999 q 876 984 860 991 l 869 951 q 863 944 867 945 q 850 944 858 944 q 831 947 842 945 q 806 949 820 949 q 746 938 774 949 q 696 905 718 928 q 658 847 674 883 q 637 758 643 810 l 626 669 z "},"ﬁ":{"ha":694,"x_min":62,"x_max":610,"o":"m 235 669 l 610 669 l 528 0 l 463 0 l 539 620 l 232 620 l 157 14 l 128 -146 q 94 -174 119 -174 l 70 -174 l 167 619 l 80 625 q 63 642 62 627 l 66 669 l 174 669 l 181 728 q 213 843 189 792 q 274 929 236 894 q 361 983 311 964 q 473 1001 412 1001 q 496 1000 483 1001 q 522 998 509 999 q 545 993 534 996 q 564 987 556 990 l 558 955 q 551 948 556 949 q 537 948 546 947 q 515 951 528 949 q 483 953 501 953 q 319 898 381 953 q 244 727 258 842 l 235 669 z "},"ﬃ":{"ha":1082,"x_min":63,"x_max":999,"o":"m 993 622 l 917 0 l 853 0 l 929 622 l 621 622 l 546 14 l 517 -146 q 483 -174 508 -174 l 459 -174 l 557 622 l 231 622 l 158 15 l 128 -145 q 94 -174 120 -174 l 71 -174 l 167 620 l 81 626 q 63 644 63 628 l 67 669 l 174 669 l 183 748 q 211 852 191 807 q 261 926 231 897 q 328 971 290 956 q 410 986 367 986 q 449 983 429 986 q 483 972 468 979 l 476 939 q 470 932 474 933 q 457 932 465 931 q 438 934 449 933 q 413 936 427 936 q 354 926 381 936 q 305 895 326 917 q 267 838 283 873 q 246 750 252 802 l 235 669 l 563 669 l 570 728 q 601 843 578 792 q 663 929 625 894 q 750 983 700 964 q 862 1001 801 1001 q 885 1000 872 1001 q 910 998 898 999 q 934 993 923 996 q 953 987 945 990 l 947 955 q 940 948 945 949 q 926 948 935 947 q 903 951 917 949 q 872 953 890 953 q 708 898 770 953 q 633 727 647 842 l 624 669 l 999 669 l 994 622 l 993 622 z "},"ﬂ":{"ha":724,"x_min":62,"x_max":681,"o":"m 232 621 l 157 14 l 128 -146 q 94 -174 119 -174 l 70 -174 l 167 619 l 80 625 q 63 642 62 627 l 66 669 l 174 669 l 179 715 q 210 828 187 776 q 269 918 233 881 q 357 978 306 956 q 469 999 407 999 q 561 995 517 999 q 645 990 606 990 l 681 990 l 560 0 l 495 0 l 610 942 q 541 947 577 943 q 472 951 505 951 q 384 934 424 951 q 316 888 345 918 q 267 813 286 857 q 242 715 248 769 l 236 669 l 419 669 l 413 621 l 232 621 z "},"ﬄ":{"ha":1113,"x_min":62,"x_max":1071,"o":"m 234 669 l 563 669 l 569 715 q 599 828 576 776 q 659 918 622 881 q 746 978 696 956 q 858 999 797 999 q 951 995 906 999 q 1035 990 995 990 l 1071 990 l 949 0 l 885 0 l 999 942 q 931 947 967 943 q 861 951 894 951 q 774 934 813 951 q 705 888 735 918 q 657 813 676 857 q 631 715 638 769 l 626 669 l 831 669 l 825 621 l 622 621 l 547 14 l 517 -146 q 483 -174 509 -174 l 460 -174 l 557 621 l 231 621 l 157 15 l 128 -145 q 94 -174 119 -174 l 70 -174 l 167 620 l 81 626 q 63 643 62 628 l 67 669 l 173 669 l 183 748 q 210 852 190 807 q 260 926 230 897 q 327 971 290 956 q 409 986 365 986 q 448 983 428 986 q 483 972 467 979 l 476 939 q 469 932 474 933 q 457 932 465 931 q 438 934 449 933 q 412 936 426 936 q 353 926 381 936 q 304 895 326 917 q 267 838 282 873 q 245 750 251 802 l 234 669 z "},"g":{"ha":642,"x_min":-33,"x_max":646,"o":"m 290 295 q 370 314 335 295 q 429 363 405 333 q 466 432 453 393 q 478 509 478 470 q 440 618 478 581 q 338 654 401 654 q 258 636 292 654 q 199 590 223 619 q 163 523 176 560 q 151 445 151 485 q 188 333 151 372 q 290 295 226 295 m 426 65 q 251 72 326 79 q 128 43 177 65 q 55 -13 79 21 q 30 -85 31 -47 q 43 -139 30 -115 q 82 -177 57 -162 q 142 -201 107 -193 q 221 -210 178 -210 q 320 -195 276 -210 q 396 -156 365 -181 q 445 -101 428 -132 q 463 -36 463 -69 q 452 22 463 -2 q 425 67 441 47 l 426 65 m 646 667 l 644 644 q 638 632 642 638 q 624 626 634 627 l 512 617 q 531 569 524 595 q 538 511 538 543 q 528 442 538 473 q 505 384 519 410 q 475 336 491 358 q 444 292 458 313 q 422 248 431 270 q 413 201 413 226 q 420 165 412 181 q 441 131 428 148 q 468 98 453 115 q 494 62 482 81 q 515 19 507 42 q 523 -32 523 -3 q 500 -116 522 -76 q 438 -188 478 -157 q 341 -238 398 -219 q 215 -257 285 -257 q 115 -246 160 -257 q 36 -214 69 -235 q -15 -162 3 -192 q -33 -92 -33 -131 q 3 9 -32 -34 q 97 78 38 52 q 232 112 156 104 q 392 108 308 119 q 372 142 380 124 q 363 183 363 160 q 372 232 363 207 q 403 292 380 257 q 344 263 376 273 q 274 252 312 252 q 201 265 235 252 q 142 302 167 277 q 104 362 118 326 q 90 445 90 398 q 107 539 90 493 q 157 622 124 585 q 236 680 189 658 q 344 701 283 701 q 466 667 415 701 l 646 667 z "},"h":{"ha":716,"x_min":56,"x_max":625,"o":"m 180 483 q 241 575 208 535 q 312 644 275 616 q 389 687 349 672 q 467 701 428 701 q 544 684 512 701 q 594 633 576 667 q 619 552 613 600 q 617 442 625 503 l 565 0 l 500 0 l 552 442 q 539 593 564 540 q 445 647 514 647 q 369 627 408 647 q 293 573 330 608 q 224 487 257 538 q 167 374 192 437 l 122 0 l 56 0 l 178 1010 l 244 1010 l 180 483 z "},"ĥ":{"ha":716,"x_min":35,"x_max":625,"o":"m 108 1078 q 97 1073 103 1074 q 85 1071 90 1071 l 35 1071 l 203 1209 l 264 1209 l 397 1071 l 347 1071 q 337 1073 343 1071 q 327 1078 331 1074 l 234 1169 q 232 1171 233 1170 q 229 1173 231 1172 q 224 1169 228 1172 l 108 1078 m 180 483 q 241 575 208 535 q 312 644 275 616 q 389 687 349 672 q 467 701 428 701 q 544 684 512 701 q 594 633 576 667 q 619 552 613 600 q 617 442 625 503 l 565 0 l 500 0 l 552 442 q 539 593 564 540 q 445 647 514 647 q 369 627 408 647 q 293 573 330 608 q 224 487 257 538 q 167 374 192 437 l 122 0 l 56 0 l 178 1010 l 244 1010 l 180 483 z "},"ħ":{"ha":716,"x_min":38,"x_max":624,"o":"m 179 476 q 241 568 207 528 q 311 637 274 609 q 388 680 349 665 q 466 694 426 694 q 543 677 511 694 q 594 626 575 660 q 618 545 613 593 q 617 435 624 497 l 565 0 l 500 0 l 551 435 q 538 586 563 533 q 444 640 513 640 q 368 620 407 640 q 293 566 329 601 q 224 480 256 531 q 166 367 191 429 l 122 0 l 56 0 l 153 803 l 38 803 l 44 848 l 159 848 l 178 1010 l 244 1010 l 224 848 l 393 848 l 390 824 q 363 803 385 803 l 219 803 l 179 476 z "},"i":{"ha":294,"x_min":64,"x_max":263,"o":"m 213 691 l 128 0 l 64 0 l 148 691 l 213 691 m 263 929 q 258 906 263 917 q 244 887 253 895 q 225 874 236 878 q 203 869 215 869 q 181 874 192 869 q 163 887 171 878 q 151 906 156 895 q 146 929 146 917 q 151 953 146 942 q 164 973 156 964 q 182 986 172 981 q 204 991 192 991 q 226 986 215 991 q 245 973 237 981 q 258 953 253 965 q 263 929 263 942 z "},"į":{"ha":294,"x_min":-33,"x_max":263,"o":"m 119 0 q 87 -21 105 -8 q 55 -50 69 -33 q 30 -88 40 -67 q 19 -132 19 -108 q 37 -176 19 -160 q 83 -192 55 -192 q 113 -189 100 -192 q 134 -181 125 -185 q 148 -173 142 -176 q 156 -169 153 -169 q 165 -174 163 -169 l 172 -198 q 124 -225 152 -215 q 65 -235 95 -235 q -7 -212 19 -235 q -33 -149 -33 -189 q -24 -103 -33 -125 q -1 -63 -15 -82 q 33 -28 14 -44 q 72 0 51 -12 l 64 0 l 148 691 l 213 691 l 128 0 l 119 0 m 204 991 q 226 986 215 991 q 245 973 237 981 q 258 953 253 965 q 263 929 263 942 q 258 906 263 917 q 244 887 253 895 q 225 874 236 878 q 203 869 215 869 q 181 874 192 869 q 163 887 171 878 q 151 906 156 895 q 146 929 146 917 q 151 953 146 942 q 164 973 156 964 q 182 986 172 981 q 204 991 192 991 z "},"ı":{"ha":294,"x_min":64,"x_max":213,"o":"m 213 691 l 128 0 l 64 0 l 148 691 l 213 691 z "},"j":{"ha":293,"x_min":-119,"x_max":264,"o":"m 213 691 l 117 -88 q 99 -155 113 -124 q 63 -208 85 -185 q 11 -243 41 -231 q -56 -256 -19 -256 q -91 -253 -76 -256 q -119 -242 -106 -249 l -112 -208 q -106 -201 -109 -202 q -97 -201 -102 -200 q -84 -204 -92 -202 q -63 -206 -76 -206 q 16 -175 -12 -206 q 52 -88 44 -144 l 148 691 l 213 691 m 264 929 q 259 906 264 917 q 246 887 254 895 q 227 874 238 878 q 205 869 216 869 q 183 874 193 869 q 164 887 172 878 q 151 906 156 895 q 147 929 147 917 q 151 953 147 942 q 164 973 156 964 q 183 986 172 981 q 205 991 193 991 q 227 986 216 991 q 246 973 238 981 q 259 953 254 965 q 264 929 264 942 z "},"ȷ":{"ha":293,"x_min":-119,"x_max":213,"o":"m 213 691 l 117 -88 q 99 -155 113 -124 q 63 -208 85 -185 q 11 -243 41 -231 q -56 -256 -19 -256 q -91 -253 -76 -256 q -119 -242 -106 -249 l -112 -208 q -106 -201 -109 -202 q -97 -201 -102 -200 q -84 -204 -92 -202 q -63 -206 -76 -206 q 16 -175 -12 -206 q 52 -88 44 -144 l 148 691 l 213 691 z "},"k":{"ha":615,"x_min":56,"x_max":610,"o":"m 244 1010 l 168 394 l 194 394 q 214 398 206 394 q 232 410 222 401 l 518 674 q 534 686 526 682 q 554 691 542 691 l 610 691 l 294 401 q 281 388 287 394 q 267 378 274 383 q 282 366 276 373 q 294 349 289 358 l 547 0 l 492 0 q 476 3 483 0 q 463 16 469 6 l 234 327 q 216 344 225 340 q 188 349 207 349 l 163 349 l 120 0 l 56 0 l 179 1010 l 244 1010 z "},"ĸ":{"ha":613,"x_min":56,"x_max":610,"o":"m 206 691 l 169 394 l 194 394 q 211 397 202 394 q 232 410 220 399 l 518 674 q 534 686 526 682 q 553 691 542 691 l 610 691 l 295 401 q 267 378 280 386 q 283 366 276 373 q 294 349 289 358 l 547 0 l 492 0 q 476 3 483 0 q 463 16 469 6 l 234 327 q 216 344 225 340 q 188 349 206 349 l 163 349 l 120 0 l 56 0 l 141 691 l 206 691 z "},"ł":{"ha":374,"x_min":40,"x_max":377,"o":"m 377 660 l 377 626 q 374 613 377 618 q 364 604 372 608 l 242 547 l 175 0 l 111 0 l 174 520 l 40 458 l 40 494 q 52 515 40 508 l 181 576 l 233 1010 l 298 1010 l 248 602 l 377 660 z "},"ľ":{"ha":290,"x_min":63,"x_max":433,"o":"m 419 1012 q 433 997 433 1012 q 430 979 433 990 q 420 947 427 967 q 400 896 413 926 q 369 819 388 865 q 358 806 364 810 q 342 803 352 803 l 326 803 l 385 1012 l 419 1012 m 63 0 l 185 1010 l 249 1010 l 126 0 l 63 0 z "},"m":{"ha":1083,"x_min":56,"x_max":992,"o":"m 56 0 l 140 693 l 169 693 q 194 668 194 693 l 174 475 q 299 642 228 583 q 449 701 370 701 q 515 687 489 701 q 556 644 542 672 q 575 575 571 616 q 575 481 579 534 q 634 578 602 537 q 702 647 667 619 q 776 688 738 674 q 850 701 813 701 q 925 684 895 701 q 970 633 954 667 q 989 552 986 600 q 985 442 992 503 l 933 0 l 868 0 l 920 442 q 925 529 926 491 q 914 593 924 567 q 884 633 904 619 q 829 646 863 646 q 760 630 795 646 q 691 583 725 615 q 627 505 658 552 q 573 394 597 458 l 526 0 l 462 0 l 514 442 q 520 529 520 491 q 511 593 520 567 q 482 633 502 619 q 428 646 463 646 q 282 574 349 646 q 165 369 215 501 l 121 0 l 56 0 z "},"n":{"ha":717,"x_min":57,"x_max":626,"o":"m 174 469 q 236 567 202 524 q 309 640 271 610 q 388 686 347 670 q 469 701 428 701 q 545 684 513 701 q 595 633 576 667 q 620 552 615 600 q 619 442 626 503 l 567 0 l 501 0 l 553 442 q 540 593 565 540 q 447 646 515 646 q 368 626 408 646 q 292 570 329 606 q 222 482 255 533 q 165 365 190 430 l 122 0 l 57 0 l 140 693 l 169 693 q 194 668 194 693 l 174 469 z "},"ŋ":{"ha":717,"x_min":57,"x_max":626,"o":"m 174 469 q 236 567 202 524 q 309 640 271 610 q 388 686 347 670 q 469 701 428 701 q 545 684 513 701 q 595 633 576 667 q 620 552 615 600 q 619 442 626 503 l 570 24 l 563 -33 q 540 -127 557 -85 q 497 -198 524 -169 q 435 -242 471 -227 q 352 -258 399 -258 q 306 -254 326 -258 q 263 -241 285 -250 l 269 -211 q 275 -199 271 -202 q 286 -196 278 -196 q 308 -201 292 -196 q 352 -207 323 -207 q 450 -166 412 -207 q 497 -40 488 -124 l 503 19 l 553 442 q 540 593 565 540 q 447 646 515 646 q 368 626 408 646 q 292 570 329 606 q 222 482 255 533 q 165 365 190 430 l 122 0 l 57 0 l 140 693 l 169 693 q 194 668 194 693 l 174 469 z "},"o":{"ha":713,"x_min":54,"x_max":642,"o":"m 306 43 q 416 75 367 43 q 501 159 466 106 q 556 279 537 211 q 575 418 575 347 q 526 589 575 529 q 389 649 476 649 q 279 617 328 649 q 194 534 229 586 q 140 415 159 483 q 120 275 120 348 q 169 104 120 165 q 306 43 218 43 m 301 -9 q 200 10 245 -9 q 122 67 154 30 q 72 156 90 103 q 54 275 54 208 q 79 436 54 359 q 150 572 104 513 q 258 666 195 631 q 395 701 320 701 q 496 682 451 701 q 574 626 542 663 q 624 536 606 589 q 642 419 642 484 q 616 258 642 335 q 546 121 591 181 q 438 26 501 62 q 301 -9 376 -9 z "},"ø":{"ha":713,"x_min":27,"x_max":664,"o":"m 183 86 q 306 40 231 40 q 417 71 367 40 q 503 155 467 102 q 559 275 539 207 q 578 418 578 344 q 542 569 578 510 l 183 86 m 515 605 q 459 641 490 628 q 389 653 428 653 q 278 623 328 653 q 192 540 228 592 q 136 419 156 488 q 117 275 117 350 q 127 188 117 227 q 155 120 137 149 l 515 605 m 583 616 q 626 530 611 579 q 642 419 642 481 q 616 258 642 335 q 546 121 591 181 q 438 26 501 62 q 301 -9 376 -9 q 146 43 208 -9 l 97 -24 q 77 -41 88 -35 q 53 -46 65 -46 l 27 -46 l 115 74 q 70 161 86 110 q 54 275 54 212 q 79 436 54 359 q 150 573 104 514 q 258 667 195 632 q 395 702 320 702 q 482 688 442 702 q 552 648 521 674 l 594 706 q 609 722 603 717 q 629 726 615 726 l 664 726 l 583 616 z "},"œ":{"ha":1121,"x_min":53,"x_max":1048,"o":"m 282 42 q 392 69 344 42 q 475 146 440 97 q 529 263 509 195 q 553 412 549 331 q 549 509 557 465 q 521 585 541 553 q 469 634 501 617 q 393 651 438 651 q 280 622 331 651 q 193 539 229 593 q 138 409 157 485 q 118 239 118 333 q 127 166 118 201 q 155 103 135 131 q 206 58 174 75 q 282 42 237 42 m 857 654 q 765 634 807 654 q 689 576 722 614 q 634 486 656 539 q 604 367 613 433 q 801 401 725 381 q 920 445 877 421 q 978 496 963 469 q 993 550 993 523 q 985 590 993 571 q 960 623 977 608 q 918 645 944 637 q 857 654 892 654 m 1044 128 q 979 67 1011 93 q 914 24 947 41 q 845 -1 881 7 q 769 -9 809 -9 q 630 44 685 -9 q 556 197 574 97 q 506 110 535 149 q 440 46 476 72 q 359 5 403 19 q 266 -9 316 -9 q 171 11 211 -9 q 105 65 131 31 q 66 143 78 99 q 53 235 53 187 q 80 433 53 347 q 154 580 107 520 q 264 671 201 640 q 400 702 327 702 q 534 655 484 702 q 600 526 584 607 q 708 655 640 608 q 867 702 776 702 q 943 691 909 702 q 1000 660 976 680 q 1036 613 1024 640 q 1048 552 1048 585 q 1029 478 1048 513 q 961 414 1010 443 q 824 362 911 385 q 601 324 738 339 q 600 308 600 317 q 600 292 600 300 q 648 108 600 172 q 781 44 697 44 q 847 52 817 44 q 900 72 876 60 q 941 99 923 85 q 973 125 959 113 q 997 145 987 138 q 1015 153 1007 153 q 1029 147 1023 153 l 1044 128 z "},"p":{"ha":717,"x_min":26,"x_max":649,"o":"m 138 142 q 213 65 168 88 q 305 43 257 43 q 386 61 349 43 q 455 109 424 78 q 510 180 486 140 q 550 266 534 221 q 575 359 567 311 q 584 451 584 406 q 549 596 584 544 q 445 648 513 648 q 366 626 406 648 q 289 563 326 603 q 219 466 252 523 q 162 340 187 410 l 138 142 m 173 451 q 234 553 200 507 q 305 632 267 599 q 383 683 342 665 q 467 701 424 701 q 546 684 512 701 q 603 635 580 667 q 638 558 626 603 q 649 458 649 513 q 638 349 649 404 q 607 242 627 294 q 557 144 586 190 q 490 65 527 99 q 407 11 452 31 q 313 -9 363 -9 q 209 16 256 -9 q 131 90 161 41 l 90 -244 l 26 -244 l 140 693 l 170 693 q 194 668 194 693 l 173 451 z "},"þ":{"ha":717,"x_min":26,"x_max":649,"o":"m 138 143 q 171 96 152 115 q 212 65 190 77 q 257 48 234 53 q 305 43 281 43 q 386 61 349 43 q 455 109 424 78 q 510 180 486 140 q 550 266 534 221 q 575 359 567 311 q 584 451 584 406 q 549 596 584 544 q 445 648 513 648 q 365 626 406 648 q 288 563 325 603 q 219 465 251 522 q 161 339 186 408 l 138 143 m 176 457 q 236 557 203 512 q 307 634 269 602 q 384 684 344 666 q 467 701 425 701 q 546 684 512 701 q 603 635 580 667 q 638 558 626 603 q 649 458 649 513 q 638 349 649 404 q 607 242 627 294 q 557 144 586 190 q 490 65 527 99 q 407 11 452 31 q 313 -9 363 -9 q 209 16 256 -9 q 131 90 161 41 l 93 -217 q 84 -237 92 -229 q 64 -244 76 -244 l 26 -244 l 179 1010 l 244 1010 l 176 457 z "},"q":{"ha":693,"x_min":47,"x_max":619,"o":"m 551 637 q 508 648 530 644 q 462 651 485 651 q 372 635 415 651 q 289 592 328 619 q 218 526 251 564 q 163 442 186 488 q 126 346 139 397 q 113 242 113 295 q 145 98 113 149 q 244 46 176 46 q 322 68 283 46 q 394 131 360 90 q 460 227 429 171 q 515 353 491 284 l 551 637 m 499 228 q 442 131 473 174 q 376 56 411 88 q 302 8 341 25 q 222 -9 264 -9 q 146 8 178 -9 q 91 56 113 25 q 58 132 69 88 q 47 232 47 176 q 63 350 47 292 q 106 460 78 408 q 173 556 134 513 q 259 632 212 600 q 359 682 306 664 q 469 700 413 700 q 547 693 511 700 q 619 667 583 685 l 507 -244 l 469 -244 q 448 -234 453 -244 q 444 -208 442 -224 l 499 228 z "},"r":{"ha":456,"x_min":56,"x_max":469,"o":"m 174 463 q 236 581 202 531 q 307 660 269 631 q 386 697 345 690 q 469 687 427 703 l 458 625 q 368 634 410 643 q 289 589 326 624 q 220 494 251 554 q 163 353 188 435 l 121 0 l 56 0 l 140 693 l 169 693 q 194 668 194 693 l 174 463 z "},"s":{"ha":546,"x_min":13,"x_max":500,"o":"m 484 606 q 469 597 478 597 q 452 605 462 597 q 425 625 442 614 q 382 644 408 635 q 318 653 356 653 q 251 641 283 653 q 196 609 219 629 q 159 564 173 590 q 146 508 146 538 q 159 460 146 480 q 194 427 172 441 q 243 402 216 413 q 300 381 271 392 q 357 358 329 371 q 406 327 384 345 q 441 283 428 309 q 454 220 454 257 q 436 134 454 176 q 386 60 419 92 q 307 8 353 28 q 203 -11 260 -11 q 91 12 137 -11 q 13 73 46 35 l 30 97 q 49 108 38 108 q 66 97 56 108 q 94 72 76 85 q 141 47 113 58 q 213 36 169 36 q 288 50 254 36 q 345 87 322 63 q 383 141 369 110 q 396 207 396 172 q 383 258 396 238 q 348 294 369 279 q 298 319 326 309 q 242 340 271 330 q 185 362 213 350 q 136 392 158 374 q 101 434 114 409 q 88 495 88 459 q 105 573 88 535 q 153 639 122 610 q 228 684 185 667 q 323 701 272 701 q 424 683 381 701 q 500 629 467 665 l 484 606 z "},"ş":{"ha":546,"x_min":13,"x_max":500,"o":"m 30 97 q 49 108 38 108 q 66 97 56 108 q 94 72 76 85 q 141 47 113 58 q 213 36 169 36 q 288 50 254 36 q 345 87 322 63 q 383 141 369 110 q 396 207 396 172 q 383 258 396 238 q 348 294 369 279 q 298 319 326 309 q 242 340 271 330 q 185 362 213 350 q 136 392 158 374 q 101 434 114 409 q 88 495 88 459 q 105 573 88 535 q 153 639 122 610 q 228 684 185 667 q 323 701 272 701 q 424 683 381 701 q 500 629 467 665 l 484 606 q 469 597 478 597 q 452 605 462 597 q 425 625 442 614 q 382 644 408 635 q 318 653 356 653 q 251 641 283 653 q 196 609 219 629 q 159 564 173 590 q 146 508 146 538 q 159 460 146 480 q 194 427 172 441 q 243 402 216 413 q 300 381 271 392 q 357 358 329 371 q 406 327 384 345 q 441 283 428 309 q 454 220 454 257 q 438 137 454 177 q 391 65 422 97 q 317 13 360 33 q 221 -10 274 -8 l 199 -65 q 278 -94 251 -76 q 305 -149 305 -113 q 295 -191 305 -172 q 267 -222 285 -209 q 226 -241 250 -235 q 174 -248 201 -248 q 124 -240 148 -248 q 85 -219 101 -232 l 94 -199 q 106 -192 99 -192 q 115 -195 110 -192 q 127 -203 119 -199 q 147 -211 135 -208 q 177 -215 159 -215 q 232 -198 213 -215 q 251 -152 251 -181 q 244 -126 251 -137 q 222 -109 236 -116 q 189 -98 208 -102 q 147 -91 170 -94 l 181 -10 q 84 16 124 -7 q 13 73 44 38 l 30 97 z "},"ß":{"ha":756,"x_min":59,"x_max":706,"o":"m 176 669 q 219 794 189 735 q 292 898 249 853 q 388 968 335 942 q 501 994 442 994 q 591 979 552 994 q 655 938 629 963 q 693 881 680 913 q 706 817 706 849 q 688 733 706 768 q 643 672 670 699 q 585 625 616 646 q 527 584 554 604 q 482 541 500 564 q 465 489 465 519 q 481 443 465 460 q 520 411 497 425 q 573 385 544 398 q 625 352 601 372 q 665 304 649 333 q 681 229 681 275 q 662 132 681 176 q 610 56 643 88 q 532 7 577 24 q 433 -11 486 -11 q 373 -5 400 -11 q 324 12 347 1 q 282 39 301 23 q 247 73 263 54 l 265 96 q 285 106 272 106 q 304 95 293 106 q 332 71 315 84 q 376 47 349 58 q 442 36 403 36 q 516 50 483 36 q 572 88 549 64 q 607 144 594 112 q 619 213 619 176 q 603 276 619 252 q 562 317 587 301 q 508 346 537 334 q 455 374 480 358 q 414 413 430 390 q 397 472 397 435 q 416 540 397 511 q 461 591 434 568 q 521 636 489 615 q 581 682 553 657 q 627 738 608 706 q 645 813 645 769 q 638 856 645 833 q 612 900 630 880 q 565 933 594 919 q 492 946 535 946 q 405 923 447 946 q 328 859 363 900 q 269 762 293 818 q 237 641 245 706 l 159 15 l 130 -145 q 96 -174 122 -174 l 72 -174 l 169 619 l 78 626 q 62 642 59 628 l 64 669 l 176 669 z "},"ſ":{"ha":342,"x_min":59,"x_max":485,"o":"m 185 757 q 213 860 193 816 q 262 935 233 905 q 330 980 292 965 q 412 994 368 994 q 451 991 432 994 q 485 980 471 987 l 480 948 q 474 941 478 942 q 460 941 469 940 q 441 944 452 942 q 415 946 430 946 q 357 935 384 946 q 308 902 330 925 q 272 843 287 880 q 251 755 257 807 l 159 15 l 130 -145 q 96 -174 122 -174 l 72 -174 l 169 619 l 78 626 q 62 642 59 628 l 64 669 l 175 669 l 185 757 z "},"t":{"ha":474,"x_min":58,"x_max":435,"o":"m 106 116 q 107 126 106 120 q 108 145 107 133 q 111 177 109 158 q 117 228 113 197 l 165 620 l 74 620 q 63 624 67 620 q 60 636 58 628 l 63 662 l 172 670 l 218 917 q 224 928 219 924 q 236 933 229 933 l 268 933 l 235 669 l 435 669 l 430 620 l 230 620 l 182 230 q 176 183 178 201 q 173 154 174 165 q 171 137 172 142 q 171 128 171 131 q 192 63 171 83 q 247 43 213 43 q 287 50 269 43 q 318 66 305 58 q 340 82 331 75 q 352 90 348 90 q 363 83 359 90 l 375 53 q 308 7 347 24 q 228 -11 268 -11 q 139 20 172 -11 q 106 116 107 51 z "},"ť":{"ha":474,"x_min":58,"x_max":475,"o":"m 461 1012 q 475 997 475 1012 q 472 979 475 990 q 461 947 469 967 q 442 896 454 926 q 410 819 429 865 q 400 806 406 810 q 383 803 394 803 l 367 803 l 426 1012 l 461 1012 m 106 116 q 107 126 106 120 q 108 145 107 133 q 111 177 109 158 q 117 228 113 197 l 165 620 l 74 620 q 63 624 67 620 q 60 636 58 628 l 63 662 l 172 670 l 218 917 q 224 928 219 924 q 236 933 229 933 l 268 933 l 235 669 l 435 669 l 430 620 l 230 620 l 182 230 q 176 183 178 201 q 173 154 174 165 q 171 137 172 142 q 171 128 171 131 q 192 63 171 83 q 247 43 213 43 q 287 50 269 43 q 318 66 305 58 q 340 82 331 75 q 352 90 348 90 q 363 83 359 90 l 375 53 q 308 7 347 24 q 228 -11 268 -11 q 139 20 172 -11 q 106 116 107 51 z "},"ŧ":{"ha":482,"x_min":34,"x_max":442,"o":"m 113 116 q 114 126 113 120 q 115 145 114 133 q 118 177 116 158 q 124 228 120 197 l 149 435 l 51 435 q 39 440 44 435 q 35 453 34 444 l 39 479 l 154 479 l 172 620 l 81 620 q 69 624 74 620 q 67 636 65 628 l 70 662 l 179 670 l 225 917 q 231 928 226 924 q 243 933 236 933 l 275 933 l 242 669 l 442 669 l 437 620 l 237 620 l 219 479 l 407 479 l 401 435 l 214 435 l 189 230 q 183 183 185 201 q 180 154 181 165 q 178 137 178 142 q 178 128 178 131 q 199 63 178 83 q 253 43 220 43 q 294 50 276 43 q 325 66 312 58 q 347 82 338 75 q 359 90 355 90 q 369 83 366 90 l 382 53 q 315 7 354 24 q 235 -11 275 -11 q 146 20 178 -11 q 113 116 114 51 z "},"u":{"ha":717,"x_min":65,"x_max":642,"o":"m 642 691 l 559 0 l 528 0 q 509 7 515 0 q 503 26 503 14 l 524 222 q 462 124 496 167 q 390 52 428 81 q 311 7 352 22 q 231 -9 271 -9 q 103 59 142 -9 q 81 251 65 128 l 133 691 l 198 691 l 146 251 q 159 99 134 152 q 253 46 184 46 q 330 65 291 46 q 406 121 369 85 q 476 209 443 158 q 533 324 508 260 l 577 691 l 642 691 z "},"ų":{"ha":717,"x_min":65,"x_max":642,"o":"m 551 0 q 519 -21 537 -8 q 486 -50 501 -33 q 461 -88 472 -67 q 451 -132 451 -108 q 469 -176 451 -160 q 515 -192 487 -192 q 544 -189 532 -192 q 566 -181 557 -185 q 580 -173 574 -176 q 588 -169 585 -169 q 597 -174 594 -169 l 604 -198 q 556 -225 584 -215 q 497 -235 527 -235 q 425 -212 451 -235 q 399 -149 399 -189 q 408 -101 399 -124 q 434 -60 418 -79 q 470 -24 450 -40 q 512 5 491 -8 q 503 26 503 12 l 524 222 q 462 124 496 167 q 390 52 428 81 q 311 7 352 22 q 231 -9 271 -9 q 103 59 142 -9 q 81 251 65 128 l 133 691 l 198 691 l 146 251 q 159 99 134 152 q 253 46 184 46 q 330 65 291 46 q 406 121 369 85 q 476 209 443 158 q 533 324 508 260 l 577 691 l 642 691 l 559 0 l 551 0 z "},"v":{"ha":644,"x_min":59,"x_max":653,"o":"m 653 691 l 299 0 l 244 0 l 59 691 l 110 691 q 125 686 119 691 q 131 674 130 681 l 272 129 q 277 98 275 113 q 280 66 278 82 q 290 97 285 82 q 303 129 296 113 l 579 674 q 589 686 583 682 q 603 691 595 691 l 653 691 z "},"w":{"ha":979,"x_min":66,"x_max":979,"o":"m 979 691 l 683 0 l 635 0 q 622 15 624 0 l 517 576 q 513 608 513 592 q 507 592 510 600 q 501 576 504 584 l 256 15 q 239 0 250 0 l 194 0 l 66 691 l 113 691 q 134 674 131 691 l 226 129 q 231 70 230 99 q 242 99 236 85 q 253 129 247 114 l 491 679 q 511 694 496 694 l 537 694 q 553 679 552 694 l 656 129 q 660 99 658 114 q 663 70 662 85 q 673 99 668 84 q 683 129 678 113 l 910 674 q 919 686 913 682 q 933 691 926 691 l 979 691 z "},"x":{"ha":606,"x_min":-30,"x_max":593,"o":"m 340 369 l 533 0 l 478 0 q 455 15 461 0 l 292 333 q 281 313 287 322 l 49 14 q 39 4 44 8 q 26 0 34 0 l -30 0 l 258 370 l 83 691 l 139 691 q 152 689 148 691 q 160 681 156 686 l 305 404 q 316 423 310 415 l 516 679 q 535 691 523 691 l 593 691 l 340 369 z "},"y":{"ha":645,"x_min":61,"x_max":656,"o":"m 656 691 l 176 -225 q 147 -244 166 -244 l 101 -244 l 247 26 l 61 691 l 113 691 q 127 686 122 691 q 133 674 132 682 l 279 137 q 283 116 282 126 q 285 95 284 106 q 294 116 290 106 q 304 137 299 126 l 583 676 q 592 688 586 684 q 605 691 599 691 l 656 691 z "},"z":{"ha":574,"x_min":-7,"x_max":561,"o":"m 561 691 l 558 663 q 544 637 557 650 l 78 52 l 467 52 l 461 0 l -7 0 l -4 26 q -1 39 -4 32 q 8 52 3 46 l 476 639 l 92 639 l 99 691 l 561 691 z "},"ª":{"ha":474,"x_min":110,"x_max":430,"o":"m 369 774 q 207 744 258 770 q 157 672 157 719 q 176 626 157 640 q 222 612 196 612 q 297 631 265 612 q 358 677 328 649 l 369 774 m 162 928 q 233 977 197 961 q 313 992 269 992 q 369 980 346 992 q 406 947 392 968 q 425 900 420 926 q 426 844 430 873 l 393 583 l 372 583 q 361 585 364 583 q 356 595 359 588 l 356 643 q 286 593 320 610 q 205 576 251 576 q 168 582 185 576 q 138 598 151 588 q 117 626 125 609 q 110 666 110 643 q 124 720 110 695 q 170 764 138 745 q 252 795 201 783 q 374 808 302 806 l 378 844 q 366 925 384 897 q 302 952 347 952 q 256 944 275 952 q 223 928 237 937 q 199 911 208 919 q 182 903 189 903 q 173 906 176 903 q 168 913 170 909 l 162 928 z "},"º":{"ha":522,"x_min":119,"x_max":491,"o":"m 331 992 q 399 980 369 992 q 449 944 428 967 q 480 889 469 921 q 491 817 491 856 q 476 717 491 762 q 434 641 461 672 q 367 592 406 609 q 281 574 328 574 q 212 587 242 574 q 161 622 182 599 q 130 677 141 645 q 119 749 119 710 q 134 849 119 804 q 177 926 149 894 q 243 975 204 958 q 331 992 283 992 m 285 613 q 353 628 324 613 q 401 669 382 642 q 431 733 421 696 q 441 817 441 771 q 413 916 441 878 q 327 953 384 953 q 257 938 287 953 q 208 896 228 923 q 180 831 189 869 q 170 749 170 794 q 199 650 170 687 q 285 613 227 613 z "},"ⁿ":{"ha":403,"x_min":88,"x_max":401,"o":"m 166 924 q 226 970 194 953 q 299 988 259 988 q 348 979 328 988 q 381 952 369 969 q 397 910 393 935 q 398 856 401 885 l 371 633 l 324 633 l 351 856 q 340 925 356 901 q 281 950 323 950 q 221 934 249 950 q 167 892 192 919 l 135 633 l 88 633 l 131 983 l 156 983 q 168 970 166 983 l 166 924 z "},"`":{"ha":511,"x_min":235,"x_max":411,"o":"m 294 994 q 317 989 310 994 q 330 972 324 984 l 411 806 l 376 806 q 364 809 369 806 q 355 818 358 811 l 235 994 l 294 994 z "},"´":{"ha":511,"x_min":292,"x_max":511,"o":"m 511 994 l 353 818 q 342 809 347 811 q 328 806 336 806 l 292 806 l 410 972 q 427 989 419 984 q 451 994 435 994 l 511 994 z "},"ˆ":{"ha":511,"x_min":181,"x_max":513,"o":"m 513 812 l 472 812 q 463 814 467 812 q 454 822 458 816 l 369 937 l 363 945 q 355 937 360 942 l 243 822 q 224 812 235 812 l 181 812 l 339 983 l 393 983 l 513 812 z "},"ˇ":{"ha":511,"x_min":200,"x_max":532,"o":"m 532 983 l 374 812 l 319 812 l 200 983 l 242 983 q 259 975 254 983 l 346 858 q 349 854 347 856 q 352 849 351 852 q 356 854 353 852 q 360 858 358 856 l 473 975 q 490 983 481 983 l 532 983 z "},"̕":{"ha":0,"x_min":312,"x_max":427,"o":"m 413 1012 q 424 1008 421 1012 q 427 998 427 1003 q 424 980 427 991 q 414 948 421 968 q 394 897 406 928 q 362 819 381 866 q 351 806 357 810 q 335 802 345 802 l 312 802 l 371 1012 l 413 1012 z "},"˜":{"ha":511,"x_min":188,"x_max":531,"o":"m 428 889 q 473 908 456 889 q 493 960 489 927 l 531 960 q 520 913 528 935 q 498 875 511 891 q 466 850 484 859 q 426 841 448 841 q 387 852 404 841 q 354 877 369 864 q 323 902 338 891 q 291 914 308 914 q 248 894 265 914 q 227 843 231 874 l 188 843 q 200 890 191 868 q 223 928 209 912 q 255 953 236 944 q 294 962 273 962 q 334 950 316 962 q 367 925 351 939 q 397 900 382 912 q 428 889 412 889 z "},"¯":{"ha":511,"x_min":179,"x_max":533,"o":"m 184 915 l 533 915 l 527 869 l 179 869 l 184 915 z "},"˘":{"ha":511,"x_min":209,"x_max":519,"o":"m 347 811 q 278 825 306 811 q 234 862 250 838 q 214 917 219 885 q 213 983 209 948 l 258 983 q 257 934 254 957 q 271 894 260 911 q 302 866 282 876 q 352 856 322 856 q 405 866 383 856 q 441 894 426 876 q 464 934 456 911 q 475 983 472 957 l 519 983 q 504 917 515 948 q 472 862 492 885 q 420 825 451 838 q 347 811 389 811 z "},"˚":{"ha":511,"x_min":244,"x_max":471,"o":"m 247 904 q 261 950 250 929 q 289 986 272 971 q 326 1009 306 1001 q 370 1018 347 1018 q 411 1009 392 1018 q 444 986 431 1001 q 464 950 458 971 q 468 904 471 929 q 453 859 465 879 q 426 823 442 838 q 388 799 409 808 q 344 791 367 791 q 303 799 322 791 q 271 823 284 808 q 251 859 258 838 q 247 904 244 879 m 284 904 q 298 847 281 869 q 349 825 315 825 q 403 847 381 825 q 431 904 426 869 q 416 961 435 939 q 366 983 398 983 q 311 961 333 983 q 284 904 289 939 z "},"˝":{"ha":511,"x_min":239,"x_max":610,"o":"m 437 994 l 291 818 q 279 809 285 811 q 265 806 273 806 l 239 806 l 355 972 q 371 989 363 984 q 394 994 379 994 l 437 994 m 610 994 l 443 818 q 432 809 438 811 q 418 806 426 806 l 388 806 l 523 972 q 532 982 528 978 q 540 989 536 986 q 550 992 544 991 q 563 994 556 994 l 610 994 z "},"˙":{"ha":511,"x_min":303,"x_max":420,"o":"m 420 929 q 415 906 420 917 q 401 887 410 895 q 382 874 393 878 q 360 869 372 869 q 338 874 349 869 q 320 887 328 878 q 308 906 313 895 q 303 929 303 917 q 308 953 303 942 q 320 973 313 964 q 339 986 328 981 q 361 991 349 991 q 383 986 372 991 q 402 973 394 981 q 415 953 410 965 q 420 929 420 942 z "},"¸":{"ha":511,"x_min":137,"x_max":357,"o":"m 251 -65 q 330 -94 303 -76 q 357 -149 357 -113 q 347 -191 357 -172 q 319 -222 337 -209 q 278 -241 302 -235 q 226 -248 253 -248 q 176 -240 200 -248 q 137 -219 153 -232 l 147 -199 q 158 -192 151 -192 q 167 -195 162 -192 q 180 -203 172 -199 q 199 -211 188 -208 q 229 -215 211 -215 q 284 -198 265 -215 q 303 -152 303 -181 q 296 -126 303 -137 q 274 -109 288 -116 q 241 -98 260 -102 q 199 -91 222 -94 l 242 8 l 281 8 l 251 -65 z "},"˛":{"ha":511,"x_min":138,"x_max":344,"o":"m 328 -169 q 336 -174 334 -169 l 344 -198 q 295 -225 324 -215 q 237 -235 267 -235 q 165 -212 191 -235 q 138 -149 138 -189 q 149 -100 138 -123 q 176 -57 159 -76 q 215 -20 194 -37 q 258 9 236 -3 l 291 0 q 259 -21 276 -8 q 226 -50 241 -33 q 201 -88 211 -67 q 191 -132 191 -108 q 209 -176 191 -160 q 254 -192 226 -192 q 284 -189 272 -192 q 305 -181 297 -185 q 319 -173 314 -176 q 328 -169 324 -169 z "},"Γ":{"ha":706,"x_min":85,"x_max":749,"o":"m 743 927 l 269 927 l 155 0 l 85 0 l 206 983 l 749 983 l 743 927 z "},"Δ":{"ha":851,"x_min":-34,"x_max":781,"o":"m 497 856 q 491 881 493 867 q 485 908 488 894 q 474 880 480 893 q 463 856 468 867 l 66 56 l 696 56 l 497 856 m 781 0 l -34 0 l 464 983 l 526 983 l 781 0 z "},"Θ":{"ha":1023,"x_min":83,"x_max":959,"o":"m 331 530 l 711 530 l 703 473 l 325 473 l 331 530 m 959 567 q 921 331 959 437 q 816 149 883 224 q 657 31 749 73 q 458 -10 565 -10 q 303 20 372 -10 q 184 108 233 51 q 109 242 135 164 q 83 416 83 321 q 121 652 83 545 q 226 834 159 758 q 384 952 293 910 q 582 994 476 994 q 739 963 669 994 q 857 876 808 932 q 933 741 906 819 q 959 567 959 662 m 888 565 q 866 719 888 651 q 803 836 844 788 q 704 910 762 884 q 574 936 646 936 q 407 900 484 936 q 273 797 330 864 q 185 633 217 729 q 153 418 153 538 q 175 264 153 333 q 238 148 197 196 q 337 74 279 100 q 466 48 394 48 q 635 84 558 48 q 768 187 712 119 q 856 350 824 254 q 888 565 888 445 z "},"Λ":{"ha":844,"x_min":-33,"x_max":775,"o":"m 775 0 l 720 0 q 705 5 710 0 q 697 18 699 10 l 493 838 q 486 868 490 852 q 481 903 483 885 q 468 868 475 885 q 453 838 461 852 l 49 18 q 38 5 45 10 q 22 0 31 0 l -33 0 l 460 983 l 522 983 l 775 0 z "},"Ξ":{"ha":788,"x_min":12,"x_max":800,"o":"m 800 983 l 793 924 l 125 924 l 132 983 l 800 983 m 686 59 l 679 0 l 12 0 l 19 59 l 686 59 m 234 532 l 583 532 l 576 472 l 226 472 l 234 532 z "},"Π":{"ha":974,"x_min":85,"x_max":907,"o":"m 786 0 l 717 0 l 831 927 l 269 927 l 155 0 l 85 0 l 206 983 l 907 983 l 786 0 z "},"Σ":{"ha":774,"x_min":-3,"x_max":785,"o":"m 260 927 q 218 929 237 927 q 181 935 199 931 q 213 906 199 921 q 239 869 227 890 l 436 531 q 447 510 444 517 q 449 497 451 503 q 443 481 448 489 q 427 459 439 472 l 133 106 q 102 73 117 86 q 74 50 88 60 q 111 54 94 53 q 145 56 128 56 l 671 56 l 665 0 l -3 0 l 0 26 q 6 42 1 33 q 17 56 11 50 l 392 490 l 120 931 q 114 953 113 942 l 117 983 l 785 983 l 778 927 l 260 927 z "},"Φ":{"ha":1042,"x_min":64,"x_max":997,"o":"m 516 108 q 683 143 607 108 q 814 237 759 178 q 899 375 869 297 q 930 542 930 453 q 909 672 930 610 q 847 781 888 734 q 746 855 806 828 q 611 883 687 883 l 516 108 m 545 883 q 378 848 454 883 q 247 753 302 813 q 162 615 192 694 q 131 449 131 537 q 153 318 131 380 q 215 210 174 256 q 315 136 256 163 q 450 108 374 108 l 545 883 m 617 937 q 780 904 709 936 q 899 818 851 872 q 972 694 947 765 q 997 545 997 624 q 963 356 997 445 q 864 200 928 267 q 710 93 800 133 q 510 53 620 54 l 493 -81 l 427 -81 l 444 53 q 281 86 351 54 q 161 171 210 117 q 89 296 113 225 q 64 445 64 367 q 80 574 64 512 q 126 691 96 637 q 200 791 156 746 q 297 868 243 836 q 415 918 351 901 q 551 937 479 936 l 567 1065 l 633 1065 l 617 937 z "},"Ψ":{"ha":1021,"x_min":91,"x_max":1015,"o":"m 1015 983 l 972 635 q 926 476 961 547 q 835 354 892 405 q 700 276 778 303 q 524 246 622 248 l 494 0 l 424 0 l 454 246 q 286 276 357 248 q 170 355 215 304 q 108 476 126 405 q 101 635 91 547 l 144 983 l 190 983 q 207 975 201 983 q 210 957 212 967 l 171 635 q 174 497 161 558 q 224 393 188 435 q 319 327 260 350 q 460 301 378 303 l 544 983 l 614 983 l 531 301 q 679 327 614 303 q 790 393 744 350 q 865 497 837 435 q 903 635 893 558 l 942 957 q 951 975 944 967 q 969 983 958 983 l 1015 983 z "},"Ω":{"ha":989,"x_min":33,"x_max":936,"o":"m 580 60 l 869 60 l 866 24 q 856 7 865 13 q 838 0 848 0 l 517 0 l 548 250 q 676 297 617 266 q 776 375 734 328 q 842 488 818 423 q 865 637 865 553 q 842 767 865 710 q 778 861 819 823 q 681 918 737 899 q 561 938 626 938 q 413 912 483 938 q 289 837 342 887 q 203 712 235 787 q 172 539 172 638 q 188 432 172 479 q 236 348 205 384 q 310 288 267 312 q 406 250 353 263 l 376 0 l 56 0 q 38 7 44 0 q 34 24 33 13 l 38 60 l 328 60 l 347 215 q 247 258 292 229 q 170 327 202 286 q 119 422 138 369 q 101 540 101 476 q 139 731 101 647 q 241 874 176 815 q 390 963 305 932 q 568 994 474 994 q 715 969 647 994 q 832 899 783 945 q 908 788 881 853 q 936 640 936 722 q 910 483 936 553 q 839 358 884 412 q 732 267 793 303 q 599 215 670 231 l 580 60 z "},"α":{"ha":755,"x_min":51,"x_max":711,"o":"m 249 44 q 329 66 291 44 q 402 125 367 88 q 468 215 437 163 q 527 328 499 267 q 530 408 528 369 q 528 484 531 448 q 517 550 525 519 q 495 603 510 581 q 457 638 481 625 q 398 650 433 650 q 289 616 340 650 q 200 527 238 583 q 139 399 161 471 q 116 249 116 326 q 151 96 116 148 q 249 44 186 44 m 711 691 q 648 493 682 588 q 573 317 613 399 q 572 218 572 265 q 578 135 572 171 q 601 77 585 99 q 648 56 617 56 l 678 56 l 672 20 q 659 4 670 12 q 624 -3 649 -3 q 575 14 593 -3 q 546 64 556 32 q 533 140 536 96 q 528 235 529 183 q 460 134 496 179 q 386 57 424 89 q 307 8 348 26 q 224 -9 266 -9 q 97 53 143 -9 q 51 240 51 116 q 63 357 51 299 q 97 465 75 414 q 151 560 119 517 q 220 635 182 603 q 301 684 258 667 q 392 702 344 702 q 479 680 445 702 q 532 620 513 658 q 559 534 551 583 q 569 431 567 485 q 598 515 584 472 q 623 601 611 558 q 637 649 631 631 q 648 676 642 667 q 657 688 653 685 q 668 691 662 691 l 711 691 z "},"β":{"ha":706,"x_min":26,"x_max":625,"o":"m 138 143 q 211 69 165 95 q 314 43 258 43 q 418 65 372 43 q 496 123 464 86 q 545 210 528 160 q 562 316 562 260 q 546 402 562 364 q 501 466 530 440 q 431 505 472 492 q 339 519 390 519 l 301 519 l 306 569 l 338 569 q 422 582 381 569 q 493 622 462 595 q 543 691 524 649 q 563 790 563 733 q 552 853 563 824 q 523 901 542 881 q 476 933 504 922 q 413 944 449 944 q 333 926 368 944 q 270 869 297 908 q 225 769 244 831 q 196 621 207 708 l 144 201 l 138 143 m 132 622 q 223 901 155 810 q 417 992 291 992 q 506 977 467 992 q 570 935 544 962 q 610 873 597 909 q 624 794 624 837 q 609 702 624 743 q 569 630 594 661 q 508 578 543 599 q 431 547 472 557 q 575 468 524 528 q 625 317 625 408 q 604 189 625 248 q 544 85 583 129 q 449 16 505 41 q 324 -9 394 -9 q 268 -3 296 -9 q 216 16 241 3 q 169 48 190 29 q 132 94 147 67 l 114 -56 l 83 -216 q 49 -244 75 -244 l 26 -244 l 80 203 l 132 622 z "},"γ":{"ha":674,"x_min":61,"x_max":674,"o":"m 674 691 q 603 501 640 588 q 524 336 566 414 q 436 188 483 259 q 335 44 389 116 l 299 -244 l 235 -244 l 270 47 q 240 311 256 199 q 203 498 224 424 q 152 609 181 572 q 83 645 123 645 l 61 645 l 64 669 q 73 687 65 681 q 108 694 81 694 q 191 660 156 694 q 251 553 226 626 q 291 367 276 481 q 316 93 307 253 q 473 353 406 213 q 594 663 540 494 q 606 685 599 679 q 624 691 613 691 l 674 691 z "},"δ":{"ha":700,"x_min":50,"x_max":622,"o":"m 306 41 q 403 62 357 41 q 483 121 449 83 q 538 215 517 160 q 558 340 558 271 q 543 435 558 393 q 506 511 529 477 q 452 573 483 545 q 391 624 422 600 q 285 577 335 606 q 197 505 235 548 q 138 404 160 463 q 115 270 115 346 q 127 183 115 225 q 162 110 138 142 q 221 60 185 78 q 306 41 257 41 m 612 931 q 605 918 610 922 q 591 915 601 915 q 568 919 585 915 q 528 928 551 924 q 476 937 505 933 q 419 941 448 941 q 351 933 379 941 q 305 910 323 924 q 279 878 288 897 q 271 840 271 860 q 286 790 271 813 q 325 745 301 767 q 382 701 350 723 q 446 653 413 678 q 511 598 479 628 q 567 531 542 568 q 607 447 592 493 q 622 342 622 401 q 597 198 622 263 q 530 87 573 133 q 428 16 487 41 q 301 -8 369 -8 q 192 14 239 -8 q 114 73 145 35 q 66 161 82 111 q 50 267 50 211 q 131 507 50 412 q 363 646 211 603 q 305 689 333 667 q 257 733 278 710 q 223 782 235 756 q 210 839 210 808 q 223 897 210 869 q 261 946 235 924 q 328 980 287 967 q 426 992 369 992 q 471 990 447 992 q 521 985 496 988 q 572 977 547 982 q 620 967 598 972 l 612 931 z "},"ε":{"ha":580,"x_min":40,"x_max":542,"o":"m 490 89 q 447 50 472 68 q 392 19 422 32 q 329 -1 362 6 q 261 -8 296 -8 q 172 5 213 -8 q 102 43 131 19 q 56 100 72 67 q 40 174 40 133 q 51 239 40 208 q 87 295 63 270 q 146 340 110 321 q 229 367 181 358 q 167 391 192 375 q 126 427 142 407 q 105 469 111 447 q 98 513 98 491 q 114 582 98 548 q 161 643 130 616 q 240 686 193 669 q 348 702 286 702 q 464 681 415 702 q 542 626 512 660 l 526 603 q 517 595 521 597 q 508 594 514 594 q 492 603 502 594 q 463 623 481 612 q 416 643 444 634 q 347 652 388 652 q 264 640 299 652 q 206 608 229 628 q 170 562 182 588 q 159 509 159 536 q 170 462 159 484 q 202 423 181 440 q 254 398 224 407 q 322 388 284 388 l 426 388 l 421 344 l 317 344 q 226 332 265 344 q 160 298 187 319 q 119 247 133 276 q 106 181 106 217 q 117 124 106 150 q 150 80 128 99 q 202 51 172 62 q 271 41 233 41 q 351 53 318 41 q 406 79 384 65 q 442 105 428 93 q 463 117 455 117 q 475 110 470 117 l 490 89 z "},"ζ":{"ha":483,"x_min":52,"x_max":567,"o":"m 567 960 q 566 949 567 954 q 557 935 564 944 q 537 914 551 927 q 501 879 524 900 q 411 797 457 840 q 323 708 366 754 q 243 611 281 661 q 177 508 205 562 q 132 398 149 455 q 116 282 116 342 q 128 205 116 237 q 162 151 140 174 q 215 113 184 128 q 283 85 246 97 q 368 51 335 69 q 419 14 401 33 q 444 -24 438 -5 q 451 -61 451 -43 q 431 -152 451 -110 q 383 -236 412 -193 l 335 -215 q 355 -184 345 -200 q 372 -152 364 -169 q 384 -117 379 -135 q 389 -79 389 -99 q 384 -52 389 -66 q 364 -24 378 -37 q 322 4 349 -10 q 251 31 294 18 q 168 65 205 46 q 106 112 132 84 q 66 177 80 140 q 52 267 52 215 q 86 444 52 360 q 181 609 121 528 q 323 771 241 690 q 500 939 405 852 q 384 932 447 935 q 253 930 322 930 l 194 930 q 175 936 180 930 q 171 951 169 943 l 175 983 l 565 983 l 567 960 z "},"η":{"ha":734,"x_min":40,"x_max":644,"o":"m 199 483 q 261 575 227 535 q 332 644 294 616 q 408 687 369 672 q 486 701 447 701 q 563 684 531 701 q 614 633 594 667 q 639 552 633 600 q 637 442 644 503 l 553 -244 l 488 -244 l 572 442 l 574 442 q 560 593 585 541 q 465 646 535 646 q 390 628 428 646 q 316 576 352 610 q 248 494 281 542 q 191 387 216 447 l 144 0 l 81 0 l 145 526 q 133 619 153 590 q 63 648 113 648 l 40 648 l 42 672 q 53 690 44 683 q 85 697 63 697 q 140 688 116 697 q 180 659 165 678 q 202 609 196 640 q 203 534 208 578 l 199 483 z "},"θ":{"ha":768,"x_min":90,"x_max":692,"o":"m 156 474 q 154 419 155 447 q 153 362 153 391 q 164 228 153 287 q 199 127 176 169 q 258 64 223 86 q 340 42 293 42 q 449 72 401 42 q 534 157 498 101 q 593 293 570 213 q 625 474 615 373 l 156 474 m 628 519 q 631 569 630 544 q 631 620 631 594 q 620 756 631 696 q 585 857 608 815 q 528 920 563 899 q 448 942 494 942 q 338 913 386 942 q 253 829 289 884 q 193 696 217 774 q 160 519 170 617 l 628 519 m 451 993 q 554 967 509 993 q 630 892 599 941 q 676 773 660 843 q 692 614 692 703 q 667 352 692 467 q 596 156 642 236 q 484 33 550 76 q 337 -9 419 -9 q 231 17 277 -9 q 154 91 185 42 q 107 210 123 140 q 90 369 90 280 q 115 631 90 515 q 187 827 140 747 q 301 950 234 908 q 451 993 368 993 z "},"ι":{"ha":317,"x_min":61,"x_max":269,"o":"m 135 691 l 199 691 l 135 167 q 149 73 128 105 q 224 40 170 40 l 269 40 l 267 19 q 197 -8 263 -8 q 92 37 124 -8 q 71 164 61 83 l 135 691 z "},"λ":{"ha":677,"x_min":-7,"x_max":633,"o":"m 633 43 l 629 18 q 618 -1 628 4 q 584 -6 608 -6 q 536 -1 558 -6 q 499 19 515 4 q 469 60 482 33 q 448 130 456 87 l 355 524 q 350 557 351 542 q 348 583 348 571 q 339 558 344 572 q 326 531 333 545 l 72 17 q 63 5 69 9 q 43 0 56 0 l -7 0 l 324 648 l 275 865 q 264 900 271 885 q 247 925 258 915 q 219 939 235 934 q 178 943 203 943 l 140 943 l 143 967 q 154 985 144 977 q 197 992 165 992 q 286 970 253 992 q 333 892 319 947 l 509 131 q 541 63 520 83 q 597 43 561 43 l 633 43 z "},"μ":{"ha":756,"x_min":27,"x_max":703,"o":"m 703 44 l 701 17 q 685 1 699 8 q 644 -6 671 -6 q 594 2 617 -6 q 553 28 571 10 q 527 72 536 45 q 518 137 517 99 q 408 33 468 71 q 281 -4 348 -4 q 181 20 219 -4 q 125 92 143 45 q 122 36 124 65 q 116 -17 119 8 l 88 -244 l 56 -244 q 34 -237 41 -244 q 28 -215 27 -229 l 140 691 l 207 691 l 152 249 q 154 165 148 202 q 177 103 160 128 q 223 64 194 78 q 291 51 251 51 q 414 89 356 51 q 517 197 472 127 l 578 691 l 644 691 l 580 165 q 599 73 572 102 q 676 44 626 44 l 703 44 z "},"ν":{"ha":647,"x_min":60,"x_max":647,"o":"m 647 691 q 571 490 610 583 q 488 313 532 397 q 392 152 443 229 q 282 0 341 76 l 243 0 l 60 691 l 110 691 q 124 686 119 691 q 131 674 129 681 l 270 126 q 276 99 274 113 q 279 71 278 85 q 366 199 326 132 q 442 339 406 266 q 508 494 477 413 q 569 666 540 575 q 580 685 572 680 q 594 691 587 691 l 647 691 z "},"ξ":{"ha":491,"x_min":48,"x_max":537,"o":"m 533 956 q 523 937 532 944 q 503 930 514 930 l 451 930 q 351 911 397 930 q 272 862 306 893 q 218 789 238 831 q 199 703 199 748 q 211 643 199 670 q 248 596 224 616 q 307 565 272 576 q 390 554 342 554 l 438 554 l 432 502 l 364 502 q 253 485 301 502 q 175 436 206 467 q 128 363 144 405 q 113 270 113 320 q 127 199 113 229 q 167 146 141 169 q 228 106 192 123 q 306 72 263 88 q 368 43 344 58 q 407 12 392 28 q 426 -20 421 -3 q 432 -56 432 -37 q 413 -150 432 -107 q 363 -235 393 -192 l 316 -213 q 335 -183 326 -199 q 353 -149 345 -167 q 365 -113 360 -132 q 370 -74 370 -94 q 366 -48 370 -60 q 350 -24 362 -35 q 319 -1 339 -12 q 267 20 299 10 q 182 56 222 35 q 112 104 142 76 q 65 171 82 133 q 48 260 48 209 q 61 350 48 306 q 101 430 74 393 q 171 493 128 466 q 272 533 213 520 q 170 597 202 553 q 138 697 138 641 q 155 777 138 740 q 200 846 172 815 q 268 900 229 877 q 351 936 307 923 q 297 934 325 935 q 231 933 268 933 l 157 933 q 134 957 131 933 l 138 983 l 537 983 l 533 956 z "},"π":{"ha":768,"x_min":10,"x_max":751,"o":"m 747 649 q 721 627 745 627 l 613 627 q 598 525 605 569 q 585 446 591 481 q 575 383 579 411 q 567 326 570 354 q 562 267 564 298 q 560 198 560 237 q 566 121 560 151 q 581 75 571 92 q 606 52 591 58 q 640 47 620 47 l 659 47 l 656 20 q 640 3 654 9 q 601 -3 626 -3 q 554 5 574 -3 q 519 32 533 13 q 498 83 506 51 q 491 159 491 114 q 498 250 491 201 q 514 357 504 299 q 536 481 524 414 q 559 627 548 548 l 285 627 q 231 327 260 449 q 168 133 201 206 q 103 27 136 59 q 40 -4 70 -4 q 20 -1 29 -4 q 11 10 10 2 l 17 56 l 29 56 q 72 86 47 56 q 124 185 97 117 q 178 362 151 253 q 227 627 206 471 l 78 627 l 82 654 q 91 672 83 663 q 113 681 99 681 l 751 681 l 747 649 z "},"ρ":{"ha":715,"x_min":17,"x_max":642,"o":"m 131 164 q 167 110 147 133 q 211 72 188 87 q 260 49 235 56 q 309 41 285 41 q 420 70 371 41 q 504 149 469 99 q 557 267 538 199 q 575 414 575 335 q 562 517 575 473 q 526 592 549 562 q 469 636 502 622 q 394 651 435 651 q 313 634 351 651 q 242 584 274 617 q 188 499 210 550 q 158 381 166 449 l 131 164 m 93 378 q 130 520 103 460 q 197 621 156 581 q 289 682 237 662 q 401 702 340 702 q 498 683 453 702 q 574 628 542 665 q 624 537 606 591 q 642 413 642 483 q 618 249 642 326 q 553 115 595 173 q 450 24 510 58 q 316 -9 390 -9 q 260 -1 288 -9 q 208 21 233 6 q 161 56 183 35 q 124 103 140 77 l 81 -244 l 17 -244 l 93 378 z "},"σ":{"ha":746,"x_min":56,"x_max":757,"o":"m 428 635 q 290 609 348 635 q 194 536 232 583 q 139 424 157 489 q 122 281 122 358 q 134 180 122 224 q 172 105 147 135 q 233 58 197 74 q 315 42 269 42 q 429 68 380 42 q 513 144 478 95 q 564 261 547 192 q 581 413 581 329 q 573 492 581 455 q 548 559 565 529 q 507 608 532 588 q 450 635 483 628 l 428 635 m 757 686 l 753 660 q 745 643 752 650 q 722 635 738 635 l 531 635 q 616 541 586 602 q 646 400 646 480 q 622 237 646 312 q 555 107 599 162 q 449 22 511 53 q 310 -9 387 -9 q 204 11 251 -9 q 124 69 157 31 q 73 160 91 106 q 56 283 56 215 q 81 445 56 371 q 154 573 106 519 q 273 656 203 626 q 435 686 344 686 l 757 686 z "},"ς":{"ha":587,"x_min":59,"x_max":578,"o":"m 558 600 q 551 593 555 596 q 542 591 548 591 q 526 600 536 591 q 498 621 515 610 q 455 642 481 633 q 390 651 428 651 q 281 626 330 651 q 198 558 232 601 q 144 454 163 514 q 126 325 126 394 q 143 224 126 265 q 190 155 160 183 q 259 108 219 127 q 344 73 299 90 q 410 44 384 58 q 450 14 435 30 q 471 -19 465 -1 q 476 -56 476 -36 q 457 -150 476 -108 q 408 -236 437 -193 l 360 -215 q 379 -183 369 -199 q 397 -150 389 -167 q 409 -114 404 -133 q 414 -74 414 -94 q 410 -48 414 -60 q 394 -24 406 -35 q 361 -1 382 -12 q 308 21 341 10 q 209 62 254 39 q 130 119 163 85 q 78 201 97 153 q 59 319 59 249 q 82 471 59 401 q 148 592 105 541 q 252 673 191 644 q 391 702 314 702 q 500 681 454 702 q 578 622 547 659 l 558 600 z "},"τ":{"ha":581,"x_min":49,"x_max":583,"o":"m 579 654 q 571 636 578 643 q 552 630 564 630 l 322 630 l 267 172 q 280 77 259 110 q 356 45 301 45 l 401 45 l 398 24 q 327 -3 394 -3 q 224 42 255 -3 q 202 169 192 88 l 258 630 l 49 630 l 53 658 q 60 674 54 668 q 78 681 67 681 l 583 681 l 579 654 z "},"υ":{"ha":701,"x_min":72,"x_max":619,"o":"m 613 691 q 615 644 614 669 q 617 595 616 619 q 619 548 618 571 q 619 508 619 526 q 591 268 619 367 q 517 107 563 169 q 413 17 472 45 q 293 -11 354 -11 q 193 7 236 -11 q 122 58 150 24 q 83 140 94 92 q 79 249 72 188 l 133 691 l 198 691 l 144 249 q 146 161 138 200 q 176 95 155 122 q 228 55 197 69 q 302 40 260 40 q 390 63 345 40 q 471 136 435 85 q 531 272 508 188 q 554 481 554 356 q 553 523 554 499 q 552 572 553 547 q 550 621 551 597 q 547 667 549 646 q 555 685 547 680 q 569 691 562 691 l 613 691 z "},"φ":{"ha":897,"x_min":56,"x_max":826,"o":"m 430 40 q 574 72 512 41 q 678 155 636 103 q 741 275 719 207 q 762 420 762 344 q 752 511 762 469 q 723 585 742 553 q 676 635 704 617 q 613 653 649 653 q 529 617 561 653 q 488 508 497 581 l 430 40 m 426 508 q 486 653 438 604 q 617 702 534 702 q 705 680 666 702 q 771 620 744 658 q 812 531 798 583 q 826 422 826 480 q 799 252 826 331 q 719 116 772 174 q 593 25 667 58 q 424 -9 518 -8 l 395 -244 l 334 -244 l 363 -9 q 230 17 287 -8 q 133 84 172 42 q 75 182 94 126 q 56 300 56 238 q 74 432 56 370 q 126 545 92 494 q 207 635 160 596 q 313 698 254 674 l 326 672 q 326 655 330 664 q 315 643 322 647 q 230 584 267 619 q 169 503 194 548 q 132 408 144 459 q 120 303 120 357 q 135 203 120 251 q 181 120 150 156 q 258 63 211 84 q 369 40 305 41 l 426 508 z "},"χ":{"ha":590,"x_min":-44,"x_max":581,"o":"m 421 -115 q 454 -182 434 -162 q 509 -202 474 -202 l 529 -202 l 526 -228 q 518 -246 525 -241 q 491 -251 511 -251 q 451 -246 470 -251 q 415 -229 432 -242 q 385 -194 399 -217 q 361 -136 372 -172 l 264 199 q 251 166 258 182 q 238 136 244 149 l 26 -226 q 16 -237 22 -232 q 0 -242 10 -242 l -44 -242 l 242 248 l 149 569 q 135 604 143 590 q 116 628 128 619 q 88 643 104 638 q 47 647 71 647 l 26 647 l 30 672 q 32 681 31 676 q 36 689 33 685 q 47 694 40 692 q 66 696 53 696 q 158 673 125 696 q 206 596 190 649 l 296 285 q 323 349 308 321 l 511 674 q 520 685 515 680 q 536 691 526 691 l 581 691 l 317 238 l 421 -115 z "},"ψ":{"ha":942,"x_min":76,"x_max":863,"o":"m 855 691 q 858 644 856 669 q 860 595 859 619 q 862 548 861 571 q 863 508 863 526 q 846 334 863 410 q 800 202 829 258 q 732 107 772 146 q 648 43 693 68 q 552 7 602 19 q 453 -8 502 -5 l 424 -244 l 359 -244 l 388 -8 q 250 17 311 -5 q 150 80 190 40 q 93 177 110 119 q 85 310 76 235 l 131 691 l 175 691 q 189 683 184 691 q 192 665 194 674 l 149 310 q 156 204 142 251 q 202 122 170 156 q 283 67 235 88 q 394 43 332 47 l 510 983 l 574 983 l 459 44 q 540 57 499 47 q 618 87 581 67 q 688 140 656 108 q 745 220 721 173 q 782 331 769 267 q 796 478 796 395 q 795 525 796 501 q 793 574 794 549 q 790 622 792 599 q 788 667 789 646 q 795 685 789 680 q 810 691 802 691 l 855 691 z "},"ω":{"ha":942,"x_min":56,"x_max":863,"o":"m 808 691 q 847 548 831 626 q 863 394 863 471 q 840 214 863 290 q 778 88 817 138 q 691 14 740 38 q 590 -11 642 -11 q 487 26 527 -11 q 436 135 447 63 q 358 26 407 63 q 247 -11 309 -11 q 173 7 208 -11 q 112 59 138 24 q 71 144 86 93 q 56 263 56 195 q 68 384 56 328 q 99 492 79 440 q 144 592 118 544 q 201 691 171 641 l 241 691 q 251 689 246 691 q 258 683 256 688 q 260 673 260 679 q 253 659 259 667 q 198 566 223 612 q 156 472 174 519 q 130 374 139 425 q 120 267 120 324 q 134 159 120 203 q 168 89 147 115 q 213 51 188 63 q 259 40 237 40 q 317 55 290 40 q 363 95 343 69 q 397 159 383 122 q 417 242 410 196 l 444 458 l 508 458 l 482 246 q 480 161 476 199 q 498 96 484 123 q 534 55 511 69 q 589 40 557 40 q 655 56 618 40 q 723 111 691 72 q 777 217 755 151 q 799 383 799 283 q 794 454 799 417 q 783 526 790 490 q 766 597 776 563 q 744 661 756 631 q 742 674 741 669 q 747 684 744 680 q 755 689 751 688 q 764 691 760 691 l 808 691 z "},"΄":{"ha":511,"x_min":326,"x_max":458,"o":"m 326 801 l 402 1022 l 441 1022 q 455 1013 452 1022 q 453 991 458 1004 l 365 801 l 326 801 z "},"΅":{"ha":511,"x_min":188,"x_max":576,"o":"m 326 803 l 401 1023 l 440 1023 q 455 1015 451 1023 q 452 992 458 1006 l 365 803 l 326 803 m 574 878 q 567 859 572 868 q 555 843 563 850 q 538 833 547 837 q 520 828 529 828 q 489 843 501 828 q 478 878 476 858 q 497 915 481 899 q 531 931 513 931 q 563 915 550 931 q 574 878 576 899 m 285 878 q 278 859 283 868 q 266 843 274 850 q 250 833 259 837 q 231 828 240 828 q 200 843 213 828 q 190 878 188 858 q 208 915 192 899 q 242 931 224 931 q 260 926 251 931 q 274 915 268 922 q 283 898 280 908 q 285 878 286 889 z "},"ʹ":{"ha":253,"x_min":128,"x_max":269,"o":"m 269 1042 q 264 962 269 1003 q 244 882 258 922 q 209 805 231 842 q 156 735 187 768 l 138 748 q 137 767 128 756 q 169 813 154 790 q 192 861 183 837 q 204 912 201 886 q 201 965 207 938 l 208 1021 q 214 1036 209 1030 q 230 1042 219 1042 l 269 1042 z "},"͵":{"ha":255,"x_min":33,"x_max":174,"o":"m 174 188 q 168 108 174 149 q 148 28 162 67 q 113 -49 135 -12 q 60 -119 91 -86 l 42 -106 q 41 -87 33 -99 q 73 -41 58 -65 q 97 7 88 -17 q 108 58 106 32 q 105 110 111 84 l 112 167 q 118 182 113 176 q 134 188 123 188 l 174 188 z "},"Б":{"ha":790,"x_min":85,"x_max":758,"o":"m 214 483 l 162 55 l 370 55 q 484 72 435 55 q 566 121 533 89 q 616 200 599 153 q 633 307 633 247 q 581 438 633 393 q 423 483 529 483 l 214 483 m 269 928 l 221 538 l 431 538 q 550 522 499 538 q 635 477 601 506 q 686 408 669 449 q 703 315 703 367 q 680 184 703 242 q 613 85 657 126 q 506 22 569 44 q 363 0 443 0 l 85 0 l 206 983 l 758 983 l 751 928 l 269 928 z "},"Г":{"ha":693,"x_min":85,"x_max":737,"o":"m 730 927 l 269 927 l 155 0 l 85 0 l 206 983 l 737 983 l 730 927 z "},"Ґ":{"ha":693,"x_min":85,"x_max":765,"o":"m 730 927 l 269 927 l 155 0 l 85 0 l 206 983 l 682 983 l 710 1209 l 765 1209 l 730 927 z "},"Д":{"ha":974,"x_min":-69,"x_max":899,"o":"m 673 56 l 780 927 l 421 927 q 375 679 398 790 q 330 479 353 568 q 283 321 306 390 q 236 201 260 253 q 189 115 213 150 q 140 56 165 79 l 673 56 m 865 -224 q 856 -240 863 -234 q 839 -247 849 -247 l 799 -247 l 829 0 l 24 0 l -3 -224 q -11 -240 -4 -234 q -29 -247 -19 -247 l -69 -247 l -32 56 l 52 56 q 101 91 76 66 q 152 161 126 115 q 203 277 177 207 q 255 446 229 347 q 308 678 281 546 q 362 983 335 811 l 856 983 l 742 56 l 899 56 l 865 -224 z "},"Ж":{"ha":1289,"x_min":-26,"x_max":1319,"o":"m 969 572 q 928 531 949 547 q 879 508 908 515 q 927 483 908 500 q 962 438 947 466 l 1214 0 l 1169 0 q 1142 7 1153 0 q 1126 26 1131 14 l 893 421 q 858 461 878 447 q 800 474 837 474 l 685 474 l 626 0 l 561 0 l 619 474 l 505 474 q 443 461 467 474 q 398 421 419 447 l 69 26 q 48 7 60 14 q 20 0 35 0 l -26 0 l 333 438 q 379 483 356 466 q 433 508 403 500 q 390 531 407 515 q 358 572 373 547 l 110 983 l 163 983 q 184 976 175 983 q 199 960 194 970 l 428 579 q 469 538 447 547 q 524 528 492 528 l 626 528 l 681 983 l 747 983 l 691 528 l 794 528 q 824 530 810 528 q 850 538 838 532 q 876 553 863 543 q 902 579 889 563 l 1225 960 q 1243 976 1233 970 q 1265 983 1253 983 l 1319 983 l 969 572 z "},"З":{"ha":733,"x_min":6,"x_max":666,"o":"m 140 893 q 265 967 198 942 q 415 992 332 992 q 522 975 475 992 q 601 930 569 959 q 649 861 633 901 q 666 775 666 822 q 651 687 666 727 q 610 615 636 647 q 549 562 584 584 q 474 528 514 540 q 544 495 513 517 q 596 446 575 474 q 627 384 617 418 q 638 311 638 349 q 615 187 638 245 q 547 85 591 128 q 438 16 502 41 q 292 -10 373 -10 q 123 25 192 -10 q 6 119 53 59 l 28 148 q 37 156 33 153 q 48 158 42 158 q 64 150 55 158 q 85 130 72 142 q 117 103 99 117 q 160 77 135 89 q 219 56 185 65 q 295 48 252 48 q 412 68 360 48 q 499 123 463 88 q 553 205 535 158 q 572 308 572 253 q 559 383 572 349 q 521 444 547 418 q 457 484 495 469 q 369 499 419 499 l 251 499 l 258 557 l 378 557 q 461 571 421 557 q 531 612 501 585 q 581 678 562 639 q 599 767 599 717 q 587 834 599 803 q 550 887 574 865 q 490 922 526 910 q 408 935 454 935 q 308 922 349 935 q 239 893 267 908 q 194 864 210 877 q 168 851 177 851 q 152 863 158 851 l 140 893 z "},"И":{"ha":974,"x_min":85,"x_max":907,"o":"m 907 983 l 786 0 l 717 0 l 815 801 q 821 847 817 824 q 831 894 825 869 q 808 855 819 873 q 786 822 797 838 l 171 22 q 155 6 165 13 q 134 0 146 0 l 85 0 l 206 983 l 276 983 l 177 181 q 171 136 175 159 q 162 89 167 113 q 184 127 173 110 q 206 160 195 145 l 822 961 q 838 977 828 971 q 856 983 847 983 l 907 983 z "},"К":{"ha":826,"x_min":85,"x_max":852,"o":"m 494 566 q 455 529 475 543 q 408 507 434 515 q 455 485 437 501 q 488 440 472 469 l 756 0 l 696 0 q 675 6 683 0 q 660 26 667 13 l 415 426 q 400 448 408 438 q 383 463 393 457 q 361 472 374 469 q 330 474 348 474 l 213 474 l 155 0 l 85 0 l 206 983 l 275 983 l 219 528 l 324 528 q 353 530 340 528 q 378 538 366 532 q 402 553 390 543 q 428 578 415 563 l 756 960 q 773 976 763 970 q 795 983 783 983 l 852 983 l 494 566 z "},"Л":{"ha":910,"x_min":-53,"x_max":843,"o":"m 722 0 l 652 0 l 766 927 l 407 927 q 343 586 375 732 q 279 337 311 441 q 213 166 247 233 q 145 60 180 99 q 74 7 110 22 q -1 -8 38 -8 q -37 -4 -22 -8 q -51 8 -53 0 l -46 51 l -7 51 q 51 65 22 51 q 109 117 81 79 q 167 221 138 155 q 226 391 197 288 q 286 640 256 494 q 348 983 317 785 l 843 983 l 722 0 z "},"Љ":{"ha":1339,"x_min":-53,"x_max":1273,"o":"m 940 55 q 1054 72 1005 55 q 1137 121 1103 89 q 1187 200 1170 153 q 1204 307 1204 247 q 1152 438 1204 393 q 994 483 1100 483 l 781 483 l 729 55 l 940 55 m 1001 538 q 1120 522 1069 538 q 1206 477 1172 506 q 1256 408 1240 449 q 1273 315 1273 367 q 1250 184 1273 242 q 1183 85 1227 126 q 1076 22 1140 44 q 933 0 1013 0 l 652 0 l 766 927 l 407 927 q 343 586 375 732 q 279 337 311 441 q 213 166 247 233 q 145 60 180 99 q 74 7 110 22 q -1 -8 38 -8 q -37 -4 -22 -8 q -51 8 -53 0 l -46 51 l -7 51 q 51 65 22 51 q 109 117 81 79 q 167 221 138 155 q 226 391 197 288 q 286 640 256 494 q 348 983 317 785 l 843 983 l 788 538 l 1001 538 z "},"Њ":{"ha":1397,"x_min":86,"x_max":1330,"o":"m 997 55 q 1111 72 1062 55 q 1194 121 1160 89 q 1244 200 1227 153 q 1261 307 1261 247 q 1209 438 1261 393 q 1051 483 1157 483 l 845 483 l 793 55 l 997 55 m 1058 538 q 1177 522 1126 538 q 1263 477 1228 506 q 1313 408 1297 449 q 1330 315 1330 367 q 1307 184 1330 242 q 1240 85 1284 126 q 1133 22 1197 44 q 990 0 1070 0 l 717 0 l 774 472 l 213 472 l 156 0 l 86 0 l 207 983 l 276 983 l 220 524 l 781 524 l 838 983 l 907 983 l 852 538 l 1058 538 z "},"Ѳ":{"ha":1023,"x_min":83,"x_max":959,"o":"m 155 476 q 153 418 153 448 q 175 264 153 333 q 238 148 197 196 q 337 74 279 100 q 466 48 394 48 q 620 77 549 48 q 745 162 691 107 q 836 297 800 217 q 883 476 872 376 l 155 476 m 887 530 q 888 548 888 539 q 888 565 888 556 q 866 719 888 651 q 803 836 844 788 q 704 910 762 884 q 574 936 646 936 q 426 908 495 936 q 303 827 357 880 q 212 700 249 775 q 161 530 175 624 l 887 530 m 582 994 q 739 963 669 994 q 857 876 808 932 q 933 741 906 819 q 959 567 959 662 q 921 331 959 437 q 816 149 883 224 q 657 31 749 73 q 458 -10 565 -10 q 303 20 372 -10 q 184 108 233 51 q 109 242 135 164 q 83 416 83 321 q 121 652 83 545 q 226 834 159 758 q 384 952 293 910 q 582 994 476 994 z "},"П":{"ha":934,"x_min":85,"x_max":867,"o":"m 746 0 l 676 0 l 790 927 l 269 927 l 155 0 l 85 0 l 206 983 l 867 983 l 746 0 z "},"У":{"ha":779,"x_min":88,"x_max":826,"o":"m 826 983 l 349 117 q 310 58 330 82 q 269 19 290 34 q 224 -2 247 5 q 175 -8 201 -8 q 134 -3 149 -8 q 121 14 119 2 l 125 51 l 165 51 q 237 73 206 51 q 296 145 268 94 l 367 275 l 88 983 l 151 983 q 166 978 160 983 q 174 965 171 974 l 383 404 q 394 367 390 386 q 403 330 399 349 q 438 404 418 367 l 740 965 q 751 978 744 973 q 767 983 758 983 l 826 983 z "},"Ѵ":{"ha":876,"x_min":86,"x_max":923,"o":"m 727 876 q 790 958 751 931 q 876 985 828 985 q 915 980 907 985 q 922 964 923 976 l 917 928 l 883 928 q 830 908 856 928 q 788 852 805 888 l 401 0 l 339 0 l 86 983 l 139 983 q 155 977 149 983 q 162 965 160 972 l 366 144 q 373 113 369 130 q 378 78 376 97 q 391 113 385 97 q 406 144 398 130 l 727 876 z "},"Ф":{"ha":978,"x_min":74,"x_max":927,"o":"m 492 176 q 639 208 572 176 q 755 291 706 239 q 831 414 803 344 q 858 561 858 483 q 839 676 858 622 q 784 772 819 731 q 695 838 748 813 q 576 863 643 863 l 492 176 m 510 863 q 362 831 429 863 q 247 748 295 800 q 172 626 199 695 q 144 478 144 556 q 164 363 144 417 q 218 267 183 308 q 307 201 254 226 q 426 176 359 176 l 510 863 m 583 917 q 729 887 665 916 q 837 810 793 858 q 904 698 881 761 q 927 564 927 634 q 895 394 927 474 q 804 255 863 315 q 665 159 746 194 q 485 122 583 123 l 470 0 l 404 0 l 419 122 q 273 151 337 122 q 165 228 209 180 q 98 341 121 277 q 74 476 74 405 q 107 645 74 565 q 199 784 140 724 q 340 880 258 844 q 517 917 421 916 l 531 1032 l 597 1032 l 583 917 z "},"Ц":{"ha":978,"x_min":85,"x_max":901,"o":"m 901 56 l 867 -224 q 858 -240 865 -234 q 841 -247 851 -247 l 801 -247 l 831 0 l 85 0 l 206 983 l 276 983 l 162 56 l 683 56 l 797 983 l 867 983 l 753 56 l 901 56 z "},"Џ":{"ha":934,"x_min":85,"x_max":867,"o":"m 867 983 l 746 0 l 447 0 l 420 -224 q 411 -240 419 -234 q 394 -247 404 -247 l 353 -247 l 384 0 l 85 0 l 206 983 l 276 983 l 162 56 l 683 56 l 797 983 l 867 983 z "},"Ч":{"ha":829,"x_min":91,"x_max":762,"o":"m 762 983 l 641 0 l 572 0 l 629 467 q 484 430 555 444 q 352 413 414 415 q 239 421 290 410 q 155 462 189 433 q 106 542 121 492 q 101 666 91 592 l 139 983 l 209 983 l 169 666 q 188 536 159 582 q 277 474 216 490 q 428 472 338 459 q 635 519 519 485 l 692 983 l 762 983 z "},"Ш":{"ha":1372,"x_min":85,"x_max":1304,"o":"m 1304 983 l 1183 0 l 85 0 l 206 983 l 276 983 l 162 56 l 604 56 l 718 983 l 788 983 l 674 56 l 1121 56 l 1234 983 l 1304 983 z "},"Щ":{"ha":1417,"x_min":85,"x_max":1338,"o":"m 1338 56 l 1304 -224 q 1296 -240 1303 -234 q 1278 -247 1289 -247 l 1238 -247 l 1269 0 l 85 0 l 206 983 l 276 983 l 162 56 l 604 56 l 718 983 l 788 983 l 674 56 l 1121 56 l 1234 983 l 1304 983 l 1190 56 l 1338 56 z "},"Ъ":{"ha":915,"x_min":75,"x_max":849,"o":"m 517 55 q 630 72 581 55 q 713 121 679 89 q 763 200 746 153 q 780 307 780 247 q 728 438 780 393 q 569 483 676 483 l 360 483 l 308 55 l 517 55 m 577 538 q 697 522 646 538 q 782 477 748 506 q 833 408 816 449 q 849 315 849 367 q 826 184 849 242 q 760 85 803 126 q 653 22 716 44 q 510 0 590 0 l 232 0 l 346 926 l 75 926 l 82 983 l 422 983 l 367 538 l 577 538 z "},"Ы":{"ha":1107,"x_min":85,"x_max":1040,"o":"m 370 55 q 484 72 435 55 q 566 121 533 89 q 616 200 599 153 q 633 307 633 247 q 581 438 633 393 q 423 483 529 483 l 214 483 l 162 55 l 370 55 m 431 538 q 550 522 499 538 q 635 477 601 506 q 686 408 669 449 q 703 315 703 367 q 680 184 703 242 q 613 85 657 126 q 506 22 569 44 q 363 0 443 0 l 85 0 l 206 983 l 275 983 l 221 538 l 431 538 m 919 0 l 850 0 l 970 983 l 1040 983 l 919 0 z "},"Ь":{"ha":769,"x_min":85,"x_max":703,"o":"m 370 55 q 484 72 435 55 q 566 121 533 89 q 616 200 599 153 q 633 307 633 247 q 581 438 633 393 q 423 483 529 483 l 214 483 l 162 55 l 370 55 m 431 538 q 550 522 499 538 q 635 477 601 506 q 686 408 669 449 q 703 315 703 367 q 680 184 703 242 q 613 85 657 126 q 506 22 569 44 q 363 0 443 0 l 85 0 l 206 983 l 275 983 l 221 538 l 431 538 z "},"Э":{"ha":881,"x_min":17,"x_max":817,"o":"m 126 875 q 268 963 192 932 q 438 994 344 994 q 597 962 526 994 q 716 874 667 931 q 791 738 765 817 q 817 565 817 659 q 780 329 817 435 q 677 148 742 223 q 521 31 611 72 q 326 -11 431 -11 q 224 -1 269 -11 q 141 27 178 9 q 73 72 103 46 q 17 130 42 98 l 48 159 q 60 164 53 164 q 72 157 67 164 q 122 110 96 130 q 178 76 148 90 q 245 55 208 62 q 328 48 282 48 q 475 77 405 48 q 600 161 544 106 q 692 296 655 217 q 741 476 729 376 l 240 476 l 246 530 l 745 530 q 746 546 746 538 q 746 563 746 554 q 724 716 746 647 q 660 833 701 785 q 561 908 619 882 q 431 935 503 935 q 320 919 367 935 q 239 886 272 904 q 185 853 206 868 q 158 838 165 838 q 142 846 147 838 l 126 875 z "},"Є":{"ha":883,"x_min":83,"x_max":868,"o":"m 793 131 q 725 72 761 98 q 647 27 689 46 q 557 -1 605 9 q 453 -11 509 -11 q 300 20 368 -11 q 183 107 231 51 q 109 241 135 163 q 83 415 83 319 q 100 577 83 501 q 149 718 117 653 q 226 833 181 782 q 327 920 271 884 q 447 975 383 956 q 583 994 512 994 q 746 963 676 994 q 868 874 816 931 l 843 844 q 826 836 837 836 q 802 851 818 836 q 757 885 786 867 q 684 919 728 903 q 576 934 640 934 q 430 906 499 934 q 306 826 361 878 q 214 699 251 774 q 162 530 176 624 l 663 530 l 657 476 l 156 476 q 153 421 153 449 q 176 265 153 334 q 240 148 199 197 q 338 74 281 99 q 463 48 395 48 q 546 55 508 48 q 618 75 584 62 q 683 109 652 89 q 744 158 714 130 q 758 164 751 163 q 769 159 764 165 l 793 131 l 793 131 z "},"Ю":{"ha":1333,"x_min":86,"x_max":1267,"o":"m 811 49 q 964 85 894 49 q 1086 189 1035 122 q 1167 354 1138 257 q 1197 572 1197 451 q 1177 723 1197 656 q 1122 837 1158 790 q 1035 910 1086 885 q 920 936 984 936 q 767 899 838 936 q 644 794 696 863 q 563 628 592 726 q 534 410 534 531 q 553 260 534 327 q 608 146 572 193 q 696 74 644 99 q 811 49 747 49 m 471 521 q 525 715 485 628 q 625 865 565 803 q 762 960 685 926 q 927 994 839 994 q 1068 963 1006 994 q 1175 877 1131 933 q 1243 744 1219 822 q 1267 573 1267 667 q 1251 408 1267 485 q 1205 267 1235 331 q 1134 151 1176 202 q 1041 64 1092 100 q 930 10 990 28 q 804 -9 870 -9 q 663 21 726 -9 q 555 106 599 51 q 488 238 511 161 q 464 409 464 315 q 466 465 464 438 l 213 465 l 156 0 l 86 0 l 206 983 l 276 983 l 219 521 l 471 521 z "},"Я":{"ha":838,"x_min":-43,"x_max":769,"o":"m 694 927 l 483 927 q 288 864 354 927 q 221 681 221 801 q 273 547 221 594 q 430 500 324 500 l 642 500 l 694 927 m 649 0 l 580 0 l 635 445 l 476 445 q 441 442 458 445 q 409 431 425 439 q 376 407 393 422 q 340 369 359 392 l 58 26 q 37 7 49 14 q 9 0 24 0 l -43 0 l 267 376 q 316 426 292 407 q 365 455 340 444 q 205 527 258 468 q 152 678 152 586 q 175 805 152 749 q 241 901 198 862 q 348 961 285 940 q 490 983 410 983 l 769 983 l 649 0 z "},"Ђ":{"ha":933,"x_min":81,"x_max":869,"o":"m 597 538 q 717 522 665 538 q 802 477 768 506 q 853 408 836 449 q 869 315 869 367 q 847 184 869 242 q 780 85 824 126 q 673 22 736 44 q 530 0 610 0 l 462 0 l 468 55 l 537 55 q 650 72 601 55 q 733 121 699 89 q 783 200 766 153 q 800 307 800 247 q 748 438 800 393 q 590 483 696 483 l 365 483 l 305 0 l 236 0 l 349 926 l 81 926 l 88 983 l 741 983 l 734 926 l 419 926 l 371 538 l 597 538 z "},"Ћ":{"ha":942,"x_min":81,"x_max":872,"o":"m 372 533 q 513 570 445 556 q 638 588 581 585 q 742 579 696 590 q 817 538 788 567 q 859 458 847 508 q 863 334 872 408 l 822 0 l 752 0 l 793 334 q 779 465 803 418 q 699 526 755 511 q 559 529 644 542 q 365 482 475 516 l 306 0 l 237 0 l 350 926 l 81 926 l 88 983 l 742 983 l 735 926 l 419 926 l 372 533 z "},"Ѣ":{"ha":915,"x_min":82,"x_max":848,"o":"m 515 55 q 629 72 580 55 q 711 121 678 89 q 761 200 744 153 q 778 307 778 247 q 726 438 778 393 q 568 483 674 483 l 359 483 l 307 55 l 515 55 m 576 538 q 695 522 644 538 q 781 477 747 506 q 831 408 815 449 q 848 315 848 367 q 825 184 848 242 q 758 85 802 126 q 651 22 715 44 q 508 0 588 0 l 231 0 l 324 758 l 82 758 l 89 811 l 331 811 l 351 983 l 420 983 l 399 811 l 697 811 l 690 758 l 393 758 l 366 538 l 576 538 z "},"б":{"ha":737,"x_min":88,"x_max":714,"o":"m 442 640 q 327 610 381 640 q 235 531 274 580 q 174 418 197 482 q 152 287 152 354 q 198 103 152 165 q 325 41 244 41 q 402 57 366 41 q 470 100 439 72 q 525 165 501 128 q 567 246 549 203 q 593 336 584 289 q 602 430 602 383 q 591 520 602 481 q 558 585 579 559 q 508 626 538 612 q 442 640 478 640 m 714 1024 l 714 992 q 690 962 714 967 l 509 933 q 384 895 438 922 q 292 831 331 868 q 226 748 253 794 q 183 652 200 702 q 158 549 167 601 q 144 446 149 497 q 198 547 165 502 q 273 623 231 592 q 363 671 315 654 q 463 688 411 688 q 543 672 506 688 q 608 625 581 656 q 651 546 635 594 q 667 435 667 499 q 656 327 667 381 q 624 224 645 274 q 572 132 603 175 q 503 58 542 90 q 419 9 465 27 q 322 -9 374 -9 q 232 8 274 -9 q 157 63 190 24 q 106 165 125 101 q 88 322 88 228 q 93 449 88 381 q 114 586 98 517 q 157 720 129 655 q 230 840 185 786 q 340 933 275 894 q 494 986 405 971 l 714 1024 z "},"в":{"ha":650,"x_min":50,"x_max":570,"o":"m 119 316 q 115 254 115 285 q 126 169 115 208 q 159 101 137 130 q 213 57 181 73 q 290 41 246 41 q 370 57 332 42 q 437 98 408 72 q 483 159 466 124 q 500 231 500 193 q 489 288 500 262 q 453 332 478 315 q 386 354 428 349 q 285 348 345 359 l 119 316 m 269 388 q 397 422 349 402 q 471 464 445 442 q 506 510 497 487 q 515 557 515 534 q 509 590 515 573 q 490 621 503 607 q 454 644 476 635 q 399 653 432 653 q 301 630 346 653 q 222 565 257 606 q 163 471 187 524 q 126 359 138 418 l 269 388 m 381 383 q 514 344 467 384 q 561 232 561 305 q 539 140 561 184 q 480 63 517 97 q 392 10 442 30 q 283 -10 341 -10 q 182 10 226 -10 q 109 64 139 29 q 65 145 80 98 q 50 247 50 192 q 61 357 50 302 q 95 463 73 413 q 148 557 117 513 q 219 632 180 600 q 306 682 259 664 q 406 700 353 700 q 481 688 450 700 q 532 657 513 676 q 561 615 552 638 q 570 567 570 591 q 561 514 570 540 q 529 464 551 488 q 470 419 507 440 q 381 383 434 398 z "},"г":{"ha":560,"x_min":26,"x_max":497,"o":"m 319 701 q 387 693 355 701 q 444 667 419 684 q 482 625 468 650 q 497 567 497 600 q 479 502 497 532 q 433 444 462 472 q 368 393 405 417 q 294 345 332 369 q 219 299 256 322 q 154 251 183 276 q 108 201 126 227 q 91 146 91 175 q 102 105 91 124 q 132 72 113 85 q 178 51 151 58 q 238 43 206 43 q 311 53 277 43 q 372 77 345 64 q 416 100 398 90 q 441 110 433 110 q 460 99 453 110 l 473 79 q 358 14 422 38 q 228 -9 294 -9 q 144 3 181 -9 q 80 35 106 15 q 40 83 54 56 q 26 141 26 110 q 44 208 26 176 q 90 267 61 239 q 155 319 119 294 q 230 368 192 344 q 305 415 268 392 q 370 461 341 438 q 416 510 399 485 q 433 563 433 535 q 401 625 433 600 q 310 649 368 649 q 243 640 274 649 q 188 618 212 630 q 148 597 164 607 q 124 586 132 587 q 117 588 121 586 q 110 595 113 590 l 97 621 q 145 655 118 640 q 201 680 172 669 q 260 696 230 690 q 319 701 290 701 z "},"ґ":{"ha":508,"x_min":-25,"x_max":558,"o":"m 513 644 l 513 643 l 387 643 q 285 596 323 643 q 229 447 247 549 l 181 172 q 13 -5 150 -5 q -16 -1 -8 -5 q -24 11 -25 3 l -19 47 l 0 47 q 76 78 46 47 q 119 174 107 109 l 166 444 q 195 554 177 508 q 240 631 214 601 q 302 676 267 662 q 383 691 338 691 l 466 691 l 498 833 q 510 860 502 852 q 533 869 519 869 l 558 869 l 513 644 z "},"д":{"ha":715,"x_min":54,"x_max":637,"o":"m 290 44 q 394 74 343 44 q 484 166 444 104 q 548 322 524 227 q 572 547 572 417 q 503 621 548 592 q 398 649 459 649 q 316 634 354 649 q 248 593 278 619 q 193 531 217 567 q 152 453 169 494 q 128 365 136 411 q 119 272 119 319 q 132 173 119 215 q 168 101 145 130 q 221 59 190 73 q 290 44 252 44 m 192 989 q 384 975 301 998 q 523 899 467 953 q 608 757 579 844 q 637 550 637 670 q 607 306 637 410 q 528 131 577 201 q 414 26 478 61 q 281 -8 350 -8 q 188 11 230 -8 q 117 66 147 30 q 70 155 87 103 q 54 274 54 208 q 65 377 54 326 q 95 476 75 429 q 143 564 115 523 q 209 634 172 604 q 291 682 246 665 q 387 699 335 699 q 498 672 450 699 q 577 595 547 646 q 476 866 567 781 q 203 942 385 951 q 189 959 185 942 l 192 989 z "},"ж":{"ha":1201,"x_min":6,"x_max":1177,"o":"m 606 204 q 665 308 630 252 q 740 418 699 363 q 824 525 780 474 q 911 615 867 576 q 995 677 954 654 q 1069 701 1035 701 q 1123 692 1098 701 q 1177 664 1149 684 l 1162 638 q 1154 630 1158 633 q 1146 627 1150 628 q 1135 630 1142 626 q 1118 637 1128 633 q 1097 644 1109 641 q 1067 648 1084 648 q 989 615 1026 648 q 924 526 952 583 q 878 394 895 469 q 862 232 862 318 q 868 145 862 181 q 886 87 874 110 q 917 54 899 65 q 960 44 935 44 q 1003 51 985 44 q 1036 68 1022 59 q 1058 85 1049 78 q 1072 94 1067 93 q 1087 88 1081 95 l 1101 63 q 1063 29 1083 42 q 1023 7 1043 15 q 984 -5 1003 -1 q 949 -8 965 -8 q 843 44 881 -8 q 805 208 805 97 q 825 385 805 301 q 881 533 845 468 q 804 442 844 494 q 725 332 764 391 q 652 209 687 274 q 593 81 618 145 l 585 -1 l 528 -1 l 578 491 q 519 387 553 442 q 444 276 485 331 q 360 169 404 220 q 272 78 316 117 q 188 15 228 39 q 114 -8 147 -8 q 59 0 85 -8 q 6 28 34 8 l 21 54 q 36 65 28 65 q 48 63 41 66 q 64 56 54 60 q 86 49 74 52 q 115 45 99 45 q 193 78 156 45 q 259 167 231 110 q 304 299 288 224 q 321 461 321 375 q 315 548 321 512 q 296 606 308 583 q 266 639 284 628 q 223 649 247 649 q 179 642 198 649 q 146 625 160 634 q 124 608 133 615 q 111 599 115 600 q 95 605 100 598 l 82 630 q 120 664 100 651 q 159 686 140 678 q 198 697 179 694 q 234 701 217 701 q 340 649 301 701 q 378 484 378 597 q 358 308 378 391 q 301 160 338 226 q 380 251 339 200 q 459 362 420 303 q 532 486 497 422 q 591 616 566 551 l 599 692 l 656 692 l 606 204 z "},"з":{"ha":588,"x_min":2,"x_max":515,"o":"m 94 607 q 136 644 112 627 q 191 675 160 662 q 256 695 221 688 q 328 702 290 702 q 413 689 378 702 q 471 655 449 676 q 504 607 494 634 q 515 553 515 581 q 506 500 515 527 q 478 449 497 473 q 428 405 459 424 q 351 377 397 386 q 415 358 388 372 q 460 324 442 344 q 487 278 478 303 q 496 224 496 253 q 476 137 496 178 q 421 63 457 95 q 333 10 385 30 q 217 -9 281 -9 q 150 -2 181 -9 q 91 15 118 4 q 41 41 63 26 q 2 73 19 56 l 17 98 q 24 105 20 101 q 33 108 28 108 q 55 97 42 108 q 90 74 69 87 q 142 51 111 62 q 218 41 174 41 q 308 56 268 41 q 376 95 348 70 q 419 155 404 121 q 435 226 435 188 q 392 320 435 287 q 265 353 349 353 q 223 351 244 353 q 177 347 201 349 q 178 372 177 360 q 184 398 179 385 q 222 395 203 397 q 261 394 241 394 q 344 405 308 393 q 405 436 380 416 q 442 484 429 456 q 455 542 455 511 q 448 582 455 563 q 425 617 441 602 q 382 642 408 633 q 317 651 356 651 q 234 640 268 651 q 177 615 200 628 q 142 590 155 601 q 122 578 129 578 q 115 578 118 577 q 108 585 113 580 l 94 607 z "},"и":{"ha":717,"x_min":65,"x_max":642,"o":"m 642 691 l 559 0 l 528 0 q 509 7 515 0 q 503 26 503 14 l 524 222 q 462 124 496 167 q 390 52 428 81 q 311 7 352 22 q 231 -9 271 -9 q 103 59 142 -9 q 81 251 65 128 l 133 691 l 198 691 l 146 251 q 159 99 134 152 q 253 46 184 46 q 330 65 291 46 q 406 121 369 85 q 476 209 443 158 q 533 324 508 260 l 577 691 l 642 691 z "},"к":{"ha":628,"x_min":56,"x_max":623,"o":"m 467 609 q 524 671 496 649 q 594 693 553 693 l 623 693 l 617 660 q 606 647 615 650 q 584 640 597 644 q 557 628 572 636 q 527 600 542 620 l 392 427 q 374 404 383 414 q 354 386 365 394 q 332 373 344 378 q 304 364 319 367 q 362 337 339 357 q 401 283 385 317 l 553 0 l 515 0 q 489 6 498 0 q 474 23 479 12 l 340 269 q 301 317 325 298 q 244 336 277 336 l 158 322 l 119 0 l 56 0 l 140 691 l 203 691 l 164 367 l 247 382 q 294 399 276 388 q 331 433 313 411 l 467 609 z "},"л":{"ha":735,"x_min":-13,"x_max":662,"o":"m 208 363 q 261 515 231 452 q 335 616 292 577 q 437 673 378 656 q 578 691 496 691 l 662 691 l 577 0 l 514 0 l 592 640 l 565 640 q 455 625 501 640 q 375 577 409 610 q 316 491 341 544 q 271 360 292 438 q 218 186 244 256 q 163 72 192 115 q 100 10 134 28 q 25 -8 67 -8 q -5 -5 4 -8 q -12 8 -13 -1 l -8 44 l 15 44 q 75 61 49 44 q 123 118 101 79 q 165 217 144 156 q 208 363 185 277 z "},"љ":{"ha":1090,"x_min":-13,"x_max":1026,"o":"m 610 140 q 615 100 608 119 q 637 68 622 82 q 676 47 652 55 q 731 39 699 39 q 817 60 775 39 q 892 115 860 81 q 944 193 924 149 q 964 284 964 238 q 958 332 964 309 q 939 373 952 355 q 904 401 926 390 q 852 411 883 411 q 773 391 813 411 q 700 338 733 371 q 643 265 667 306 q 615 181 619 224 l 610 140 m 629 301 q 677 363 649 334 q 736 413 704 392 q 802 447 767 434 q 870 459 836 459 q 937 447 908 459 q 986 411 966 434 q 1016 358 1006 389 q 1026 292 1026 328 q 1000 179 1026 233 q 931 83 974 124 q 831 16 888 41 q 713 -9 774 -9 q 635 3 668 -9 q 581 35 602 15 q 551 84 560 56 q 547 144 542 112 l 607 640 l 579 640 q 467 625 515 640 q 382 577 419 610 q 318 491 345 544 q 271 360 292 438 q 218 186 244 256 q 163 72 192 115 q 100 10 134 28 q 25 -8 67 -8 q -5 -5 4 -8 q -12 8 -13 -1 l -8 44 l 15 44 q 75 61 49 44 q 123 118 101 79 q 165 217 144 156 q 208 363 185 277 q 264 515 231 452 q 342 616 296 577 q 449 673 388 656 q 592 691 510 691 l 677 691 l 629 301 z "},"м":{"ha":940,"x_min":16,"x_max":867,"o":"m 867 694 l 782 0 l 723 0 l 793 567 q 801 606 795 585 l 453 41 q 443 31 449 35 q 431 26 438 26 l 422 26 q 411 31 415 26 q 404 41 407 35 l 219 608 q 217 585 218 597 q 213 564 215 573 q 157 286 188 419 q 83 22 126 152 q 72 6 80 13 q 53 0 65 0 l 16 0 q 68 169 44 87 q 112 335 92 251 q 151 507 133 419 q 186 694 169 595 l 234 694 q 247 692 241 694 q 257 680 253 690 l 435 148 q 444 113 441 130 q 458 140 449 125 l 791 680 q 803 692 797 689 q 817 694 810 694 l 867 694 z "},"н":{"ha":713,"x_min":56,"x_max":639,"o":"m 639 691 l 556 0 l 490 0 l 531 340 l 163 340 l 122 0 l 56 0 l 140 691 l 205 691 l 169 390 l 538 390 l 574 691 l 639 691 z "},"њ":{"ha":1050,"x_min":56,"x_max":985,"o":"m 570 140 q 574 100 567 119 q 597 68 581 82 q 635 47 612 55 q 690 39 659 39 q 777 60 735 39 q 852 115 819 81 q 904 193 884 149 q 924 284 924 238 q 918 332 924 309 q 899 373 912 355 q 864 401 885 390 q 812 411 842 411 q 733 391 773 411 q 660 338 693 371 q 603 265 626 306 q 574 181 579 224 l 570 140 m 589 301 q 636 363 609 334 q 695 413 664 392 q 761 447 727 434 q 830 459 796 459 q 897 447 868 459 q 945 411 926 434 q 975 358 965 389 q 985 292 985 328 q 959 179 985 233 q 890 83 933 124 q 791 16 847 41 q 673 -9 734 -9 q 595 3 628 -9 q 541 35 562 15 q 511 84 519 56 q 506 144 502 112 l 531 345 l 163 345 l 122 0 l 56 0 l 140 691 l 205 691 l 169 395 l 537 395 l 573 691 l 637 691 l 589 301 z "},"ѳ":{"ha":713,"x_min":54,"x_max":642,"o":"m 120 324 q 118 274 118 299 q 168 101 118 163 q 306 40 217 40 q 400 62 357 40 q 477 124 444 85 q 534 214 511 163 q 568 324 558 266 l 120 324 m 574 369 q 576 394 576 381 q 577 419 577 407 q 528 591 577 531 q 390 652 478 652 q 295 630 338 652 q 218 568 251 607 q 161 478 184 530 q 126 369 138 427 l 574 369 m 395 701 q 496 682 451 701 q 574 625 542 662 q 624 536 606 589 q 642 419 642 484 q 616 258 642 335 q 546 121 591 181 q 438 26 501 62 q 301 -9 376 -9 q 200 10 245 -9 q 122 67 154 30 q 72 156 90 103 q 54 275 54 208 q 79 436 54 359 q 150 572 104 513 q 258 666 195 631 q 395 701 320 701 z "},"п":{"ha":717,"x_min":57,"x_max":626,"o":"m 174 469 q 236 567 202 524 q 309 640 271 610 q 388 686 347 670 q 469 701 428 701 q 545 684 513 701 q 595 633 576 667 q 620 552 615 600 q 619 442 626 503 l 567 0 l 501 0 l 553 442 q 540 593 565 540 q 447 646 515 646 q 368 626 408 646 q 292 570 329 606 q 222 482 255 533 q 165 365 190 430 l 122 0 l 57 0 l 140 693 l 169 693 q 194 668 194 693 l 174 469 z "},"т":{"ha":1083,"x_min":56,"x_max":992,"o":"m 56 0 l 140 693 l 169 693 q 194 668 194 693 l 174 475 q 299 642 228 583 q 449 701 370 701 q 515 687 489 701 q 556 644 542 672 q 575 575 571 616 q 575 481 579 534 q 634 578 602 537 q 702 647 667 619 q 776 688 738 674 q 850 701 813 701 q 925 684 895 701 q 970 633 954 667 q 989 552 986 600 q 985 442 992 503 l 933 0 l 868 0 l 920 442 q 925 529 926 491 q 914 593 924 567 q 884 633 904 619 q 829 646 863 646 q 760 630 795 646 q 691 583 725 615 q 627 505 658 552 q 573 394 597 458 l 526 0 l 462 0 l 514 442 q 520 529 520 491 q 511 593 520 567 q 482 633 502 619 q 428 646 463 646 q 282 574 349 646 q 165 369 215 501 l 121 0 l 56 0 z "},"ѵ":{"ha":674,"x_min":58,"x_max":681,"o":"m 513 598 q 542 649 527 630 q 574 680 558 669 q 608 694 591 690 q 643 697 626 697 q 673 693 665 697 q 680 686 681 690 l 675 650 l 658 650 q 607 635 628 650 q 571 588 587 621 l 293 0 l 236 0 l 58 691 l 109 691 q 124 686 119 691 q 131 674 129 681 l 266 126 q 274 74 272 99 q 284 100 279 87 q 294 126 289 113 l 513 598 z "},"ф":{"ha":983,"x_min":53,"x_max":913,"o":"m 483 82 q 533 51 506 60 q 591 42 561 42 q 668 58 633 42 q 732 104 703 75 q 782 173 760 133 q 818 257 803 212 q 841 351 833 302 q 848 447 848 399 q 838 541 848 503 q 808 603 827 580 q 764 638 790 627 q 707 648 738 648 q 658 642 683 648 q 610 624 633 635 q 569 596 588 613 q 540 558 551 579 l 483 82 m 483 609 q 432 641 460 631 q 374 650 404 650 q 298 633 333 650 q 234 588 263 617 q 183 519 205 558 q 147 435 162 480 q 125 341 132 390 q 117 244 117 292 q 128 151 117 189 q 157 89 138 113 q 202 55 176 65 q 258 44 228 44 q 308 51 283 44 q 356 68 333 57 q 396 97 378 80 q 425 134 415 113 l 483 609 m 548 621 q 626 680 579 658 q 728 701 674 701 q 803 687 769 701 q 862 643 838 673 q 900 565 886 613 q 913 453 913 518 q 903 341 913 397 q 875 233 894 285 q 830 138 857 182 q 768 61 803 94 q 691 10 733 28 q 601 -9 649 -9 q 530 6 560 -9 q 478 42 499 20 l 447 -215 q 435 -237 445 -228 q 409 -247 425 -247 l 379 -247 l 417 72 q 339 13 386 34 q 237 -9 292 -9 q 162 5 196 -9 q 104 50 128 19 q 66 127 80 80 q 53 240 53 174 q 63 352 53 296 q 91 459 72 408 q 136 554 109 510 q 198 631 163 599 q 274 683 232 664 q 365 701 316 701 q 436 687 405 701 q 488 650 467 672 l 527 978 q 539 1001 529 992 q 565 1010 549 1010 l 595 1010 l 548 621 z "},"ц":{"ha":751,"x_min":65,"x_max":681,"o":"m 681 49 l 616 -225 q 609 -241 615 -235 q 593 -247 603 -247 l 556 -247 l 617 0 l 528 0 q 509 7 515 0 q 503 26 503 14 l 524 222 q 462 124 496 167 q 390 52 428 81 q 311 7 352 22 q 231 -9 271 -9 q 103 59 142 -9 q 81 251 65 128 l 133 691 l 198 691 l 146 251 q 159 99 134 152 q 253 46 184 46 q 330 65 291 46 q 406 121 369 85 q 476 209 443 158 q 533 324 508 260 l 577 691 l 642 691 l 565 49 l 681 49 z "},"џ":{"ha":717,"x_min":65,"x_max":642,"o":"m 642 691 l 559 0 l 528 0 q 509 7 515 0 q 503 26 503 14 l 524 222 q 421 79 479 135 q 299 2 363 23 l 271 -225 q 264 -241 269 -235 q 248 -247 258 -247 l 210 -247 l 240 -9 l 231 -9 q 103 59 142 -9 q 81 251 65 128 l 133 691 l 198 691 l 146 251 q 159 99 134 152 q 253 46 184 46 q 330 65 291 46 q 406 121 369 85 q 476 209 443 158 q 533 324 508 260 l 577 691 l 642 691 z "},"ч":{"ha":640,"x_min":62,"x_max":565,"o":"m 565 691 l 482 0 l 417 0 l 462 374 q 415 316 441 343 q 357 268 388 289 q 289 236 325 248 q 215 225 253 225 q 139 241 169 225 q 90 287 108 258 q 67 356 72 316 q 67 443 62 396 l 96 691 l 161 691 l 133 443 q 132 379 128 408 q 148 327 135 349 q 183 293 160 306 q 239 281 205 281 q 312 294 277 281 q 377 332 347 308 q 432 388 408 356 q 472 458 456 421 l 500 691 l 565 691 z "},"ш":{"ha":1083,"x_min":73,"x_max":1009,"o":"m 1009 691 l 926 0 l 896 0 q 877 7 883 0 q 872 25 872 13 l 890 218 q 832 122 863 165 q 766 51 801 80 q 693 6 731 22 q 617 -9 656 -9 q 550 6 576 -9 q 509 49 524 21 q 490 118 494 77 q 490 211 486 159 q 431 114 463 156 q 363 45 399 73 q 290 5 327 18 q 215 -9 252 -9 q 141 9 170 -9 q 95 60 111 26 q 76 141 79 93 q 81 251 73 190 l 133 691 l 197 691 l 145 251 q 140 164 139 202 q 151 99 141 125 q 182 59 161 73 q 236 46 202 46 q 305 61 270 46 q 374 109 340 77 q 438 188 408 140 q 492 299 468 235 l 539 691 l 603 691 l 551 251 q 545 164 545 202 q 554 99 545 125 q 583 59 563 73 q 637 46 603 46 q 713 65 676 46 q 783 119 749 83 q 846 206 816 154 q 901 324 876 258 l 944 691 l 1009 691 z "},"щ":{"ha":1113,"x_min":73,"x_max":1039,"o":"m 1039 49 l 974 -225 q 967 -241 973 -235 q 951 -247 961 -247 l 914 -247 l 975 0 l 896 0 q 877 7 883 0 q 872 25 872 13 l 890 218 q 832 122 863 165 q 766 51 801 80 q 693 6 731 22 q 617 -9 656 -9 q 550 6 576 -9 q 509 49 524 21 q 490 118 494 77 q 490 211 486 159 q 431 114 463 156 q 363 45 399 73 q 290 5 327 18 q 215 -9 252 -9 q 141 9 170 -9 q 95 60 111 26 q 76 141 79 93 q 81 251 73 190 l 133 691 l 197 691 l 145 251 q 140 164 139 202 q 151 99 141 125 q 182 59 161 73 q 236 46 202 46 q 305 61 270 46 q 374 109 340 77 q 438 188 408 140 q 492 299 468 235 l 539 691 l 603 691 l 551 251 q 545 164 545 202 q 554 99 545 125 q 583 59 563 73 q 637 46 603 46 q 713 65 676 46 q 783 119 749 83 q 846 206 816 154 q 901 324 876 258 l 944 691 l 1009 691 l 932 49 l 1039 49 z "},"ъ":{"ha":692,"x_min":47,"x_max":627,"o":"m 341 39 q 424 59 384 39 q 496 112 465 78 q 546 189 527 145 q 565 281 565 233 q 559 331 565 307 q 540 372 553 354 q 506 401 527 390 q 453 411 484 411 q 369 392 413 411 q 291 341 326 373 q 234 268 256 310 q 211 181 211 226 q 221 120 211 147 q 248 75 231 93 q 289 48 265 57 q 341 39 313 39 m 365 657 q 305 569 331 614 q 262 478 279 524 q 234 389 244 433 q 219 301 224 344 q 268 366 240 337 q 331 415 297 394 q 401 448 365 436 q 473 459 438 459 q 539 446 510 459 q 588 411 568 433 q 617 357 607 388 q 627 290 627 326 q 605 180 627 234 q 542 84 582 126 q 449 17 503 42 q 333 -9 395 -9 q 258 3 292 -9 q 199 44 224 16 q 160 115 174 72 q 147 220 147 158 q 155 320 147 268 q 182 425 164 372 q 230 533 201 478 q 299 641 258 588 l 47 641 l 51 664 q 60 683 52 676 q 83 691 68 691 l 370 691 l 365 657 z "},"ы":{"ha":854,"x_min":65,"x_max":780,"o":"m 780 691 l 697 0 l 631 0 l 715 691 l 780 691 m 133 140 q 137 100 130 119 q 159 68 144 82 q 198 47 174 55 q 253 39 222 39 q 340 60 297 39 q 414 115 382 81 q 466 193 447 149 q 486 284 486 238 q 480 332 486 309 q 461 373 474 355 q 426 401 448 390 q 374 411 405 411 q 295 391 335 411 q 222 338 256 371 q 165 265 189 306 q 137 181 142 224 l 133 140 m 151 301 q 199 363 172 334 q 258 413 226 392 q 324 447 290 434 q 392 459 358 459 q 459 447 431 459 q 508 411 488 434 q 538 358 528 389 q 548 292 548 328 q 522 179 548 233 q 453 83 496 124 q 353 16 410 41 q 235 -9 297 -9 q 157 3 190 -9 q 103 35 124 15 q 73 84 82 56 q 69 144 65 112 l 135 691 l 199 691 l 151 301 z "},"ь":{"ha":613,"x_min":65,"x_max":548,"o":"m 133 140 q 137 100 130 119 q 159 68 144 82 q 198 47 174 55 q 253 39 222 39 q 340 60 297 39 q 414 115 382 81 q 466 193 447 149 q 486 284 486 238 q 480 332 486 309 q 461 373 474 355 q 426 401 448 390 q 374 411 405 411 q 295 391 335 411 q 222 338 256 371 q 165 265 189 306 q 137 181 142 224 l 133 140 m 151 301 q 199 363 172 334 q 258 413 226 392 q 324 447 290 434 q 392 459 358 459 q 459 447 431 459 q 508 411 488 434 q 538 358 528 389 q 548 292 548 328 q 522 179 548 233 q 453 83 496 124 q 353 16 410 41 q 235 -9 297 -9 q 157 3 190 -9 q 103 35 124 15 q 73 84 82 56 q 69 144 65 112 l 135 691 l 199 691 l 151 301 z "},"э":{"ha":633,"x_min":24,"x_max":560,"o":"m 74 619 q 128 657 101 641 q 181 682 154 672 q 235 697 207 692 q 294 702 263 702 q 411 679 361 702 q 494 614 461 656 q 543 517 527 573 q 560 396 560 461 q 549 292 560 342 q 518 196 538 241 q 469 113 498 151 q 402 49 440 76 q 321 6 365 22 q 226 -9 276 -9 q 107 16 158 -9 q 24 85 56 41 l 42 106 q 57 113 48 113 q 74 102 63 113 q 106 78 85 91 q 155 53 126 65 q 226 42 185 42 q 327 65 281 42 q 406 127 372 88 q 462 218 440 166 q 491 330 483 270 l 145 330 l 151 376 l 495 376 l 495 393 q 483 495 495 448 q 444 577 470 542 q 379 631 418 612 q 286 651 340 651 q 211 640 242 651 q 158 618 180 630 q 123 595 136 606 q 100 586 109 585 q 89 590 92 587 q 83 597 86 592 l 74 619 z "},"є":{"ha":636,"x_min":53,"x_max":585,"o":"m 556 126 q 486 59 519 85 q 422 17 453 33 q 358 -3 390 2 q 288 -9 325 -9 q 184 11 228 -9 q 111 69 140 32 q 67 156 82 106 q 53 267 53 207 q 64 375 53 322 q 97 478 76 429 q 149 567 119 526 q 218 638 180 608 q 301 685 256 668 q 397 702 346 702 q 458 695 431 702 q 508 677 485 689 q 550 647 531 665 q 585 608 569 630 l 567 587 q 561 582 565 584 q 552 580 557 580 q 535 591 545 580 q 509 615 526 602 q 465 639 492 628 q 396 650 438 650 q 303 629 347 650 q 226 570 260 608 q 167 483 192 533 q 129 376 142 433 l 465 376 l 460 330 l 121 330 q 118 299 119 315 q 117 268 117 284 q 128 178 117 220 q 161 107 139 137 q 219 59 184 76 q 301 42 253 42 q 368 50 338 42 q 420 70 397 58 q 459 96 442 82 q 489 122 476 110 q 511 142 502 134 q 528 150 521 150 q 543 143 537 150 l 556 126 l 556 126 z "},"ю":{"ha":943,"x_min":56,"x_max":872,"o":"m 559 43 q 660 75 615 43 q 738 161 706 108 q 788 282 770 214 q 806 423 806 351 q 762 590 806 531 q 640 649 718 649 q 539 617 584 649 q 461 533 494 585 q 411 412 428 480 q 393 270 393 344 q 437 103 394 163 q 559 43 480 43 m 339 370 q 378 499 351 439 q 445 605 405 560 q 536 675 485 649 q 647 701 588 701 q 739 682 698 701 q 810 627 781 663 q 856 539 840 591 q 872 423 872 488 q 848 260 872 338 q 782 123 824 183 q 680 27 739 63 q 551 -9 622 -9 q 460 10 501 -9 q 391 65 419 29 q 346 153 362 101 q 331 271 331 206 q 333 322 331 297 l 159 322 l 119 0 l 56 0 l 140 691 l 205 691 l 165 370 l 339 370 z "},"я":{"ha":672,"x_min":-22,"x_max":599,"o":"m 533 647 l 358 647 q 274 632 308 647 q 218 593 239 617 q 187 542 197 570 q 178 488 178 514 q 189 433 178 458 q 221 391 200 408 q 272 363 242 373 q 342 353 303 353 l 497 353 l 533 647 m 599 691 l 514 0 l 453 0 l 492 311 l 373 311 q 336 307 352 311 q 307 295 319 303 q 284 276 294 288 q 265 251 274 265 l 147 67 q 91 10 122 26 q 19 -6 60 -6 q -13 -2 -4 -6 q -21 10 -22 1 l -17 44 l 7 44 q 57 56 35 44 q 99 97 80 68 l 209 263 q 242 299 223 284 q 289 323 261 315 q 209 343 242 328 q 155 380 176 358 q 125 431 134 403 q 115 489 115 458 q 129 560 115 524 q 172 625 142 597 q 247 673 201 654 q 358 691 293 691 l 599 691 z "},"ђ":{"ha":700,"x_min":22,"x_max":615,"o":"m 176 465 q 235 538 203 505 q 300 596 266 572 q 370 635 334 621 q 444 649 407 649 q 521 631 489 649 q 574 583 553 614 q 605 509 595 552 q 615 413 615 465 q 598 249 615 329 q 548 89 581 169 q 467 -71 515 10 q 355 -236 418 -151 l 306 -213 q 410 -53 365 -131 q 488 101 456 25 q 535 251 519 176 q 551 403 551 326 q 543 482 551 447 q 519 543 535 518 q 478 583 503 569 q 421 597 454 597 q 354 581 388 597 q 287 536 320 564 q 224 469 254 508 q 167 389 193 431 l 119 0 l 56 0 l 151 781 l 22 781 l 28 833 l 158 833 l 179 1010 l 244 1010 l 222 833 l 472 833 l 466 781 l 215 781 l 176 465 z "},"ѣ":{"ha":715,"x_min":46,"x_max":647,"o":"m 232 140 q 236 100 229 119 q 258 68 243 82 q 297 47 274 55 q 352 39 321 39 q 439 60 397 39 q 514 115 481 81 q 566 193 546 149 q 585 284 585 238 q 580 332 585 309 q 560 373 574 355 q 526 401 547 390 q 474 411 504 411 q 395 391 435 411 q 322 338 355 371 q 265 265 288 306 q 236 181 241 224 l 232 140 m 251 301 q 298 363 271 334 q 357 413 326 392 q 423 447 389 434 q 492 459 458 459 q 559 447 530 459 q 607 411 588 434 q 637 358 627 389 q 647 292 647 328 q 621 179 647 233 q 552 83 595 124 q 452 16 509 41 q 335 -9 396 -9 q 257 3 290 -9 q 202 35 224 15 q 173 84 181 56 q 168 144 164 112 l 228 641 l 46 641 l 52 691 l 235 691 l 261 903 l 325 903 l 299 691 l 512 691 l 506 641 l 293 641 l 275 494 l 274 494 l 251 301 z "},"!":{"ha":329,"x_min":62,"x_max":263,"o":"m 263 983 l 214 585 q 206 526 210 554 q 197 470 201 499 q 186 409 192 441 q 173 338 180 377 l 130 338 q 135 409 133 377 q 139 470 137 441 q 144 526 142 499 q 151 585 147 554 l 199 983 l 263 983 m 62 53 q 67 78 62 67 q 80 99 72 90 q 100 113 89 108 q 126 118 112 118 q 151 113 139 118 q 171 99 163 108 q 185 78 180 90 q 190 53 190 67 q 185 28 190 40 q 171 8 180 17 q 151 -6 163 -1 q 126 -10 139 -10 q 80 8 99 -10 q 62 53 62 26 z "},"?":{"ha":561,"x_min":116,"x_max":535,"o":"m 116 896 q 160 932 136 915 q 212 964 184 950 q 272 985 240 977 q 340 994 304 994 q 418 981 383 994 q 480 943 454 967 q 521 885 506 919 q 535 810 535 851 q 518 712 535 753 q 475 640 501 671 q 418 587 449 610 q 359 544 387 565 q 310 501 331 523 q 283 452 289 480 l 261 338 l 217 338 l 228 456 q 250 511 231 487 q 297 556 269 535 q 356 600 324 578 q 413 649 387 622 q 457 713 440 677 q 475 799 475 749 q 464 858 475 832 q 433 902 453 884 q 386 931 413 921 q 329 940 360 940 q 254 928 286 940 q 200 901 222 916 q 164 875 178 887 q 143 863 150 863 q 136 864 139 863 q 130 871 133 865 l 116 896 m 158 53 q 163 78 158 67 q 177 99 168 90 q 197 113 185 108 q 222 118 208 118 q 248 113 235 118 q 268 99 260 108 q 282 78 277 90 q 288 53 288 67 q 268 8 288 26 q 222 -10 249 -10 q 177 8 195 -10 q 158 53 158 26 z "},"‽":{"ha":594,"x_min":142,"x_max":575,"o":"m 207 118 q 232 113 220 118 q 252 99 244 108 q 266 78 261 90 q 272 53 272 67 q 266 28 272 40 q 252 8 261 17 q 232 -6 244 -1 q 207 -10 220 -10 q 161 8 180 -10 q 143 53 143 26 q 148 78 143 67 q 161 99 153 90 q 182 113 170 108 q 207 118 193 118 m 294 958 q 337 968 314 965 q 383 972 360 972 q 462 959 426 972 q 522 924 497 947 q 561 869 547 901 q 575 797 575 837 q 564 718 575 753 q 533 657 552 684 q 490 607 515 629 q 439 565 465 585 q 386 525 413 544 q 338 483 360 505 q 300 434 316 460 q 278 374 284 408 l 265 316 l 224 316 q 211 423 217 364 q 197 537 205 481 l 142 974 l 203 989 l 247 603 q 249 578 247 596 q 252 538 251 560 q 256 489 254 515 q 258 441 257 464 q 300 507 274 478 q 353 559 325 535 q 411 606 382 583 q 463 655 440 629 q 501 713 486 681 q 515 788 515 745 q 477 883 515 848 q 372 919 438 919 q 334 915 348 919 q 314 912 319 912 q 299 924 299 912 l 294 958 z "},",":{"ha":294,"x_min":41,"x_max":164,"o":"m 48 -165 q 44 -159 44 -162 q 43 -153 43 -156 q 54 -134 43 -147 q 78 -102 65 -122 q 105 -56 92 -82 q 121 1 117 -31 q 99 -3 110 -3 q 57 15 74 -3 q 41 59 41 32 q 58 101 41 83 q 101 118 74 118 q 148 98 131 118 q 164 44 164 77 q 157 -14 164 15 q 135 -72 149 -44 q 102 -127 122 -101 q 59 -176 83 -153 l 48 -165 z "},";":{"ha":342,"x_min":68,"x_max":255,"o":"m 75 -165 q 71 -159 72 -162 q 70 -153 70 -156 q 81 -134 70 -147 q 106 -102 92 -122 q 132 -56 119 -82 q 148 1 144 -31 q 126 -3 138 -3 q 84 15 101 -3 q 68 59 68 32 q 85 101 68 83 q 128 118 101 118 q 175 98 158 118 q 191 44 191 77 q 184 -14 191 15 q 163 -72 176 -44 q 129 -127 149 -101 q 86 -176 110 -153 l 75 -165 m 126 607 q 131 632 126 620 q 145 652 136 644 q 165 666 153 661 q 190 672 176 672 q 215 666 203 672 q 236 652 227 661 q 250 632 244 644 q 255 607 255 620 q 250 582 255 593 q 236 561 244 570 q 215 548 227 553 q 190 543 203 543 q 145 561 163 543 q 126 607 126 580 z "},".":{"ha":319,"x_min":53,"x_max":181,"o":"m 53 53 q 58 78 53 67 q 71 99 63 90 q 91 113 80 108 q 117 118 103 118 q 142 113 130 118 q 162 99 153 108 q 176 78 171 90 q 181 53 181 67 q 176 28 181 40 q 162 8 171 17 q 142 -6 153 -1 q 117 -10 130 -10 q 71 8 90 -10 q 53 53 53 26 z "},"…":{"ha":1000,"x_min":53,"x_max":863,"o":"m 53 53 q 58 78 53 67 q 71 99 63 90 q 91 113 80 108 q 117 118 103 118 q 142 113 130 118 q 162 99 153 108 q 176 78 171 90 q 181 53 181 67 q 176 28 181 40 q 162 8 171 17 q 142 -6 153 -1 q 117 -10 130 -10 q 71 8 90 -10 q 53 53 53 26 m 393 53 q 398 78 393 67 q 411 99 403 90 q 432 113 420 108 q 457 118 443 118 q 482 113 470 118 q 503 99 494 108 q 517 78 512 90 q 522 53 522 67 q 503 8 522 26 q 457 -10 484 -10 q 411 8 430 -10 q 393 53 393 26 m 734 53 q 739 78 734 67 q 752 99 744 90 q 773 113 761 108 q 798 118 784 118 q 823 113 811 118 q 843 99 835 108 q 857 78 852 90 q 863 53 863 67 q 857 28 863 40 q 843 8 852 17 q 823 -6 835 -1 q 798 -10 811 -10 q 752 8 771 -10 q 734 53 734 26 z "},"‘":{"ha":272,"x_min":135,"x_max":269,"o":"m 151 735 q 135 816 135 776 q 150 894 136 856 q 190 968 165 933 q 249 1033 216 1003 l 265 1022 q 269 1013 269 1018 q 268 1006 269 1010 q 260 997 266 1003 q 225 948 241 974 q 201 892 210 921 q 192 834 192 864 q 205 776 192 805 q 206 763 208 769 q 194 753 203 756 l 151 735 z "},"’":{"ha":277,"x_min":124,"x_max":259,"o":"m 242 1024 q 258 944 259 984 q 243 865 258 903 q 203 792 229 827 q 144 727 178 757 l 128 738 q 124 747 124 742 q 126 753 124 750 q 133 763 128 756 q 168 812 153 785 q 193 867 184 839 q 201 925 201 896 q 189 984 201 955 q 199 1007 182 999 l 242 1024 z "},"“":{"ha":444,"x_min":135,"x_max":442,"o":"m 151 735 q 135 816 135 776 q 150 894 136 856 q 190 968 165 933 q 249 1033 216 1003 l 265 1022 q 269 1013 269 1018 q 268 1006 269 1010 q 260 997 266 1003 q 225 948 241 974 q 201 892 210 921 q 192 834 192 864 q 205 776 192 805 q 206 763 208 769 q 194 753 203 756 l 151 735 m 324 735 q 308 816 307 776 q 323 894 308 856 q 363 968 337 933 q 422 1033 388 1003 l 438 1022 q 442 1013 442 1018 q 440 1006 442 1010 q 433 997 438 1003 q 398 948 413 974 q 373 892 382 921 q 364 834 364 864 q 377 776 365 805 q 378 763 381 769 q 367 753 375 756 l 324 735 z "},"”":{"ha":448,"x_min":124,"x_max":431,"o":"m 242 1024 q 258 944 259 984 q 243 865 258 903 q 203 792 229 827 q 144 727 178 757 l 128 738 q 124 747 124 742 q 126 753 124 750 q 133 763 128 756 q 168 812 153 785 q 193 867 184 839 q 201 925 201 896 q 189 984 201 955 q 199 1007 182 999 l 242 1024 m 415 1024 q 431 944 431 984 q 416 865 430 903 q 376 792 401 827 q 317 727 350 757 l 301 738 q 296 747 296 742 q 298 753 296 750 q 306 763 300 756 q 341 812 325 785 q 365 867 356 839 q 374 925 374 896 q 361 984 374 955 q 372 1007 354 999 l 415 1024 z "},"‚":{"ha":267,"x_min":-1,"x_max":135,"o":"m 118 121 q 134 40 135 81 q 119 -38 133 0 q 79 -111 105 -76 q 20 -176 53 -147 l 4 -165 q -1 -157 -1 -162 q 1 -150 -1 -153 q 9 -141 3 -147 q 44 -91 28 -118 q 68 -36 60 -65 q 77 22 77 -8 q 65 81 77 51 q 75 103 58 96 l 118 121 z "},"„":{"ha":439,"x_min":-1,"x_max":307,"o":"m 118 121 q 134 40 135 81 q 119 -38 133 0 q 79 -111 105 -76 q 20 -176 53 -147 l 4 -165 q -1 -157 -1 -162 q 1 -150 -1 -153 q 9 -141 3 -147 q 44 -91 28 -118 q 68 -36 60 -65 q 77 22 77 -8 q 65 81 77 51 q 75 103 58 96 l 118 121 m 290 121 q 306 40 307 81 q 291 -38 306 0 q 251 -111 277 -76 q 192 -176 226 -147 l 176 -165 q 172 -157 172 -162 q 174 -150 172 -153 q 181 -141 176 -147 q 216 -91 201 -118 q 241 -36 232 -65 q 249 22 249 -8 q 237 81 249 51 q 247 103 230 96 l 290 121 z "},"‹":{"ha":347,"x_min":64,"x_max":281,"o":"m 132 380 q 115 360 122 365 q 127 341 121 355 l 218 136 q 220 117 223 125 q 208 103 217 108 l 186 93 l 64 356 l 65 365 l 252 627 l 271 617 q 280 604 278 613 q 273 585 281 595 l 132 380 z "},"›":{"ha":346,"x_min":44,"x_max":268,"o":"m 268 365 l 267 356 l 81 93 l 62 103 q 59 136 44 113 l 201 341 q 217 360 210 355 q 205 380 211 366 l 114 585 q 112 604 109 595 q 125 617 115 613 l 146 627 l 268 365 z "},"«":{"ha":509,"x_min":63,"x_max":442,"o":"m 131 380 q 114 360 121 365 q 126 341 120 355 l 217 136 q 219 117 222 125 q 208 103 217 108 l 185 93 l 63 356 l 64 365 l 251 627 l 270 617 q 279 604 278 613 q 272 585 280 595 l 131 380 m 294 380 q 276 360 283 365 q 289 341 283 355 l 380 136 q 382 117 385 125 q 370 103 379 108 l 348 93 l 226 356 l 226 365 l 414 627 l 433 617 q 441 604 440 613 q 435 585 442 595 l 294 380 z "},"»":{"ha":509,"x_min":44,"x_max":431,"o":"m 269 365 l 268 356 l 82 93 l 63 103 q 60 136 44 113 l 201 341 q 218 360 210 355 q 206 380 212 366 l 115 585 q 113 604 110 595 q 126 617 116 613 l 147 627 l 269 365 m 431 365 l 431 356 l 244 93 l 225 103 q 222 136 207 113 l 364 341 q 381 360 373 355 q 368 380 374 366 l 277 585 q 275 604 272 595 q 288 617 278 613 l 309 627 l 431 365 z "},"/":{"ha":562,"x_min":-6,"x_max":581,"o":"m 60 -33 q 43 -52 54 -46 q 20 -58 31 -58 l -6 -58 l 515 978 q 554 1003 527 1003 l 581 1003 l 60 -33 z "},"|":{"ha":340,"x_min":142,"x_max":194,"o":"m 142 1053 l 194 1053 l 194 -244 l 142 -244 l 142 1053 z "},"¦":{"ha":340,"x_min":142,"x_max":194,"o":"m 142 1053 l 194 1053 l 194 513 l 142 513 l 142 1053 m 142 295 l 194 295 l 194 -244 l 142 -244 l 142 295 z "},"\\":{"ha":556,"x_min":122,"x_max":449,"o":"m 122 1003 l 149 1003 q 182 978 176 1003 l 449 -58 l 422 -58 q 401 -52 411 -58 q 388 -33 391 -46 l 122 1003 z "},"-":{"ha":494,"x_min":93,"x_max":398,"o":"m 101 439 l 398 439 l 392 385 l 93 385 l 101 439 z "},"–":{"ha":806,"x_min":145,"x_max":654,"o":"m 151 425 l 654 425 l 649 377 l 145 377 l 151 425 z "},"—":{"ha":1022,"x_min":91,"x_max":926,"o":"m 97 425 l 926 425 l 919 377 l 91 377 l 97 425 z "},"_":{"ha":616,"x_min":-18,"x_max":491,"o":"m 491 -144 l 485 -189 l -18 -189 l -13 -144 l 491 -144 z "},"•":{"ha":806,"x_min":197,"x_max":605,"o":"m 197 414 q 213 494 197 456 q 257 559 229 531 q 322 603 285 588 q 400 619 358 619 q 480 603 442 619 q 545 559 517 588 q 589 494 573 531 q 605 414 605 456 q 589 336 605 372 q 545 272 573 299 q 480 228 517 244 q 400 212 442 212 q 322 228 358 212 q 257 272 285 244 q 213 336 229 299 q 197 414 197 372 z "},"·":{"ha":327,"x_min":92,"x_max":233,"o":"m 92 411 q 97 439 92 426 q 112 462 103 452 q 134 477 122 472 q 161 483 147 483 q 189 477 176 483 q 212 462 202 472 q 227 439 222 452 q 233 411 233 426 q 227 384 233 397 q 212 362 222 372 q 189 347 202 353 q 161 342 176 342 q 134 347 147 342 q 112 362 122 353 q 97 384 103 372 q 92 411 92 397 z "},"(":{"ha":345,"x_min":74,"x_max":372,"o":"m 131 313 q 137 199 131 258 q 154 83 142 141 q 182 -31 165 25 q 222 -137 199 -87 q 224 -156 228 -149 q 214 -166 220 -162 l 184 -183 q 134 -59 155 -122 q 99 66 113 4 q 80 189 86 128 q 74 304 74 249 q 77 421 74 364 q 91 536 81 478 q 119 653 101 594 q 167 776 138 713 q 238 910 196 840 q 336 1059 279 980 l 363 1042 q 370 1031 368 1038 q 364 1013 372 1024 q 263 851 306 930 q 190 688 219 772 q 146 513 161 605 q 131 313 131 421 z "},")":{"ha":345,"x_min":-21,"x_max":276,"o":"m 219 563 q 214 676 219 618 q 196 793 208 735 q 167 907 184 851 q 127 1013 150 963 q 126 1031 122 1024 q 135 1042 129 1038 l 167 1059 q 217 934 196 997 q 251 810 238 872 q 270 688 264 748 q 276 572 276 628 q 273 455 276 512 q 259 340 269 397 q 231 223 249 282 q 183 99 213 163 q 113 -34 154 35 q 14 -183 71 -104 l -12 -166 q -19 -156 -18 -162 q -13 -137 -21 -149 q 88 28 44 -54 q 160 197 131 111 q 205 373 190 283 q 219 563 219 464 z "},"[":{"ha":388,"x_min":63,"x_max":418,"o":"m 416 1028 q 409 1015 415 1020 q 394 1010 403 1010 l 263 1010 l 122 -139 l 253 -139 q 267 -144 262 -139 q 270 -158 272 -150 l 267 -183 l 63 -183 l 214 1053 l 418 1053 l 416 1028 z "},"]":{"ha":390,"x_min":-25,"x_max":332,"o":"m 180 -183 l -25 -183 l -22 -158 q -15 -144 -21 -150 q 1 -139 -9 -139 l 131 -139 l 272 1010 l 142 1010 q 127 1015 132 1010 q 124 1028 122 1020 l 126 1053 l 332 1053 l 180 -183 z "},"{":{"ha":385,"x_min":58,"x_max":413,"o":"m 413 1053 l 410 1025 q 402 1014 408 1017 q 390 1010 396 1010 l 370 1010 q 315 998 340 1010 q 269 962 289 985 q 239 903 250 938 q 226 823 227 868 q 226 765 225 794 q 228 707 227 736 q 231 650 230 678 q 232 597 233 622 q 221 532 231 560 q 195 484 211 504 q 159 452 178 465 q 118 435 139 440 q 149 421 135 431 q 175 398 164 412 q 192 365 185 383 q 199 324 199 347 q 187 241 199 282 q 161 159 175 200 q 135 75 147 117 q 123 -13 123 32 q 131 -65 123 -42 q 152 -104 138 -87 q 185 -130 165 -121 q 228 -139 204 -139 l 250 -139 q 261 -143 256 -139 q 265 -155 266 -147 l 261 -183 l 226 -183 q 157 -170 187 -183 q 108 -134 128 -157 q 77 -80 88 -111 q 67 -13 67 -49 q 79 77 67 34 q 106 160 91 119 q 132 241 120 201 q 144 324 144 281 q 121 389 144 364 q 58 415 97 415 l 63 456 q 146 496 114 456 q 178 619 178 536 q 173 709 178 660 q 168 799 168 757 q 183 905 168 858 q 225 984 198 951 q 291 1035 252 1017 q 377 1053 329 1053 l 413 1053 z "},"}":{"ha":385,"x_min":-23,"x_max":333,"o":"m 165 1053 q 232 1040 203 1053 q 282 1004 262 1027 q 313 950 302 981 q 323 883 323 919 q 311 793 323 836 q 285 710 299 751 q 258 629 270 669 q 247 546 247 589 q 269 481 247 506 q 333 456 292 456 l 328 415 q 245 374 277 415 q 213 251 213 334 q 214 208 213 231 q 217 162 215 185 q 220 115 219 138 q 222 72 222 92 q 207 -34 222 13 q 165 -114 192 -81 q 99 -165 138 -147 q 13 -183 60 -183 l -23 -183 l -19 -155 q -12 -143 -18 -147 q -1 -139 -6 -139 l 20 -139 q 75 -127 49 -139 q 121 -91 101 -115 q 152 -33 140 -67 q 164 47 163 2 q 164 105 165 76 q 162 163 163 134 q 159 219 160 192 q 159 273 158 247 q 170 338 160 309 q 196 386 180 366 q 232 418 212 406 q 272 435 251 431 q 215 472 239 444 q 191 546 191 501 q 203 629 191 588 q 229 711 215 670 q 255 795 243 753 q 267 883 267 838 q 238 975 267 940 q 161 1010 210 1010 l 141 1010 q 130 1014 135 1010 q 126 1025 125 1017 l 129 1053 l 165 1053 z "},"*":{"ha":547,"x_min":133,"x_max":508,"o":"m 378 844 q 358 834 367 838 q 337 829 349 831 q 358 825 349 828 q 375 816 366 822 l 487 740 l 466 710 l 356 786 q 340 797 346 792 q 328 813 334 802 q 331 792 331 801 q 331 772 332 784 l 313 624 l 278 624 l 296 772 q 300 793 297 784 q 310 814 303 802 q 293 798 301 803 q 276 786 286 792 l 147 710 l 133 740 l 262 816 q 282 825 273 822 q 304 829 291 828 l 304 830 q 283 835 291 832 q 265 844 275 838 l 155 920 l 176 951 l 286 874 q 301 861 296 868 q 315 842 307 854 q 310 866 311 856 q 310 888 308 876 l 328 1037 l 363 1037 l 344 888 q 340 866 343 876 q 330 844 337 857 q 347 862 339 856 q 366 874 355 868 l 495 951 l 508 920 l 378 844 z "},"†":{"ha":806,"x_min":160,"x_max":701,"o":"m 458 665 q 512 668 484 666 q 567 673 540 671 q 621 677 594 675 q 672 678 648 678 q 695 669 688 678 q 699 649 701 660 l 697 627 l 454 627 l 410 274 l 356 -243 q 321 -251 340 -251 q 288 -243 301 -251 l 360 274 l 403 627 l 160 627 l 163 649 q 173 669 164 660 q 198 678 182 678 q 301 673 247 678 q 408 665 356 667 l 440 994 q 456 1000 447 998 q 474 1003 465 1003 q 492 1000 484 1003 q 508 994 501 998 l 458 665 z "},"‡":{"ha":806,"x_min":97,"x_max":705,"o":"m 463 665 q 571 673 515 667 q 676 678 627 678 q 698 669 692 678 q 703 649 705 660 l 701 627 l 458 627 l 428 381 l 395 124 l 639 124 l 637 102 q 626 82 635 91 q 601 72 617 72 q 498 79 553 74 q 391 85 443 84 l 360 -243 q 343 -249 352 -247 q 325 -251 334 -251 q 292 -243 305 -251 l 341 85 q 287 83 315 85 q 232 78 260 81 q 178 75 205 76 q 126 72 151 73 q 104 82 110 72 q 99 102 97 91 l 102 124 l 346 124 l 377 381 l 407 627 l 163 627 l 167 649 q 177 669 168 660 q 201 678 185 678 q 305 673 250 678 q 411 665 359 667 l 444 994 q 460 1000 451 998 q 478 1003 469 1003 q 497 1000 488 1003 q 511 994 505 998 l 463 665 z "},"§":{"ha":628,"x_min":41,"x_max":581,"o":"m 494 435 q 483 484 494 463 q 456 524 473 506 q 415 556 438 542 q 366 584 392 571 q 314 610 340 597 q 264 639 288 624 q 170 573 197 609 q 144 493 144 538 q 168 426 144 453 q 231 376 193 398 q 312 333 268 353 q 394 287 356 312 q 471 350 448 313 q 494 435 494 387 m 58 16 q 67 24 63 22 q 78 26 71 26 q 98 15 88 26 q 127 -9 109 4 q 173 -33 144 -22 q 244 -44 201 -44 q 321 -30 287 -44 q 378 7 355 -17 q 415 61 402 30 q 427 126 427 92 q 402 198 427 169 q 338 249 376 226 q 256 291 300 271 q 174 336 212 311 q 110 394 135 360 q 85 477 85 428 q 119 584 85 536 q 233 660 154 632 q 186 713 203 683 q 168 786 168 743 q 185 865 168 827 q 233 931 202 902 q 308 976 265 959 q 404 993 351 993 q 505 975 462 993 q 581 920 548 957 l 565 897 q 549 888 559 888 q 532 897 542 888 q 505 916 522 906 q 462 936 488 927 q 399 944 437 944 q 329 932 361 944 q 274 900 297 920 q 239 853 251 880 q 226 797 226 826 q 240 747 226 768 q 276 707 253 725 q 329 674 299 690 q 389 643 358 659 q 449 610 419 628 q 501 570 478 592 q 538 519 524 547 q 552 452 552 490 q 520 339 552 388 q 423 265 488 291 q 468 211 451 241 q 485 141 485 182 q 467 52 485 94 q 418 -22 450 10 q 339 -73 385 -54 q 233 -91 292 -91 q 120 -68 167 -91 q 41 -8 74 -45 l 58 16 z "},"¶":{"ha":903,"x_min":85,"x_max":926,"o":"m 926 983 l 919 926 l 763 926 l 633 -132 l 573 -132 l 703 926 l 475 926 l 345 -132 l 286 -132 l 362 485 q 247 501 299 485 q 160 545 196 517 q 104 616 124 574 q 85 709 85 657 q 109 819 85 769 q 177 905 133 869 q 284 962 222 942 q 423 983 346 983 l 926 983 z "},"^":{"ha":806,"x_min":183,"x_max":697,"o":"m 697 556 l 651 556 q 637 560 643 556 q 627 572 631 565 l 460 874 q 441 917 447 898 q 433 896 438 907 q 422 874 428 885 l 256 572 q 247 561 252 566 q 231 556 241 556 l 183 556 l 419 983 l 460 983 l 697 556 z "},"~":{"ha":806,"x_min":97,"x_max":708,"o":"m 542 394 q 588 403 567 394 q 624 429 609 413 q 646 469 638 446 q 655 519 654 492 l 708 519 q 697 448 708 481 q 665 391 686 415 q 614 353 644 367 q 545 339 584 339 q 472 352 509 339 q 399 383 435 366 q 328 413 363 399 q 265 426 294 426 q 217 417 238 426 q 182 391 197 408 q 159 351 167 374 q 151 301 151 328 l 97 301 q 108 372 97 340 q 140 429 119 405 q 192 467 161 453 q 261 481 222 481 q 334 468 297 481 q 407 438 371 454 q 478 407 444 421 q 542 394 512 394 z "},"'":{"ha":256,"x_min":137,"x_max":224,"o":"m 224 983 l 199 780 l 181 673 q 173 656 178 662 q 156 649 168 649 q 142 656 147 649 q 137 673 138 662 l 144 780 l 170 983 l 224 983 z "},"\"":{"ha":442,"x_min":137,"x_max":410,"o":"m 224 983 l 199 780 l 181 673 q 173 656 178 662 q 156 649 168 649 q 142 656 147 649 q 137 673 138 662 l 144 780 l 170 983 l 224 983 m 410 983 l 385 780 l 367 673 q 359 656 364 662 q 342 649 353 649 q 328 656 332 649 q 322 673 324 662 l 329 780 l 356 983 l 410 983 z "},"&":{"ha":894,"x_min":49,"x_max":827,"o":"m 331 512 q 242 461 281 491 q 174 395 202 431 q 131 316 146 358 q 115 228 115 274 q 131 147 115 182 q 173 88 147 112 q 232 53 199 65 q 299 41 265 41 q 383 52 342 41 q 459 84 423 64 q 528 133 496 105 q 589 193 561 160 l 335 506 l 331 512 m 827 0 l 774 0 q 747 4 756 0 q 728 20 738 8 l 622 152 q 551 86 589 117 q 472 35 514 56 q 383 1 429 13 q 286 -11 336 -11 q 194 5 238 -11 q 119 50 151 20 q 68 122 87 79 q 49 219 49 165 q 69 327 49 276 q 124 419 90 377 q 206 493 159 461 q 305 546 252 525 q 255 641 272 594 q 238 735 238 687 q 257 838 238 791 q 310 920 276 885 q 391 974 344 955 q 495 994 438 994 q 575 979 539 994 q 636 939 610 965 q 676 876 662 913 q 690 797 690 840 l 654 791 q 633 807 636 788 q 623 851 631 827 q 598 895 615 875 q 554 930 581 916 q 490 943 528 943 q 412 928 447 943 q 352 886 377 913 q 313 823 326 859 q 299 743 299 786 q 320 646 299 695 q 383 546 342 597 l 628 244 q 685 348 663 295 q 717 451 708 401 q 736 468 721 468 l 778 468 q 739 334 769 403 q 663 201 710 265 l 827 0 z "},"@":{"ha":1061,"x_min":71,"x_max":1003,"o":"m 716 588 q 685 595 701 592 q 648 597 669 597 q 569 584 607 597 q 500 549 532 572 q 442 496 468 526 q 398 431 416 465 q 369 359 379 397 q 359 286 359 322 q 364 243 359 263 q 380 209 369 224 q 407 186 391 194 q 446 178 424 178 q 494 186 469 178 q 544 216 519 194 q 593 276 569 238 q 638 372 617 313 l 716 588 m 870 -58 q 704 -137 793 -110 q 509 -165 615 -165 q 333 -134 413 -165 q 194 -42 252 -102 q 103 105 136 18 q 71 301 71 191 q 92 472 71 391 q 149 622 113 553 q 237 747 186 691 q 349 842 288 803 q 479 902 410 881 q 619 924 547 924 q 767 898 697 924 q 890 823 837 873 q 973 701 942 774 q 1003 533 1003 628 q 980 369 1003 443 q 917 242 956 295 q 827 160 878 189 q 720 131 776 131 q 640 163 665 131 q 621 256 615 195 q 528 162 577 191 q 427 133 480 133 q 373 144 396 133 q 335 175 350 156 q 314 222 321 195 q 306 278 306 248 q 318 363 306 319 q 351 446 329 406 q 403 522 372 486 q 474 583 435 557 q 560 625 513 610 q 662 640 608 640 q 725 634 696 640 q 777 617 754 628 l 689 376 q 662 272 666 311 q 667 210 658 232 q 694 181 676 188 q 734 174 712 174 q 815 199 775 174 q 886 271 855 224 q 936 384 917 318 q 956 533 956 451 q 929 684 956 619 q 857 792 903 749 q 749 857 811 835 q 615 879 686 879 q 489 860 551 879 q 373 806 428 841 q 271 719 317 770 q 191 605 225 669 q 139 466 158 541 q 119 306 119 390 q 149 124 119 203 q 232 -10 179 44 q 357 -92 285 -64 q 514 -119 429 -119 q 690 -96 609 -119 q 837 -29 771 -72 q 856 -25 849 -22 q 865 -37 863 -29 l 870 -58 z "},"©":{"ha":1165,"x_min":90,"x_max":1092,"o":"m 794 296 q 805 293 800 297 l 829 269 q 733 203 788 228 q 597 179 677 179 q 474 202 530 179 q 378 265 418 224 q 316 364 338 306 q 294 492 294 422 q 317 619 294 562 q 382 718 340 677 q 481 783 424 760 q 608 806 539 806 q 674 800 644 806 q 730 785 704 795 q 778 761 756 775 q 822 728 800 747 l 805 705 q 791 697 800 697 q 773 706 784 697 q 741 726 761 715 q 689 746 721 737 q 610 755 658 755 q 506 736 553 755 q 425 684 458 718 q 373 601 391 650 q 354 492 354 553 q 373 381 354 430 q 424 299 391 333 q 501 248 456 265 q 599 230 546 230 q 665 235 637 230 q 715 249 692 240 q 756 270 737 258 q 794 296 774 282 m 90 492 q 108 625 90 560 q 159 744 126 689 q 237 846 191 800 q 338 924 283 892 q 458 975 394 957 q 591 993 522 993 q 724 975 660 993 q 844 924 788 957 q 946 846 900 892 q 1024 744 992 800 q 1074 625 1056 689 q 1092 492 1092 560 q 1074 358 1092 422 q 1024 239 1056 294 q 946 138 992 183 q 844 59 900 92 q 724 8 788 26 q 591 -10 660 -10 q 458 8 522 -10 q 338 59 394 26 q 237 138 283 92 q 159 239 191 183 q 108 358 126 294 q 90 492 90 422 m 131 492 q 167 311 131 395 q 265 164 203 226 q 411 65 328 101 q 591 28 495 28 q 771 65 687 28 q 918 164 856 101 q 1017 311 981 226 q 1053 492 1053 395 q 1017 673 1053 588 q 918 820 981 757 q 771 920 856 883 q 591 956 687 956 q 411 920 495 956 q 265 820 328 883 q 167 673 203 757 q 131 492 131 588 z "},"℗":{"ha":1165,"x_min":90,"x_max":1092,"o":"m 588 474 q 670 485 637 474 q 725 515 704 496 q 756 561 747 534 q 765 619 765 588 q 726 718 765 682 q 598 753 688 753 l 485 753 l 485 474 l 588 474 m 598 799 q 697 786 655 799 q 768 749 740 773 q 810 692 796 726 q 824 619 824 659 q 809 545 824 580 q 767 485 795 511 q 694 445 738 460 q 592 431 651 431 l 485 431 l 485 185 l 426 185 l 426 799 l 598 799 m 591 28 q 771 65 687 28 q 918 164 856 101 q 1017 311 981 226 q 1053 492 1053 395 q 1017 673 1053 588 q 918 820 981 757 q 771 920 856 883 q 591 956 687 956 q 411 920 495 956 q 265 820 328 883 q 167 673 203 757 q 131 492 131 588 q 167 311 131 395 q 265 164 203 226 q 411 65 328 101 q 591 28 495 28 m 591 993 q 724 975 660 993 q 844 924 788 957 q 946 846 900 892 q 1024 744 992 800 q 1074 625 1056 689 q 1092 492 1092 560 q 1074 358 1092 422 q 1024 239 1056 294 q 946 138 992 183 q 844 59 900 92 q 724 8 788 26 q 591 -10 660 -10 q 458 8 522 -10 q 338 59 394 26 q 237 138 283 92 q 159 239 191 183 q 108 358 126 294 q 90 492 90 422 q 108 625 90 560 q 159 744 126 689 q 237 846 191 800 q 338 924 283 892 q 458 975 394 957 q 591 993 522 993 z "},"®":{"ha":1165,"x_min":90,"x_max":1092,"o":"m 567 501 q 693 534 651 501 q 734 631 734 568 q 697 724 734 695 q 577 753 659 753 l 465 753 l 465 501 l 567 501 m 577 799 q 738 759 683 799 q 792 638 792 719 q 748 524 792 569 q 622 468 703 479 q 649 440 637 460 l 847 185 l 792 185 q 780 187 785 185 q 770 196 774 189 l 583 440 q 568 452 577 447 q 541 456 560 456 l 465 456 l 465 185 l 406 185 l 406 799 l 577 799 m 591 28 q 771 65 687 28 q 918 164 856 101 q 1017 311 981 226 q 1053 492 1053 395 q 1017 673 1053 588 q 918 820 981 757 q 771 920 856 883 q 591 956 687 956 q 411 920 495 956 q 265 820 328 883 q 167 673 203 757 q 131 492 131 588 q 167 311 131 395 q 265 164 203 226 q 411 65 328 101 q 591 28 495 28 m 591 993 q 724 975 660 993 q 844 924 788 957 q 946 846 900 892 q 1024 744 992 800 q 1074 625 1056 689 q 1092 492 1092 560 q 1074 358 1092 422 q 1024 239 1056 294 q 946 138 992 183 q 844 59 900 92 q 724 8 788 26 q 591 -10 660 -10 q 458 8 522 -10 q 338 59 394 26 q 237 138 283 92 q 159 239 191 183 q 108 358 126 294 q 90 492 90 422 q 108 625 90 560 q 159 744 126 689 q 237 846 191 800 q 338 924 283 892 q 458 975 394 957 q 591 993 522 993 z "},"™":{"ha":949,"x_min":120,"x_max":903,"o":"m 126 983 l 427 983 l 422 942 l 296 942 l 251 583 l 204 583 l 248 942 l 120 942 l 126 983 m 903 983 l 854 583 l 813 583 l 851 893 l 857 922 l 687 658 q 668 647 681 647 l 661 647 q 651 650 656 647 q 646 658 647 652 l 538 920 l 538 893 l 499 583 l 458 583 l 506 983 l 544 983 q 553 981 551 983 q 560 974 556 979 l 666 719 q 672 700 669 708 q 682 719 676 711 l 847 974 q 855 981 851 979 q 865 983 858 983 l 903 983 z "},"℠":{"ha":938,"x_min":126,"x_max":892,"o":"m 140 656 q 151 663 144 663 q 161 656 156 663 q 177 641 167 649 q 201 627 186 633 q 238 620 216 620 q 276 627 259 620 q 305 647 293 635 q 322 675 316 659 q 328 710 328 692 q 317 743 328 731 q 288 763 305 755 q 250 778 270 772 q 212 795 229 785 q 183 823 194 806 q 171 869 171 840 q 180 915 171 893 q 205 953 188 937 q 245 980 222 970 q 297 990 268 990 q 391 950 358 990 l 380 929 q 368 922 375 922 q 359 927 364 922 q 345 938 353 932 q 324 949 337 944 q 293 953 312 953 q 235 932 256 953 q 213 879 213 910 q 225 847 213 859 q 254 827 237 835 q 292 811 272 819 q 330 793 313 804 q 359 766 347 783 q 371 721 371 749 q 361 667 371 692 q 333 624 351 642 q 290 594 315 605 q 233 583 265 583 q 170 597 197 583 q 126 635 143 611 l 140 656 m 892 983 l 843 583 l 802 583 l 840 893 l 846 921 l 676 658 q 658 647 669 647 l 650 647 q 635 658 639 647 l 527 920 l 526 893 l 488 583 l 446 583 l 495 983 l 533 983 q 543 981 540 983 q 549 974 546 979 l 655 719 q 658 709 656 714 q 660 699 659 705 q 665 710 663 705 q 672 719 668 715 l 837 974 q 844 981 840 979 q 853 983 847 983 l 892 983 z "},"°":{"ha":565,"x_min":117,"x_max":535,"o":"m 117 788 q 134 868 117 831 q 178 934 150 906 q 244 978 207 963 q 325 994 282 994 q 407 978 369 994 q 474 934 446 963 q 518 868 502 906 q 535 788 535 831 q 518 707 535 744 q 474 641 502 669 q 407 597 446 613 q 325 581 369 581 q 244 597 282 581 q 178 641 207 613 q 134 707 150 669 q 117 788 117 744 m 165 788 q 177 725 165 754 q 211 674 190 696 q 263 640 233 653 q 325 628 292 628 q 388 640 358 628 q 438 674 417 653 q 472 725 460 696 q 485 788 485 754 q 472 850 485 821 q 438 901 460 879 q 388 935 417 923 q 325 948 358 948 q 263 935 292 948 q 211 901 233 923 q 177 850 190 879 q 165 788 165 821 z "},"¤":{"ha":806,"x_min":111,"x_max":696,"o":"m 216 466 q 231 393 216 427 q 271 334 246 359 q 331 293 297 308 q 403 278 365 278 q 477 293 443 278 q 538 334 512 308 q 578 393 563 359 q 593 466 593 427 q 578 539 593 505 q 538 599 563 574 q 477 640 512 625 q 403 655 443 655 q 331 640 365 655 q 271 599 297 625 q 231 539 246 574 q 216 466 216 505 m 662 174 l 555 281 q 485 242 524 256 q 403 228 447 228 q 323 242 360 228 q 254 281 285 256 l 147 174 l 113 208 l 219 315 q 180 385 194 347 q 166 466 166 423 q 180 547 166 509 q 219 616 194 585 l 111 723 l 146 758 l 252 651 q 322 691 283 676 q 403 705 360 705 q 485 691 447 705 q 554 652 523 676 l 661 758 l 695 724 l 589 617 q 628 548 614 586 q 642 466 642 510 q 628 385 642 423 q 590 316 615 347 l 696 209 l 662 174 z "},"€":{"ha":806,"x_min":12,"x_max":823,"o":"m 36 599 l 146 599 q 206 764 167 691 q 300 888 245 837 q 424 966 355 939 q 572 993 492 993 q 653 985 616 993 q 720 962 690 977 q 775 924 750 947 q 823 872 801 901 l 799 849 q 792 842 795 844 q 783 840 789 840 q 771 848 778 840 q 753 866 764 855 q 728 889 743 876 q 690 912 713 901 q 638 930 668 923 q 567 938 608 938 q 444 915 501 938 q 342 850 388 893 q 263 743 296 806 q 210 599 229 680 l 636 599 l 634 578 q 627 565 633 571 q 610 559 622 559 l 203 559 q 195 499 198 530 q 191 435 192 469 l 553 435 l 551 415 q 543 401 549 407 q 526 396 537 396 l 190 396 q 208 246 190 311 q 260 136 226 181 q 342 68 294 92 q 453 45 391 45 q 530 53 496 45 q 591 75 565 62 q 638 102 618 88 q 673 130 658 117 q 697 151 687 143 q 713 160 706 160 q 724 153 718 160 l 746 131 q 685 73 717 99 q 615 28 652 47 q 534 0 577 10 q 442 -10 491 -10 q 307 18 366 -10 q 207 98 247 46 q 145 226 166 151 q 124 394 124 301 l 124 396 l 12 396 l 16 435 l 125 435 q 129 499 126 468 q 138 559 132 530 l 32 559 l 36 599 z "},"$":{"ha":806,"x_min":55,"x_max":733,"o":"m 474 938 q 372 917 416 935 q 297 869 327 898 q 252 802 267 840 q 237 724 237 765 q 250 660 237 687 q 288 614 264 633 q 342 579 311 594 q 407 552 372 565 l 474 938 m 363 44 q 473 69 424 47 q 556 125 522 90 q 608 204 590 159 q 626 299 626 249 q 611 367 626 339 q 569 415 595 394 q 509 449 543 435 q 437 476 474 463 l 363 44 m 526 992 q 645 961 596 987 q 733 891 694 936 l 715 868 q 697 857 707 857 q 676 868 688 857 q 644 894 664 880 q 593 922 624 909 q 517 938 562 935 l 448 538 q 535 506 492 523 q 613 465 578 490 q 668 404 647 440 q 690 314 690 368 q 666 193 690 250 q 599 91 642 135 q 493 20 555 47 q 353 -10 431 -7 l 328 -158 q 320 -173 326 -167 q 305 -179 314 -179 l 281 -179 l 310 -10 q 159 28 221 -6 q 55 117 98 62 l 76 144 q 97 153 86 153 q 111 146 103 153 q 131 127 119 138 q 159 101 143 115 q 198 75 176 88 q 250 55 221 63 q 319 44 280 46 l 396 489 q 315 519 354 503 q 244 561 275 536 q 194 622 213 586 q 176 710 176 658 q 197 815 176 765 q 258 904 218 865 q 354 967 297 943 q 483 993 411 991 l 503 1108 q 510 1124 504 1118 q 526 1130 517 1130 l 550 1130 l 526 992 z "},"¢":{"ha":806,"x_min":103,"x_max":709,"o":"m 475 651 q 345 623 402 649 q 248 551 288 597 q 187 440 208 505 q 166 295 166 375 q 180 194 166 239 q 221 117 194 149 q 285 66 247 85 q 372 42 324 47 l 475 651 m 527 700 q 632 674 587 694 q 709 622 677 653 l 690 600 q 683 594 687 597 q 674 592 680 592 q 658 600 668 592 q 629 618 647 608 q 584 637 611 628 q 519 650 558 647 l 414 41 q 503 54 466 42 q 566 80 541 66 q 606 104 592 93 q 628 115 621 115 q 640 109 636 115 l 655 88 q 611 52 637 69 q 553 22 585 35 q 483 1 521 9 q 406 -8 446 -7 l 381 -155 q 373 -170 379 -164 q 358 -176 367 -176 l 334 -176 l 363 -8 q 255 18 303 -4 q 173 79 207 40 q 121 171 139 117 q 103 292 103 225 q 129 456 103 381 q 205 585 156 531 q 325 669 254 639 q 484 701 395 700 l 508 845 q 516 860 510 853 q 531 867 522 867 l 556 867 l 527 700 z "},"£":{"ha":806,"x_min":12,"x_max":774,"o":"m 591 459 q 583 445 590 451 q 567 440 577 440 l 238 440 l 210 216 q 199 161 206 185 q 179 117 191 137 q 151 81 167 97 q 113 51 135 65 q 142 55 128 53 q 172 56 157 56 l 722 56 l 719 29 q 708 9 717 19 q 686 0 699 0 l 12 0 l 17 44 q 63 66 42 53 q 100 96 84 78 q 127 139 117 114 q 142 201 138 165 l 172 440 l 49 440 l 53 465 q 60 478 54 473 q 76 484 66 484 l 177 484 l 202 690 q 236 810 210 755 q 305 907 263 866 q 405 970 347 947 q 533 994 463 994 q 630 981 590 994 q 699 946 670 968 q 745 894 727 924 q 774 831 763 865 l 746 816 q 713 824 724 806 q 688 867 701 847 q 654 904 675 888 q 603 930 633 920 q 527 939 572 939 q 428 921 473 939 q 350 870 383 903 q 296 791 317 837 q 268 691 275 746 l 243 484 l 593 484 l 591 459 l 591 459 z "},"¥":{"ha":806,"x_min":94,"x_max":808,"o":"m 447 428 l 688 428 l 683 388 l 428 388 l 418 306 l 673 306 l 668 267 l 413 267 l 381 0 l 317 0 l 349 267 l 94 267 l 99 306 l 354 306 l 364 388 l 109 388 l 114 428 l 355 428 l 130 983 l 184 983 q 207 965 203 983 l 392 501 q 400 476 397 488 q 404 452 403 464 q 415 476 409 464 q 428 501 420 488 l 726 965 q 738 978 731 973 q 754 983 744 983 l 808 983 l 447 428 z "},"℅":{"ha":1038,"x_min":90,"x_max":969,"o":"m 863 970 q 873 979 867 976 q 888 983 878 983 l 933 983 l 164 12 q 140 0 156 0 l 93 0 l 863 970 m 428 588 q 435 585 431 588 l 452 563 q 377 509 419 528 q 279 490 335 490 q 200 505 235 490 q 141 549 165 521 q 103 617 117 578 q 90 705 90 657 q 110 823 90 769 q 164 916 130 877 q 245 976 199 954 q 347 997 292 997 q 431 981 395 997 q 490 935 466 965 l 471 912 q 459 906 467 906 q 447 913 454 906 q 426 929 439 920 q 392 945 413 938 q 342 952 372 952 q 264 935 300 952 q 200 887 227 918 q 158 811 174 856 q 143 710 143 766 q 154 636 143 669 q 184 581 165 603 q 229 546 203 558 q 288 534 256 534 q 327 537 309 534 q 361 547 345 540 q 390 562 376 553 q 418 584 404 572 q 428 588 424 588 m 969 278 q 950 161 969 215 q 896 69 931 108 q 815 10 862 31 q 712 -11 767 -11 q 632 5 667 -11 q 570 49 596 21 q 532 117 545 78 q 518 205 518 157 q 538 323 518 269 q 591 415 557 376 q 673 475 626 453 q 774 496 719 496 q 856 480 819 496 q 917 435 892 464 q 956 366 942 406 q 969 278 969 326 m 916 277 q 906 349 916 317 q 877 404 896 381 q 830 439 858 426 q 769 451 803 451 q 689 434 726 451 q 626 385 653 417 q 585 308 600 353 q 570 207 570 263 q 610 80 570 126 q 718 33 649 33 q 798 50 762 33 q 860 99 834 67 q 901 176 887 131 q 916 277 916 221 z "},"№":{"ha":1460,"x_min":97,"x_max":1424,"o":"m 1247 950 q 1181 936 1211 950 q 1127 895 1150 922 q 1092 830 1105 868 q 1080 744 1080 792 q 1113 636 1080 675 q 1204 597 1147 597 q 1272 611 1241 597 q 1324 652 1302 625 q 1359 717 1347 678 q 1372 803 1372 755 q 1339 910 1372 871 q 1247 950 1306 950 m 1199 552 q 1128 566 1160 552 q 1075 605 1097 580 q 1042 665 1053 630 q 1030 741 1030 699 q 1047 843 1030 797 q 1094 922 1064 889 q 1164 974 1124 956 q 1253 993 1205 993 q 1324 979 1292 993 q 1378 940 1356 965 q 1412 881 1400 915 q 1424 804 1424 846 q 1407 702 1424 748 q 1359 622 1390 656 q 1288 570 1329 589 q 1199 552 1247 552 m 858 983 l 918 983 l 797 0 l 764 0 q 750 3 756 0 q 740 13 745 6 l 263 868 q 261 849 262 858 q 260 831 261 840 l 157 0 l 97 0 l 217 983 l 251 983 q 266 980 261 983 q 276 969 271 977 l 753 116 q 754 135 753 126 q 756 153 755 145 l 858 983 m 990 438 l 1379 438 l 1374 391 l 985 391 l 990 438 z "},"#":{"ha":806,"x_min":41,"x_max":781,"o":"m 558 627 l 351 627 l 259 356 l 467 356 l 558 627 m 781 674 l 774 649 q 742 627 769 627 l 613 627 l 521 356 l 678 356 q 694 349 690 356 q 696 328 699 343 l 690 308 l 508 308 l 406 0 l 378 0 q 361 8 367 0 q 361 30 356 16 l 454 308 l 246 308 l 152 27 q 139 6 148 13 q 117 0 129 0 l 89 0 l 192 308 l 65 308 q 48 335 41 308 l 53 356 l 205 356 l 297 627 l 120 627 l 126 653 q 160 674 131 674 l 309 674 l 404 956 q 438 983 413 983 l 467 983 l 363 674 l 571 674 l 674 983 l 703 983 q 719 975 714 983 q 720 954 725 967 l 625 674 l 781 674 z "},"₀":{"ha":464,"x_min":7,"x_max":376,"o":"m 376 140 q 358 6 376 63 q 310 -88 340 -51 q 242 -144 281 -126 q 160 -162 203 -162 q 99 -150 127 -162 q 50 -112 71 -137 q 18 -49 30 -87 q 7 40 7 -11 q 24 175 7 117 q 72 270 42 232 q 140 326 101 308 q 223 344 179 344 q 283 332 256 344 q 332 294 311 319 q 364 230 352 268 q 376 140 376 192 m 326 145 q 318 217 326 187 q 295 267 310 247 q 260 295 281 286 q 217 304 240 304 q 157 290 186 304 q 105 245 128 276 q 69 163 83 213 q 56 38 56 112 q 64 -34 56 -4 q 87 -84 72 -65 q 122 -113 102 -103 q 165 -122 142 -122 q 226 -108 197 -122 q 278 -61 256 -93 q 313 22 300 -29 q 326 145 326 72 z "},"₁":{"ha":464,"x_min":52,"x_max":315,"o":"m 315 -120 l 311 -157 l 52 -157 l 57 -120 l 167 -120 l 213 253 l 219 279 l 108 191 q 94 187 100 185 q 84 192 88 189 l 72 214 l 233 341 l 273 341 l 217 -120 l 315 -120 z "},"₂":{"ha":464,"x_min":-5,"x_max":357,"o":"m 312 -112 q 327 -128 328 -112 l 324 -157 l -5 -157 l -3 -140 q 0 -130 -2 -135 q 8 -119 3 -124 l 193 45 q 238 87 217 67 q 274 129 259 108 q 299 173 290 151 q 308 220 308 195 q 301 257 308 242 q 282 283 294 273 q 253 299 269 294 q 219 304 237 304 q 145 280 176 304 q 101 216 115 256 q 90 205 96 208 q 74 203 85 202 l 49 208 q 114 309 67 274 q 226 344 162 344 q 278 337 254 344 q 320 314 302 329 q 347 277 338 299 q 357 226 357 255 q 346 168 357 194 q 318 118 335 142 q 277 73 300 94 q 228 28 253 51 l 65 -119 q 92 -114 78 -116 q 119 -112 106 -112 l 312 -112 z "},"₃":{"ha":464,"x_min":6,"x_max":356,"o":"m 51 208 q 77 266 60 241 q 117 309 94 292 q 167 335 140 326 q 226 344 195 344 q 278 337 254 344 q 319 315 301 329 q 346 280 336 301 q 356 233 356 259 q 326 148 356 181 q 249 101 297 115 q 316 65 293 91 q 338 -1 338 39 q 323 -67 338 -37 q 283 -118 308 -97 q 226 -151 258 -140 q 158 -162 193 -162 q 89 -152 116 -162 q 45 -124 62 -142 q 19 -83 28 -106 q 6 -35 10 -60 l 28 -26 q 44 -24 36 -22 q 55 -34 52 -25 q 60 -54 56 -40 q 74 -84 63 -69 q 105 -110 85 -99 q 160 -122 125 -122 q 215 -112 191 -122 q 255 -85 239 -101 q 280 -48 272 -68 q 289 -6 289 -27 q 282 29 289 13 q 261 56 276 44 q 222 74 246 67 q 165 80 199 80 l 169 115 q 272 144 237 116 q 307 223 307 173 q 300 259 307 244 q 281 284 293 274 q 253 299 269 294 q 219 303 238 303 q 145 280 175 303 q 101 217 115 256 q 91 205 96 208 q 76 203 86 202 l 51 208 z "},"₄":{"ha":464,"x_min":-10,"x_max":368,"o":"m 238 17 l 267 249 q 269 267 268 258 q 274 287 271 277 l 40 17 l 238 17 m 368 17 l 366 -10 q 361 -18 365 -15 q 352 -21 358 -21 l 276 -21 l 259 -157 l 217 -157 l 233 -21 l 7 -21 q -9 -10 -9 -21 l -10 14 l 274 339 l 319 339 l 281 17 l 368 17 z "},"₅":{"ha":464,"x_min":7,"x_max":356,"o":"m 356 339 l 353 318 q 345 301 352 308 q 323 294 338 294 l 156 294 l 111 146 q 207 155 166 158 q 276 134 249 151 q 317 90 303 117 q 331 28 331 63 q 315 -51 331 -16 q 272 -111 299 -86 q 209 -149 245 -136 q 135 -162 174 -162 q 59 -148 92 -162 q 7 -115 26 -134 l 23 -94 q 38 -87 31 -87 q 51 -92 43 -87 q 71 -104 59 -98 q 100 -116 83 -110 q 142 -122 117 -122 q 195 -112 169 -122 q 240 -85 220 -103 q 270 -40 259 -67 q 281 21 281 -14 q 270 70 281 49 q 235 102 258 91 q 175 115 211 114 q 88 102 138 115 l 60 111 l 127 339 l 356 339 z "},"₆":{"ha":464,"x_min":19,"x_max":349,"o":"m 166 -125 q 221 -115 196 -125 q 264 -87 246 -105 q 291 -45 281 -69 q 301 7 301 -22 q 274 78 301 52 q 202 104 248 104 q 146 93 171 104 q 103 65 121 83 q 76 24 85 47 q 67 -23 67 1 q 74 -64 67 -45 q 93 -96 81 -82 q 125 -117 106 -110 q 166 -125 143 -125 m 160 158 q 133 128 147 142 q 108 100 119 114 q 159 131 131 119 q 219 142 188 142 q 271 133 247 142 q 313 108 295 124 q 340 68 330 92 q 349 14 349 44 q 335 -57 349 -24 q 295 -112 320 -89 q 235 -149 269 -136 q 160 -162 201 -162 q 101 -152 128 -162 q 57 -124 75 -142 q 28 -79 38 -105 q 19 -20 19 -53 q 38 63 19 22 q 101 151 58 103 l 253 328 q 264 336 257 333 q 280 339 271 339 l 322 339 l 160 158 z "},"₇":{"ha":464,"x_min":45,"x_max":390,"o":"m 390 339 l 386 305 l 99 -157 l 45 -157 l 317 271 q 334 294 326 284 l 63 294 q 55 298 59 294 q 52 307 51 301 l 56 339 l 390 339 z "},"₈":{"ha":464,"x_min":12,"x_max":354,"o":"m 166 -125 q 217 -117 194 -125 q 258 -93 241 -108 q 285 -56 275 -78 q 294 -7 294 -34 q 285 36 294 19 q 260 63 275 53 q 227 77 245 73 q 191 81 208 81 q 147 76 170 81 q 106 57 124 70 q 74 21 87 44 q 62 -35 62 -1 q 90 -100 62 -75 q 166 -125 117 -125 m 105 203 q 110 171 105 186 q 127 144 116 156 q 155 126 138 133 q 196 119 172 119 q 245 128 224 119 q 281 151 267 137 q 302 185 294 166 q 309 226 309 205 q 286 284 309 260 q 218 308 263 308 q 171 299 192 308 q 135 277 150 291 q 113 244 121 263 q 105 203 105 224 m 257 101 q 320 63 297 90 q 343 -7 343 37 q 329 -72 343 -43 q 291 -121 315 -101 q 234 -152 267 -141 q 162 -162 201 -162 q 100 -154 127 -162 q 52 -129 72 -145 q 22 -91 33 -113 q 12 -40 12 -68 q 44 54 12 19 q 130 102 76 90 q 77 141 94 115 q 59 201 59 167 q 71 258 59 231 q 105 303 83 284 q 157 333 126 322 q 224 344 187 344 q 278 335 254 344 q 319 311 303 326 q 345 275 336 296 q 354 231 354 254 q 330 150 354 184 q 257 101 305 116 z "},"₉":{"ha":464,"x_min":42,"x_max":358,"o":"m 90 181 q 115 113 90 138 q 185 88 140 88 q 238 99 214 88 q 279 126 262 109 q 305 164 296 142 q 315 209 315 186 q 308 248 315 230 q 288 279 301 266 q 257 299 275 292 q 218 306 240 306 q 166 297 190 306 q 126 272 143 288 q 99 232 108 256 q 90 181 90 209 m 227 36 q 252 65 240 51 q 274 91 264 78 q 225 63 252 72 q 168 53 197 53 q 117 62 140 53 q 77 87 94 71 q 51 126 60 103 q 42 178 42 149 q 56 242 42 212 q 94 295 69 273 q 152 331 119 318 q 222 344 185 344 q 278 334 253 344 q 321 306 303 324 q 349 263 339 288 q 358 208 358 238 q 353 162 358 183 q 338 121 348 141 q 313 80 328 101 q 280 37 299 60 l 131 -147 q 106 -157 122 -157 l 62 -157 l 227 36 z "},"₊":{"ha":464,"x_min":23,"x_max":357,"o":"m 353 62 l 207 62 l 188 -92 l 150 -92 l 169 62 l 23 62 l 27 99 l 173 99 l 192 251 l 230 251 l 211 99 l 357 99 l 353 62 z "},"₋":{"ha":464,"x_min":39,"x_max":338,"o":"m 44 99 l 338 99 l 334 62 l 39 62 l 44 99 z "},"₌":{"ha":464,"x_min":33,"x_max":345,"o":"m 38 43 l 332 43 l 327 7 l 33 7 l 38 43 m 51 156 l 345 156 l 341 119 l 47 119 l 51 156 z "},"₍":{"ha":232,"x_min":13,"x_max":180,"o":"m 56 31 q 68 -84 56 -25 q 105 -193 80 -143 q 106 -206 108 -201 q 98 -214 103 -211 l 75 -227 q 28 -99 42 -164 q 13 26 13 -33 q 20 121 13 76 q 42 212 26 167 q 85 305 58 258 q 153 406 112 353 l 172 394 q 178 387 176 392 q 174 373 180 382 q 86 210 117 293 q 56 31 56 127 z "},"₎":{"ha":232,"x_min":-30,"x_max":136,"o":"m 94 138 q 81 253 94 194 q 44 363 69 313 q 44 377 41 372 q 51 383 47 381 l 74 396 q 122 268 107 333 q 136 144 136 203 q 131 52 136 97 q 110 -38 125 8 q 67 -132 94 -83 q -3 -237 40 -181 l -24 -224 q -28 -216 -27 -221 q -24 -204 -30 -212 q 63 -41 33 -124 q 94 138 94 42 z "},"⁄":{"ha":194,"x_min":-243,"x_max":455,"o":"m -177 22 q -195 5 -186 9 q -217 0 -205 0 l -243 0 l 387 958 q 404 976 394 970 q 427 983 414 983 l 455 983 l -177 22 z "},"⅔":{"ha":963,"x_min":79,"x_max":881,"o":"m 217 22 q 199 5 208 9 q 178 0 190 0 l 151 0 l 781 958 q 799 976 789 970 q 822 983 808 983 l 849 983 l 217 22 m 396 531 q 411 515 413 531 l 408 487 l 79 487 l 81 503 q 84 514 82 508 q 92 524 87 519 l 277 689 q 322 731 301 710 q 358 773 343 751 q 383 817 374 794 q 392 864 392 839 q 385 901 392 885 q 366 927 378 917 q 337 943 353 938 q 303 948 321 948 q 230 924 260 948 q 185 860 199 899 q 174 849 180 852 q 158 847 169 846 l 133 851 q 198 953 151 918 q 310 988 246 988 q 362 981 338 988 q 404 958 386 973 q 431 920 422 942 q 441 869 441 899 q 430 812 441 838 q 402 762 419 785 q 361 716 384 738 q 312 672 338 694 l 149 524 q 176 530 162 528 q 203 531 190 531 l 396 531 m 576 365 q 602 423 585 398 q 642 466 619 449 q 692 492 665 483 q 751 501 720 501 q 803 494 779 501 q 844 472 826 486 q 871 437 861 458 q 881 390 881 416 q 851 305 881 338 q 774 258 822 272 q 841 222 818 248 q 863 156 863 196 q 848 90 863 119 q 808 39 833 60 q 751 6 783 17 q 683 -6 718 -6 q 614 5 641 -6 q 570 33 587 15 q 544 74 553 51 q 531 122 535 97 l 553 131 q 569 133 561 135 q 580 123 577 132 q 585 103 581 117 q 599 73 588 88 q 630 47 610 58 q 685 35 650 35 q 740 45 716 35 q 780 72 764 56 q 805 109 797 89 q 814 151 814 130 q 807 186 814 170 q 786 213 801 201 q 747 231 771 224 q 690 237 724 237 l 694 272 q 797 301 762 273 q 832 380 832 330 q 825 416 832 401 q 806 441 818 431 q 778 456 794 451 q 744 460 763 460 q 670 436 700 460 q 626 374 640 413 q 616 362 621 365 q 601 360 611 359 l 576 365 z "},"⅖":{"ha":953,"x_min":78,"x_max":874,"o":"m 217 22 q 199 5 208 9 q 178 0 190 0 l 151 0 l 781 958 q 799 976 789 970 q 822 983 808 983 l 849 983 l 217 22 m 395 531 q 410 515 412 531 l 407 487 l 78 487 l 80 503 q 84 514 81 508 q 92 524 86 519 l 276 689 q 321 731 300 710 q 358 773 342 751 q 382 817 373 794 q 391 864 391 839 q 384 901 391 885 q 365 927 377 917 q 336 943 353 938 q 302 948 320 948 q 229 924 259 948 q 184 860 199 899 q 174 849 179 852 q 158 847 168 846 l 133 851 q 198 953 150 918 q 310 988 245 988 q 361 981 338 988 q 403 958 385 973 q 431 920 421 942 q 440 869 440 899 q 430 812 440 838 q 401 762 419 785 q 360 716 383 738 q 311 672 337 694 l 149 524 q 175 530 161 528 q 202 531 189 531 l 395 531 m 874 496 l 872 475 q 863 458 870 465 q 841 451 856 451 l 674 451 l 629 303 q 725 311 684 315 q 794 291 767 308 q 835 247 822 274 q 849 185 849 219 q 833 106 849 141 q 790 46 817 71 q 727 8 763 21 q 653 -6 692 -6 q 577 9 610 -6 q 525 42 544 23 l 541 63 q 556 70 549 70 q 569 65 561 70 q 589 53 577 59 q 618 41 601 47 q 660 35 635 35 q 713 45 688 35 q 758 72 738 54 q 788 117 777 90 q 799 178 799 143 q 788 227 799 206 q 753 259 776 248 q 693 272 729 271 q 606 259 656 272 l 578 268 l 645 496 l 874 496 z "},"+":{"ha":806,"x_min":81,"x_max":738,"o":"m 732 441 l 432 441 l 393 126 l 340 126 l 379 441 l 81 441 l 86 490 l 385 490 l 424 803 l 476 803 l 438 490 l 738 490 l 732 441 z "},"−":{"ha":806,"x_min":117,"x_max":697,"o":"m 122 490 l 697 490 l 691 441 l 117 441 l 122 490 z "},"×":{"ha":806,"x_min":82,"x_max":731,"o":"m 444 465 l 671 207 l 633 172 l 405 431 l 112 170 l 82 206 l 374 465 l 149 722 l 189 758 l 413 501 l 700 756 l 731 720 l 444 465 z "},"÷":{"ha":806,"x_min":79,"x_max":737,"o":"m 85 490 l 737 490 l 731 441 l 79 441 l 85 490 m 374 704 q 380 732 374 719 q 395 755 385 745 q 418 771 405 765 q 445 776 431 776 q 485 759 469 776 q 501 718 501 742 q 495 691 501 703 q 480 668 490 678 q 456 654 469 659 q 429 649 443 649 q 389 665 404 649 q 374 704 374 681 m 313 210 q 318 238 313 224 q 334 261 324 251 q 357 276 344 271 q 384 282 369 282 q 424 265 408 282 q 440 224 440 248 q 434 196 440 209 q 419 174 428 183 q 396 159 409 165 q 368 154 383 154 q 328 170 344 154 q 313 210 313 187 z "},"=":{"ha":806,"x_min":103,"x_max":709,"o":"m 109 385 l 683 385 l 677 336 l 103 336 l 109 385 m 135 602 l 709 602 l 703 553 l 130 553 l 135 602 z "},"≠":{"ha":806,"x_min":206,"x_max":612,"o":"m 563 789 l 612 789 l 253 147 l 206 147 l 563 789 z "},"≈":{"ha":806,"x_min":130,"x_max":685,"o":"m 558 561 q 594 565 576 561 q 627 577 611 569 q 655 593 642 584 q 677 612 668 602 l 685 573 q 624 527 660 543 q 549 511 588 511 q 480 524 513 511 q 414 551 447 536 q 350 579 382 567 q 286 592 318 592 q 216 576 248 592 q 167 540 184 560 l 157 578 q 217 625 181 609 q 295 642 253 642 q 365 629 331 642 q 431 601 399 617 q 495 574 463 586 q 558 561 526 561 m 532 342 q 567 347 549 342 q 600 358 585 351 q 629 374 616 365 q 650 393 642 383 l 658 354 q 598 309 634 325 q 522 292 561 292 q 453 305 487 292 q 387 333 419 317 q 322 360 354 348 q 258 373 290 373 q 222 369 240 373 q 189 357 204 365 q 161 341 173 350 q 140 322 149 332 l 130 359 q 191 407 154 390 q 269 424 227 424 q 339 411 305 424 q 405 383 372 398 q 468 355 437 368 q 532 342 500 342 z "},"<":{"ha":806,"x_min":126,"x_max":683,"o":"m 683 748 l 677 703 q 656 678 676 688 l 247 484 q 196 467 226 474 q 243 449 222 460 l 603 253 q 619 229 621 245 l 613 184 l 126 452 l 128 474 l 128 474 l 129 481 l 683 748 z "},">":{"ha":806,"x_min":133,"x_max":690,"o":"m 688 458 l 687 452 l 133 184 l 138 229 q 144 243 140 237 q 160 253 149 249 l 568 449 q 620 466 591 460 q 572 484 594 472 l 212 678 q 197 703 194 688 l 202 748 l 690 481 l 688 458 z "},"±":{"ha":806,"x_min":35,"x_max":744,"o":"m 41 105 l 693 105 l 687 56 l 35 56 l 41 105 m 744 517 l 738 468 l 438 468 l 403 188 l 351 188 l 385 468 l 87 468 l 92 517 l 391 517 l 426 799 l 478 799 l 443 517 l 744 517 z "},"≤":{"ha":806,"x_min":97,"x_max":705,"o":"m 705 766 l 700 723 q 694 709 699 715 q 676 697 689 703 l 271 509 q 244 500 258 504 q 216 492 231 496 q 267 475 244 486 l 625 286 q 641 275 637 281 q 643 261 644 269 l 638 217 l 149 478 l 149 485 l 150 488 l 151 500 l 152 500 l 153 506 l 705 766 m 103 106 l 624 106 l 617 56 l 97 56 l 103 106 z "},"≥":{"ha":806,"x_min":103,"x_max":680,"o":"m 677 485 l 676 478 l 123 217 l 128 261 q 135 275 130 269 q 153 286 140 281 l 558 475 q 613 492 583 486 q 586 500 599 496 q 562 509 574 504 l 203 697 q 188 709 192 703 q 185 723 184 715 l 190 766 l 680 506 l 677 485 m 110 106 l 631 106 l 624 56 l 103 56 l 110 106 z "},"¬":{"ha":806,"x_min":119,"x_max":699,"o":"m 694 441 l 693 441 l 668 236 l 613 236 l 638 441 l 119 441 l 124 490 l 699 490 l 694 441 z "},"℮":{"ha":1150,"x_min":92,"x_max":1092,"o":"m 1007 567 q 978 716 1007 646 q 895 838 949 785 q 767 920 842 890 q 600 950 692 950 q 434 919 510 950 q 303 835 358 888 q 217 709 248 781 q 185 553 185 637 l 1007 553 l 1007 567 m 185 443 q 198 344 185 394 q 238 250 212 295 q 302 165 264 204 q 389 98 340 126 q 498 52 438 69 q 626 36 557 36 q 840 83 748 36 q 999 215 933 129 l 1036 188 q 863 43 968 96 q 613 -10 758 -10 q 464 9 533 -10 q 336 60 394 27 q 232 140 278 94 q 156 242 187 186 q 108 360 124 297 q 92 490 92 424 q 129 689 92 597 q 233 848 166 781 q 393 955 300 916 q 597 993 486 993 q 801 956 710 993 q 956 853 892 919 q 1056 700 1021 788 q 1092 511 1091 613 l 185 511 l 185 443 z "},"ℓ":{"ha":651,"x_min":34,"x_max":642,"o":"m 498 942 q 403 905 449 942 q 317 802 356 867 q 250 650 278 738 q 211 461 222 562 q 363 530 294 490 q 481 615 432 569 q 558 715 531 662 q 585 826 585 768 q 561 913 585 884 q 498 942 538 942 m 34 413 q 146 440 92 424 q 190 656 157 555 q 271 832 223 757 q 380 951 319 908 q 506 994 440 994 q 567 981 542 994 q 610 944 593 967 q 634 892 626 922 q 642 831 642 863 q 611 699 642 761 q 524 583 581 637 q 387 486 467 530 q 206 410 306 442 q 204 340 204 375 q 211 200 204 257 q 233 109 219 144 q 269 58 248 74 q 319 43 291 43 q 425 90 374 43 q 516 237 476 138 l 570 223 q 531 135 556 178 q 472 60 506 93 q 397 8 438 28 q 309 -12 356 -12 q 236 5 268 -12 q 184 64 205 23 q 151 170 163 104 q 140 331 140 235 q 141 361 140 346 q 142 390 141 376 q 93 377 117 383 q 42 366 68 372 l 34 413 z "},"∞":{"ha":954,"x_min":79,"x_max":872,"o":"m 810 410 q 808 478 815 449 q 786 528 801 508 q 748 559 771 549 q 697 570 725 570 q 644 557 669 570 q 595 522 619 544 q 550 470 572 499 q 505 410 527 442 q 535 350 519 379 q 569 299 551 321 q 609 263 587 276 q 658 250 631 250 q 712 261 686 250 q 758 292 738 272 q 792 342 778 312 q 810 410 806 372 m 252 250 q 305 263 280 250 q 354 299 331 276 q 400 350 378 321 q 445 410 423 378 q 415 470 431 441 q 381 522 399 499 q 341 557 363 544 q 291 570 319 570 q 238 559 264 570 q 192 528 213 549 q 158 478 172 508 q 139 410 144 449 q 141 342 134 372 q 164 292 148 312 q 202 261 179 272 q 252 250 225 250 m 706 624 q 775 609 744 624 q 829 567 807 594 q 861 499 851 539 q 865 410 872 460 q 839 321 859 361 q 791 253 819 281 q 726 211 762 226 q 653 196 691 196 q 591 209 618 196 q 541 246 563 223 q 502 299 519 269 q 469 360 484 328 q 420 299 445 328 q 367 246 395 269 q 309 209 340 223 q 243 196 278 196 q 175 211 206 196 q 121 253 143 226 q 89 321 99 281 q 85 410 79 361 q 111 499 92 460 q 160 567 131 539 q 224 609 189 594 q 296 624 259 624 q 359 611 331 624 q 408 574 386 597 q 448 522 430 551 q 481 460 465 492 q 530 522 505 492 q 582 574 554 551 q 640 611 610 597 q 706 624 671 624 z "},"∂":{"ha":733,"x_min":42,"x_max":701,"o":"m 265 44 q 364 69 316 44 q 452 139 411 93 q 526 251 492 185 q 582 401 559 317 q 571 472 580 437 q 542 533 562 506 q 493 577 523 560 q 419 594 463 594 q 306 568 358 594 q 215 499 254 543 q 151 395 176 455 q 117 265 126 335 q 118 172 111 213 q 145 103 126 131 q 195 59 165 74 q 265 44 226 44 m 308 931 q 356 960 333 948 q 402 980 379 972 q 448 991 424 988 q 498 995 472 995 q 594 970 553 995 q 660 898 635 945 q 693 782 685 851 q 690 626 701 714 q 636 375 673 491 q 543 174 599 259 q 414 40 488 88 q 249 -8 340 -8 q 157 10 197 -8 q 90 65 116 29 q 52 150 63 100 q 49 264 42 201 q 91 413 59 343 q 172 535 123 483 q 283 617 220 587 q 418 647 346 647 q 482 637 452 647 q 537 609 513 628 q 580 560 562 590 q 608 492 598 531 q 621 568 616 531 q 629 627 626 605 q 610 860 648 780 q 483 941 573 941 q 427 934 452 941 q 384 918 403 926 q 352 902 365 910 q 333 895 340 895 q 318 907 324 895 l 308 931 z "},"∫":{"ha":567,"x_min":-60,"x_max":632,"o":"m 300 870 q 330 988 308 939 q 384 1068 351 1037 q 458 1114 416 1099 q 548 1128 499 1128 q 593 1125 571 1128 q 632 1113 616 1122 l 627 1085 q 621 1077 625 1079 q 610 1075 617 1075 q 591 1076 603 1075 q 560 1078 578 1078 q 485 1067 519 1078 q 427 1031 452 1056 q 387 967 403 1006 q 364 872 371 928 l 272 9 q 242 -109 263 -60 q 188 -189 220 -158 q 114 -235 156 -220 q 24 -249 72 -249 q -21 -246 1 -249 q -60 -233 -44 -243 l -56 -206 q -49 -198 -53 -200 q -38 -196 -45 -196 q -19 -197 -31 -196 q 11 -199 -7 -199 q 86 -187 53 -199 q 144 -152 119 -176 q 185 -88 169 -127 q 208 8 201 -49 l 300 870 z "},"√":{"ha":873,"x_min":48,"x_max":949,"o":"m 949 1194 l 414 0 l 361 0 l 234 480 l 74 480 q 55 486 63 480 q 50 508 48 492 l 52 528 l 270 528 q 285 523 280 528 q 292 511 291 517 l 391 133 q 396 104 394 118 q 398 75 397 90 q 415 126 406 101 l 884 1177 q 895 1190 888 1185 q 910 1194 901 1194 l 949 1194 z "},"∏":{"ha":933,"x_min":107,"x_max":952,"o":"m 946 927 l 799 927 l 656 -244 l 590 -244 l 733 927 l 319 927 l 175 -244 l 109 -244 l 253 927 l 107 927 l 113 983 l 952 983 l 946 927 z "},"∑":{"ha":875,"x_min":-31,"x_max":880,"o":"m 873 926 l 214 926 l 556 378 l 553 360 l 76 -187 l 736 -187 l 729 -244 l -31 -244 l -28 -219 q -18 -198 -27 -206 l 479 370 l 121 935 q 117 958 114 944 l 119 983 l 880 983 l 873 926 z "},"◊":{"ha":806,"x_min":108,"x_max":712,"o":"m 656 471 l 424 947 q 416 967 419 958 q 410 987 413 977 q 403 967 406 977 q 395 947 400 958 l 165 471 l 395 -5 q 403 -26 400 -16 q 410 -45 406 -35 q 416 -26 413 -35 q 424 -5 419 -16 l 656 471 m 712 471 l 433 -107 l 387 -107 l 108 471 l 387 1049 l 433 1049 l 712 471 z "},"←":{"ha":1389,"x_min":85,"x_max":1299,"o":"m 85 442 l 468 825 l 490 803 q 495 786 497 794 q 485 770 493 778 l 221 506 q 175 465 196 481 q 221 470 196 468 q 275 472 246 472 l 1299 472 l 1299 411 l 275 411 q 221 413 246 411 q 175 417 197 415 q 197 400 185 410 q 221 378 208 390 l 488 110 q 498 95 496 103 q 492 78 500 87 l 470 55 l 85 442 z "},"→":{"ha":1389,"x_min":90,"x_max":1304,"o":"m 1304 441 l 921 58 l 899 80 q 893 97 891 89 q 903 113 895 106 l 1168 377 q 1192 400 1181 390 q 1213 417 1203 410 q 1168 413 1192 415 q 1114 411 1143 411 l 90 411 l 90 472 l 1114 472 q 1168 470 1143 472 q 1214 465 1193 468 q 1168 506 1193 481 l 901 772 q 891 788 893 780 q 897 805 889 796 l 918 828 l 1304 441 z "},"↑":{"ha":1042,"x_min":135,"x_max":905,"o":"m 905 674 l 883 652 q 865 646 874 644 q 849 656 857 648 l 585 920 q 545 965 560 944 q 551 867 551 924 l 551 -157 l 491 -157 l 491 867 q 493 920 491 896 q 497 967 494 945 q 457 920 483 946 l 190 653 q 175 644 183 646 q 158 650 167 642 l 135 672 l 522 1057 l 905 674 z "},"↓":{"ha":1042,"x_min":138,"x_max":907,"o":"m 907 155 l 520 -231 l 138 152 l 159 174 q 177 180 169 182 q 192 170 185 178 l 457 -94 q 479 -119 469 -108 q 497 -140 489 -130 q 490 -41 490 -98 l 490 983 l 551 983 l 551 -41 q 550 -94 551 -70 q 545 -140 548 -119 q 563 -119 553 -130 q 585 -94 572 -108 l 852 172 q 867 182 860 180 q 885 176 875 184 l 907 155 z "},"↗":{"ha":1042,"x_min":42,"x_max":922,"o":"m 922 873 l 922 331 l 891 331 q 874 339 878 332 q 870 357 870 346 l 870 731 q 874 791 870 767 q 845 756 861 774 q 808 717 828 737 l 84 -7 l 42 35 l 766 760 q 805 796 786 780 q 840 826 824 813 q 780 822 815 822 l 402 822 q 384 826 390 822 q 376 842 377 830 l 376 873 l 922 873 z "},"↖":{"ha":1042,"x_min":119,"x_max":999,"o":"m 999 35 l 957 -7 l 233 717 q 197 755 213 737 q 167 790 181 774 q 172 731 172 765 l 172 357 q 167 339 172 346 q 151 331 163 332 l 119 331 l 119 873 l 666 873 l 665 842 q 658 826 665 830 q 640 822 651 822 l 262 822 q 201 826 226 822 q 237 796 218 813 q 276 760 256 780 l 999 35 z "},"↘":{"ha":1042,"x_min":42,"x_max":922,"o":"m 922 543 l 922 0 l 376 0 l 376 31 q 384 47 377 43 q 402 51 390 51 l 780 51 q 840 47 815 51 q 805 77 824 60 q 766 114 786 93 l 42 838 l 84 880 l 808 156 q 845 117 828 136 q 874 82 861 99 q 870 142 870 107 l 870 517 q 874 534 870 527 q 891 542 878 542 l 922 543 z "},"↙":{"ha":1042,"x_min":119,"x_max":999,"o":"m 119 0 l 119 542 l 151 542 q 167 534 163 541 q 172 516 172 527 l 172 142 q 167 83 172 106 q 197 118 181 99 q 233 156 213 136 l 957 880 l 999 838 l 276 113 q 201 47 235 72 q 228 50 213 49 q 262 51 244 51 l 640 51 q 658 47 651 51 q 665 31 665 43 l 666 0 l 119 0 z "},"↔":{"ha":1389,"x_min":85,"x_max":1304,"o":"m 1304 441 l 921 58 l 899 80 q 893 97 891 89 q 903 113 895 106 l 1168 377 q 1192 400 1181 390 q 1213 417 1203 410 q 1168 413 1192 415 q 1114 411 1143 411 l 183 411 q 221 378 201 397 l 488 110 q 498 95 496 103 q 492 78 500 87 l 470 55 l 85 442 l 468 825 l 490 803 q 495 786 497 794 q 485 770 493 778 l 221 506 q 183 472 200 485 l 1114 472 q 1168 470 1143 472 q 1214 465 1193 468 q 1168 506 1193 481 l 901 772 q 891 788 893 780 q 897 805 889 796 l 918 828 l 1304 441 z "},"↕":{"ha":1042,"x_min":135,"x_max":908,"o":"m 521 -231 l 138 152 l 160 174 q 177 180 169 182 q 193 170 185 178 l 458 -94 q 476 -114 467 -105 q 491 -131 484 -123 l 491 867 q 492 920 491 896 q 497 966 494 945 q 457 920 482 946 l 190 653 q 174 644 182 646 q 158 649 167 642 l 135 672 l 522 1057 l 905 674 l 883 652 q 865 646 874 644 q 849 656 857 648 l 585 920 q 545 965 559 946 q 550 920 548 944 q 551 867 551 896 l 551 -132 q 567 -114 558 -124 q 585 -94 575 -105 l 853 172 q 868 182 860 180 q 885 176 876 184 l 908 155 l 521 -231 z "},"Ơ":{"ha":1074,"x_min":83,"x_max":1110,"o":"m 466 48 q 635 84 558 48 q 768 187 712 119 q 856 350 824 254 q 888 565 888 445 q 866 719 888 651 q 803 836 844 788 q 704 910 762 884 q 574 936 646 936 q 407 900 484 936 q 273 797 330 864 q 185 633 217 729 q 153 418 153 538 q 175 264 153 333 q 238 148 197 196 q 337 74 279 100 q 466 48 394 48 m 1106 1076 q 1109 1055 1108 1067 q 1110 1034 1110 1042 q 1094 943 1110 983 q 1051 875 1078 903 q 985 831 1023 847 q 903 809 947 814 q 945 698 931 758 q 959 567 959 637 q 921 331 959 437 q 816 149 883 224 q 657 31 749 73 q 458 -10 565 -10 q 303 20 372 -10 q 184 108 233 51 q 109 242 135 164 q 83 416 83 321 q 121 652 83 545 q 226 834 159 758 q 384 952 293 910 q 582 994 476 994 q 758 954 681 994 q 883 842 834 914 q 941 854 913 844 q 989 878 968 863 q 1022 914 1010 894 q 1035 958 1035 934 q 1031 978 1035 970 q 1023 993 1027 987 q 1015 1007 1019 1000 q 1011 1026 1011 1015 q 1025 1064 1011 1051 q 1065 1076 1039 1076 l 1106 1076 z "},"Ư":{"ha":1042,"x_min":111,"x_max":1109,"o":"m 1106 1076 q 1108 1055 1107 1067 q 1109 1034 1109 1042 q 1090 934 1109 976 q 1037 863 1070 892 q 958 820 1003 835 q 862 806 913 806 l 809 374 q 766 223 799 293 q 682 100 733 152 q 564 18 631 48 q 417 -12 497 -12 q 278 18 338 -12 q 180 100 218 48 q 126 223 142 152 q 121 374 111 293 l 195 983 l 264 983 l 190 375 q 193 247 181 306 q 234 143 204 187 q 312 74 264 99 q 425 49 360 49 q 543 74 490 49 q 638 142 597 99 q 705 246 678 186 q 740 374 731 306 l 815 983 l 883 983 l 866 842 q 930 850 899 842 q 983 875 960 859 q 1020 911 1006 890 q 1034 958 1034 933 q 1030 978 1034 970 q 1022 993 1026 987 q 1014 1007 1018 1000 q 1010 1026 1010 1015 q 1024 1064 1010 1051 q 1064 1076 1038 1076 l 1106 1076 z "},"ơ":{"ha":765,"x_min":53,"x_max":801,"o":"m 306 43 q 416 75 367 43 q 501 159 466 106 q 556 279 536 211 q 575 418 575 347 q 526 590 575 529 q 389 650 476 650 q 279 619 328 650 q 194 535 229 588 q 139 416 158 483 q 120 275 120 348 q 169 104 120 165 q 306 43 217 43 m 799 795 q 801 776 800 788 q 801 758 801 765 q 788 675 801 711 q 749 614 774 640 q 691 573 725 588 q 617 553 657 558 q 641 419 641 494 q 616 258 641 335 q 545 121 591 181 q 438 26 500 62 q 300 -9 375 -9 q 199 10 244 -9 q 121 67 153 30 q 71 156 89 103 q 53 275 53 208 q 65 385 53 331 q 98 485 76 438 q 149 573 119 533 q 218 641 180 613 q 300 686 256 670 q 394 702 344 702 q 519 671 465 702 q 603 583 572 640 q 655 595 631 586 q 696 618 678 604 q 724 651 714 632 q 734 692 734 669 q 731 708 734 701 q 723 720 727 715 q 715 733 719 726 q 712 750 712 740 q 760 795 712 795 l 799 795 z "},"ư":{"ha":792,"x_min":65,"x_max":833,"o":"m 830 795 q 832 776 831 788 q 833 758 833 765 q 817 670 833 708 q 773 607 801 633 q 707 567 745 581 q 626 551 669 553 l 559 0 l 528 0 q 509 7 515 0 q 503 26 503 14 l 524 222 q 462 124 496 167 q 390 52 428 81 q 311 7 352 22 q 231 -9 271 -9 q 103 59 142 -9 q 81 251 65 128 l 133 691 l 198 691 l 146 251 q 159 99 134 152 q 253 46 184 46 q 330 65 291 46 q 406 121 369 85 q 476 209 443 158 q 533 324 508 260 l 577 691 l 642 691 l 629 583 q 683 593 658 585 q 727 616 708 602 q 756 650 745 631 q 766 692 766 669 q 763 708 766 701 q 755 720 759 715 q 747 733 750 726 q 743 750 743 740 q 792 795 743 795 l 830 795 z "},"₫":{"ha":765,"x_min":6,"x_max":754,"o":"m 11 -119 l 608 -119 l 602 -162 l 6 -162 l 11 -119 m 556 545 q 521 591 540 572 q 481 620 502 609 q 436 637 459 632 q 389 642 413 642 q 307 625 345 642 q 239 578 269 608 q 184 509 208 549 q 143 425 160 469 q 118 333 127 381 q 110 242 110 286 q 145 97 110 149 q 249 44 181 44 q 328 67 288 44 q 405 129 367 89 q 474 226 442 169 q 531 351 506 283 l 556 545 m 749 804 l 652 804 l 553 0 l 522 0 q 503 8 508 0 q 498 25 498 15 l 521 242 q 460 140 494 186 q 389 60 426 94 q 310 9 351 27 q 227 -9 269 -9 q 148 8 182 -9 q 91 58 114 26 q 56 135 68 90 q 44 236 44 180 q 56 344 44 289 q 87 449 67 399 q 137 545 108 500 q 204 623 167 590 q 286 675 242 656 q 381 694 331 694 q 485 670 438 694 q 562 598 532 646 l 588 804 l 453 804 q 434 811 438 804 q 431 830 429 818 l 435 847 l 593 847 l 613 1010 l 677 1010 l 657 847 l 754 847 l 749 804 z "},"○":{"ha":921,"x_min":85,"x_max":846,"o":"m 85 453 q 115 601 85 531 q 196 722 144 670 q 317 803 248 774 q 465 833 387 833 q 613 803 544 833 q 734 722 683 774 q 816 601 786 670 q 846 453 846 531 q 816 305 846 374 q 734 184 786 235 q 613 102 683 132 q 465 72 544 72 q 317 102 387 72 q 196 184 248 132 q 115 305 144 235 q 85 453 85 374 m 144 453 q 169 327 144 386 q 237 225 194 269 q 339 156 281 181 q 465 131 398 131 q 591 156 532 131 q 693 225 649 181 q 762 327 737 268 q 787 453 787 385 q 762 578 787 519 q 693 681 737 637 q 591 750 649 724 q 465 775 532 775 q 339 750 398 775 q 237 681 281 725 q 169 579 194 638 q 144 453 144 520 z "},"◌":{"ha":921,"x_min":101,"x_max":832,"o":"m 436 788 q 445 809 436 801 q 466 818 453 818 q 487 809 478 818 q 496 788 496 801 q 487 767 496 776 q 466 758 478 758 q 445 767 453 758 q 436 788 436 776 m 564 763 q 573 784 564 775 q 593 792 581 792 q 614 784 605 792 q 623 763 623 775 q 614 742 623 751 q 593 733 605 733 q 573 742 581 733 q 564 763 564 751 m 673 691 q 682 711 673 703 q 702 720 690 720 q 723 711 714 720 q 732 691 732 703 q 723 670 732 679 q 702 661 714 661 q 682 670 690 661 q 673 691 673 679 m 743 583 q 752 604 743 595 q 773 613 760 613 q 794 604 785 613 q 803 583 803 595 q 794 562 803 571 q 773 553 785 553 q 752 562 760 553 q 743 583 743 571 m 772 453 q 781 474 772 465 q 802 483 790 483 q 823 474 814 483 q 832 453 832 465 q 823 433 832 442 q 802 424 814 424 q 781 433 790 424 q 772 453 772 442 m 307 763 q 316 784 307 775 q 336 792 324 792 q 357 784 348 792 q 366 763 366 775 q 357 742 366 751 q 336 733 348 733 q 316 742 324 733 q 307 763 307 751 m 199 691 q 207 711 199 703 q 228 720 216 720 q 249 711 240 720 q 258 691 258 703 q 249 670 258 679 q 228 661 240 661 q 207 670 216 661 q 199 691 199 679 m 127 583 q 136 604 127 595 q 156 613 144 613 q 177 604 168 613 q 186 583 186 595 q 177 562 186 571 q 156 553 168 553 q 136 562 144 553 q 127 583 127 571 m 101 453 q 110 474 101 465 q 131 483 119 483 q 152 474 143 483 q 160 453 160 465 q 152 433 160 442 q 131 424 143 424 q 110 433 119 424 q 101 453 101 442 m 743 326 q 752 347 743 338 q 773 356 760 356 q 794 347 785 356 q 803 326 803 338 q 794 305 803 314 q 773 296 785 296 q 752 305 760 296 q 743 326 743 314 m 127 326 q 136 347 127 338 q 156 356 144 356 q 177 347 168 356 q 186 326 186 338 q 177 305 186 314 q 156 296 168 296 q 136 305 144 296 q 127 326 127 314 m 673 217 q 682 238 673 229 q 702 247 690 247 q 723 238 714 247 q 732 217 732 229 q 723 196 732 205 q 702 188 714 188 q 682 196 690 188 q 673 217 673 205 m 199 217 q 207 238 199 229 q 228 247 216 247 q 249 238 240 247 q 258 217 258 229 q 249 196 258 205 q 228 188 240 188 q 207 196 216 188 q 199 217 199 205 m 564 147 q 573 167 564 158 q 593 176 581 176 q 614 167 605 176 q 623 147 623 158 q 614 126 623 135 q 593 117 605 117 q 573 126 581 117 q 564 147 564 135 m 307 147 q 316 167 307 158 q 336 176 324 176 q 357 167 348 176 q 366 147 366 158 q 357 126 366 135 q 336 117 348 117 q 316 126 324 117 q 307 147 307 135 m 436 117 q 445 138 436 129 q 466 147 453 147 q 487 138 478 147 q 496 117 496 129 q 487 97 496 106 q 466 88 478 88 q 445 97 453 88 q 436 117 436 106 z "},"͏":{"ha":0,"x_min":0,"x_max":0,"o":""},"᷂":{"ha":0,"x_min":-99,"x_max":36,"o":"m -99 -60 q -92 -53 -99 -57 q -76 -46 -85 -49 q -58 -40 -67 -42 q -43 -37 -49 -37 q -34 -40 -37 -37 q -27 -45 -31 -42 q -17 -53 -24 -49 q 1 -61 -11 -57 q 36 -99 36 -74 q 24 -126 36 -115 q -3 -144 11 -137 q -31 -158 -18 -152 q -43 -172 -43 -165 q -35 -182 -43 -177 q -18 -194 -27 -187 q 0 -209 -8 -200 q 8 -230 8 -217 q -2 -254 8 -244 q -22 -270 -11 -263 q -42 -284 -33 -277 q -51 -301 -51 -290 q -44 -318 -51 -310 q -28 -329 -36 -325 q -27 -330 -27 -329 q -30 -335 -27 -335 q -59 -321 -47 -331 q -72 -296 -72 -310 q -63 -274 -72 -283 q -45 -258 -55 -265 q -26 -246 -35 -251 q -18 -234 -18 -240 q -27 -222 -18 -228 q -47 -210 -36 -217 q -67 -195 -58 -203 q -76 -174 -76 -186 q -64 -148 -76 -158 q -36 -130 -51 -137 q -9 -115 -22 -122 q 3 -100 3 -108 q -4 -89 3 -93 q -22 -85 -11 -85 q -32 -86 -29 -85 q -38 -89 -35 -87 q -43 -91 -40 -90 q -51 -92 -46 -92 q -68 -89 -60 -92 q -83 -81 -76 -85 q -94 -70 -90 -76 q -99 -60 -99 -65 z "},"Ɓ":{"ha":985,"x_min":82,"x_max":911,"o":"m 556 55 q 669 71 619 55 q 753 118 719 88 q 805 193 787 149 q 822 295 822 238 q 808 368 822 335 q 766 424 794 401 q 699 459 739 447 q 607 472 658 472 l 381 472 l 331 55 l 556 55 m 438 928 l 388 522 l 581 522 q 698 542 649 522 q 779 594 747 562 q 826 669 811 627 q 842 757 842 712 q 790 884 842 840 q 631 928 738 928 l 438 928 m 638 983 q 759 968 708 983 q 845 926 811 953 q 895 858 878 898 q 911 769 911 819 q 896 680 911 722 q 853 602 881 637 q 785 541 825 567 q 694 503 744 515 q 840 434 790 487 q 890 298 890 382 q 867 174 890 229 q 800 81 844 119 q 692 21 756 42 q 549 0 629 0 l 255 0 l 369 931 l 342 931 q 252 918 290 931 q 190 883 215 906 q 153 827 165 860 q 141 754 141 794 q 142 730 141 744 q 145 706 144 715 q 144 689 147 697 q 130 678 142 682 l 91 670 q 84 710 86 690 q 82 748 82 731 q 100 845 82 802 q 151 919 117 889 q 235 966 185 950 q 348 983 285 983 l 638 983 z "},"Ƅ":{"ha":828,"x_min":105,"x_max":768,"o":"m 415 55 q 542 78 488 55 q 631 140 597 101 q 683 229 666 179 q 700 333 700 279 q 686 412 700 374 q 645 478 673 449 q 575 524 617 507 q 474 541 532 541 l 255 541 l 205 134 l 196 55 l 415 55 m 479 597 q 606 576 552 597 q 696 519 660 555 q 750 437 732 484 q 768 338 768 390 q 745 206 768 267 q 676 99 722 144 q 564 26 631 53 q 408 0 497 0 l 119 0 l 207 715 l 105 783 l 258 983 l 309 983 l 262 597 l 479 597 z "},"Ɔ":{"ha":880,"x_min":17,"x_max":815,"o":"m 59 164 q 72 158 65 164 q 120 110 95 131 q 174 76 144 90 q 241 55 204 62 q 326 48 278 48 q 488 83 412 48 q 620 185 563 119 q 711 347 678 251 q 744 563 744 442 q 722 716 744 647 q 658 833 699 785 q 558 908 617 881 q 427 934 499 934 q 316 919 363 934 q 236 885 269 903 q 184 851 203 867 q 157 836 165 836 q 142 844 146 836 l 124 874 q 265 963 190 931 q 433 994 340 994 q 592 962 522 994 q 712 874 663 931 q 789 738 762 817 q 815 564 815 658 q 798 402 815 478 q 750 262 781 326 q 674 147 718 198 q 575 61 629 97 q 456 8 520 26 q 323 -11 392 -11 q 221 -1 267 -11 q 138 27 175 9 q 71 72 101 46 q 17 131 41 98 l 47 159 q 59 164 52 164 z "},"Ƈ":{"ha":877,"x_min":82,"x_max":1115,"o":"m 793 131 q 646 27 729 66 q 452 -11 563 -11 q 299 19 367 -11 q 182 106 231 50 q 108 241 134 163 q 82 415 82 319 q 121 650 82 544 q 228 833 160 757 q 389 951 297 909 q 589 994 481 994 q 720 975 663 994 q 824 918 777 956 q 825 937 824 928 q 826 956 825 947 q 843 1048 831 1006 q 879 1120 856 1090 q 934 1168 901 1151 q 1012 1185 967 1185 q 1065 1179 1041 1185 q 1115 1164 1090 1174 l 1102 1130 q 1090 1117 1098 1118 q 1074 1117 1083 1115 q 1043 1126 1059 1123 q 1012 1128 1027 1128 q 924 1082 956 1128 q 881 955 891 1036 l 872 872 l 849 844 q 831 836 842 836 q 817 843 825 836 q 797 861 809 851 q 767 885 785 872 q 724 909 749 898 q 665 927 699 919 q 586 934 631 934 q 415 898 494 934 q 278 795 336 862 q 186 633 219 728 q 153 420 153 538 q 176 265 153 334 q 240 148 199 196 q 338 74 281 99 q 463 48 394 48 q 554 57 514 48 q 626 78 594 65 q 680 106 657 91 q 718 134 702 121 q 744 155 734 147 q 759 164 753 164 q 768 160 765 164 l 793 131 z "},"Ɗ":{"ha":1149,"x_min":82,"x_max":1083,"o":"m 592 56 q 761 91 684 56 q 893 191 838 125 q 981 350 949 256 q 1012 565 1012 444 q 990 716 1012 649 q 927 830 968 783 q 829 902 887 877 q 699 926 771 926 l 438 926 l 331 56 l 592 56 m 706 983 q 863 953 792 983 q 982 869 933 924 q 1057 738 1031 815 q 1083 567 1083 661 q 1046 331 1083 436 q 942 153 1008 226 q 784 40 875 79 q 585 0 692 0 l 255 0 l 369 931 l 342 931 q 252 918 290 931 q 190 883 215 906 q 153 827 165 860 q 141 754 141 794 q 142 730 141 744 q 145 706 144 715 q 144 689 147 697 q 130 678 142 682 l 91 670 q 84 710 86 690 q 82 748 82 731 q 100 845 82 802 q 151 919 117 889 q 235 966 185 950 q 348 983 285 983 l 706 983 z "},"Ƌ":{"ha":783,"x_min":47,"x_max":715,"o":"m 585 483 l 376 483 q 181 422 247 483 q 115 240 115 362 q 167 105 115 154 q 324 55 219 55 l 533 55 l 585 483 m 715 983 l 595 0 l 317 0 q 201 17 251 0 q 116 65 150 33 q 64 140 81 96 q 47 240 47 185 q 67 364 47 309 q 130 458 88 419 q 235 517 172 497 q 382 538 298 538 l 592 538 l 640 928 l 158 928 l 164 983 l 715 983 z "},"Ǝ":{"ha":747,"x_min":15,"x_max":679,"o":"m 559 0 l 15 0 l 22 57 l 496 57 l 547 470 l 153 470 l 160 525 l 553 525 l 603 926 l 129 926 l 136 983 l 679 983 l 559 0 z "},"Ə":{"ha":913,"x_min":63,"x_max":847,"o":"m 133 404 q 138 256 123 322 q 186 144 152 190 q 270 74 220 99 q 382 49 321 49 q 518 74 456 49 q 629 145 581 99 q 710 257 677 192 q 760 404 744 323 l 133 404 m 143 858 q 295 959 208 922 q 490 996 383 996 q 638 966 572 996 q 750 882 703 937 q 822 747 797 826 q 847 567 847 667 q 813 335 847 440 q 718 153 780 229 q 570 34 657 76 q 376 -8 483 -8 q 249 16 306 -8 q 150 86 191 40 q 86 199 108 133 q 63 351 63 266 q 66 407 63 387 q 74 438 69 428 q 86 451 78 449 q 102 454 93 454 l 769 454 q 774 508 772 481 q 776 564 776 535 q 755 722 776 652 q 696 838 735 791 q 602 910 658 885 q 477 935 547 935 q 391 927 430 935 q 322 907 353 919 q 267 880 291 894 q 226 854 244 866 q 196 833 208 842 q 176 825 184 825 q 160 834 165 825 l 143 858 z "},"Ɛ":{"ha":764,"x_min":61,"x_max":750,"o":"m 672 126 q 614 72 648 97 q 540 28 581 47 q 452 0 499 10 q 354 -10 405 -10 q 236 8 290 -10 q 143 59 182 26 q 83 139 104 92 q 61 244 61 186 q 78 342 61 294 q 127 428 95 389 q 207 497 160 467 q 313 540 253 526 q 234 568 267 550 q 182 611 202 587 q 152 663 161 635 q 143 721 143 691 q 167 826 143 777 q 236 913 192 876 q 345 972 281 950 q 487 993 408 993 q 574 985 534 993 q 645 964 613 978 q 703 932 678 951 q 750 889 729 913 l 731 864 q 721 854 726 856 q 712 852 716 852 q 689 865 703 852 q 649 893 675 878 q 582 922 623 909 q 478 935 540 935 q 365 918 414 935 q 282 871 315 901 q 232 802 249 841 q 215 721 215 763 q 232 652 215 681 q 280 602 249 622 q 353 573 311 583 q 443 563 394 563 l 589 563 l 583 512 l 432 512 q 305 491 360 512 q 210 434 249 469 q 152 353 172 399 q 133 257 133 307 q 149 174 133 212 q 197 107 166 135 q 274 64 228 79 q 376 48 319 48 q 480 63 435 48 q 555 97 524 78 q 604 133 586 116 q 626 153 622 149 q 640 160 633 160 q 651 155 647 160 l 672 126 z "},"Ƒ":{"ha":735,"x_min":-151,"x_max":749,"o":"m 269 926 l 217 510 l 628 510 l 621 453 l 210 453 l 160 46 l 161 46 l 152 -28 q 130 -122 146 -80 q 88 -195 113 -165 q 29 -241 63 -225 q -47 -258 -5 -258 q -102 -252 -78 -258 q -151 -237 -126 -247 l -138 -203 q -126 -190 -134 -191 q -110 -191 -119 -188 q -80 -199 -96 -197 q -49 -201 -64 -201 q 40 -156 8 -201 q 83 -28 72 -110 l 92 46 l 206 983 l 749 983 l 743 926 l 269 926 z "},"Ɠ":{"ha":952,"x_min":83,"x_max":1144,"o":"m 901 876 l 879 847 q 849 840 867 831 q 824 859 840 844 q 779 891 808 874 q 706 921 750 908 q 596 934 661 934 q 417 898 498 934 q 277 795 335 862 q 186 633 218 728 q 153 419 153 538 q 176 264 153 333 q 241 146 199 194 q 343 71 283 97 q 478 45 403 45 q 562 50 524 45 q 635 66 601 56 q 700 91 669 76 q 763 124 731 106 l 796 392 l 624 392 q 612 397 617 392 q 609 407 608 401 l 614 445 l 865 445 l 822 97 q 747 51 785 71 q 665 17 708 31 q 573 -4 622 3 q 467 -11 524 -11 q 308 20 378 -11 q 187 107 237 51 q 110 242 137 163 q 83 417 83 321 q 120 653 83 547 q 227 835 158 760 q 392 952 296 911 q 605 994 488 994 q 745 976 686 994 q 851 922 805 958 q 852 939 852 931 q 854 956 853 947 q 872 1047 858 1005 q 908 1119 885 1089 q 965 1167 931 1150 q 1042 1185 998 1185 q 1095 1179 1072 1185 q 1144 1164 1119 1174 l 1131 1130 q 1119 1117 1127 1118 q 1103 1117 1112 1115 q 1073 1126 1089 1123 q 1041 1128 1057 1128 q 953 1083 985 1128 q 910 955 920 1037 l 901 876 z "},"Ɣ":{"ha":833,"x_min":60,"x_max":906,"o":"m 551 53 q 538 69 542 60 l 400 335 q 383 310 394 321 l 203 65 q 187 53 196 58 l 551 53 m 449 374 l 649 0 l 75 0 l 368 378 l 60 983 l 126 983 q 140 979 135 983 q 147 968 144 974 l 419 423 l 817 968 q 827 978 822 974 q 839 983 833 983 l 906 983 l 449 374 z "},"Ɩ":{"ha":381,"x_min":98,"x_max":320,"o":"m 202 983 l 272 983 l 174 187 q 274 44 156 44 l 320 44 l 317 21 q 297 -2 315 5 q 244 -8 279 -8 q 175 5 204 -8 q 129 43 147 18 q 105 104 111 68 q 103 184 98 140 l 202 983 z "},"Ƙ":{"ha":847,"x_min":85,"x_max":894,"o":"m 219 528 l 273 528 q 294 529 285 528 q 313 533 304 530 q 330 542 322 536 q 347 560 338 549 l 606 891 q 693 968 645 943 q 801 992 740 992 q 853 987 831 992 q 894 973 876 981 l 883 940 q 871 926 879 928 q 853 928 863 925 q 828 935 842 932 q 797 938 813 938 q 663 867 722 938 l 414 550 q 389 524 401 534 q 360 508 376 514 q 389 494 377 504 q 413 469 401 485 l 756 0 l 700 0 q 675 5 683 0 q 663 18 668 9 l 348 440 q 336 455 342 448 q 322 466 330 461 q 305 472 315 470 q 279 474 294 474 l 213 474 l 155 0 l 85 0 l 206 983 l 275 983 l 219 528 z "},"Ɯ":{"ha":1368,"x_min":99,"x_max":1301,"o":"m 1301 983 l 1181 1 l 1147 1 q 1124 26 1125 1 l 1151 291 q 1022 68 1097 146 q 857 -10 947 -10 q 772 8 809 -10 q 709 61 735 27 q 668 143 683 95 q 649 250 653 192 q 592 139 625 188 q 519 58 558 91 q 436 7 480 24 q 349 -10 393 -10 q 159 89 219 -10 q 122 381 99 188 l 197 983 l 265 983 l 191 381 q 220 127 173 211 q 367 44 267 44 q 458 70 413 44 q 541 145 503 97 q 605 260 578 194 q 642 408 632 327 l 713 983 l 783 983 l 711 408 q 708 255 703 322 q 732 140 713 187 q 788 68 752 93 q 875 44 823 44 q 960 70 919 44 q 1037 148 1001 97 q 1105 270 1074 198 q 1164 432 1137 342 l 1231 983 l 1301 983 z "},"Ɲ":{"ha":974,"x_min":-153,"x_max":907,"o":"m 907 983 l 786 0 l 753 0 q 740 3 744 0 q 730 13 735 6 l 251 868 q 250 849 251 858 q 249 831 250 840 l 149 28 l 150 28 l 140 -45 q 119 -140 134 -97 q 80 -212 104 -182 q 23 -259 56 -242 q -51 -275 -10 -275 q -104 -269 -81 -275 q -153 -253 -128 -264 l -140 -220 q -128 -207 -136 -208 q -112 -208 -120 -206 q -82 -216 -98 -214 q -51 -219 -65 -219 q 38 -173 6 -219 q 81 -45 71 -127 l 90 28 l 207 983 l 240 983 q 255 980 250 983 q 265 969 260 977 l 742 117 q 743 136 742 127 q 745 153 744 145 l 847 983 l 907 983 z "},"Ɵ":{"ha":1023,"x_min":83,"x_max":959,"o":"m 155 476 q 153 418 153 448 q 175 264 153 333 q 238 148 197 196 q 337 74 279 100 q 466 48 394 48 q 620 77 549 48 q 745 162 691 107 q 836 297 800 217 q 883 476 872 376 l 155 476 m 887 530 q 888 548 888 539 q 888 565 888 556 q 866 719 888 651 q 803 836 844 788 q 704 910 762 884 q 574 936 646 936 q 426 908 495 936 q 303 827 357 880 q 212 700 249 775 q 161 530 175 624 l 887 530 m 582 994 q 739 963 669 994 q 857 876 808 932 q 933 741 906 819 q 959 567 959 662 q 921 331 959 437 q 816 149 883 224 q 657 31 749 73 q 458 -10 565 -10 q 303 20 372 -10 q 184 108 233 51 q 109 242 135 164 q 83 416 83 321 q 121 652 83 545 q 226 834 159 758 q 384 952 293 910 q 582 994 476 994 z "}}}
